<?xml version="1.0" encoding="utf-8"?>
<!-- Generator: Adobe Illustrator 19.0.0, SVG Export Plug-In . SVG Version: 6.00 Build 0)  -->
<svg version="1.1" xmlns="http://www.w3.org/2000/svg" xmlns:xlink="http://www.w3.org/1999/xlink" x="0px" y="0px"
	 viewBox="0 0 1920 837" style="enable-background:new 0 0 1920 837;" xml:space="preserve">
<style type="text/css">
	.st0{fill:#FFFFFF;}
	.st1{fill:none;stroke:#FFFFFF;stroke-width:1.6101;stroke-dasharray:2.1469;}
	.st2{fill:#1870B7;}
	.st3{fill:#FEC40D;}
	.st4{fill:#F79A1F;}
	.st5{fill:none;stroke:#292E33;stroke-width:1.7861;}
	.st6{fill:none;stroke:#292E33;stroke-width:1.7861;stroke-linejoin:bevel;}
	.st7{clip-path:url(#XMLID_37_);}
	.st8{fill:#FFFFFF;stroke:#292E33;stroke-width:1.6101;}
	.st9{fill:#61B4E4;stroke:#292E33;stroke-width:1.6101;}
	.st10{fill:none;stroke:#292E33;stroke-width:1.6101;}
	.st11{clip-path:url(#XMLID_298_);}
	.st12{fill:#F7C450;stroke:#292E33;stroke-width:1.6101;}
	.st13{clip-path:url(#XMLID_306_);}
	.st14{clip-path:url(#XMLID_307_);}
	.st15{clip-path:url(#XMLID_308_);}
	.st16{fill:#A6DEF8;}
	.st17{clip-path:url(#XMLID_309_);}
	.st18{clip-path:url(#XMLID_310_);}
	.st19{fill:#C0D34B;stroke:#292E33;stroke-width:1.6431;}
	.st20{fill:#FFFFFF;stroke:#292E33;stroke-width:1.6431;}
	.st21{fill:#F7C450;stroke:#292E33;stroke-width:1.6431;}
	.st22{fill:none;stroke:#292E33;stroke-width:1.6431;}
	.st23{fill:#CE2728;stroke:#292E33;stroke-width:1.6101;}
	.st24{fill:#FFFFFF;stroke:#292E33;stroke-width:1.6101;stroke-linejoin:round;}
	.st25{fill:none;}
	.st26{fill:#FCC613;}
	.st27{fill:#F0536B;}
	.st28{fill:#D91E39;}
	.st29{fill:#F89720;}
	.st30{fill:#F38751;}
	.st31{fill:#5D2F14;}
	.st32{fill:#FEE1C3;}
	.st33{fill:#F3D3AE;}
	.st34{fill:#F1F2F2;}
	.st35{fill:#B3E2EF;stroke:#F2F2F2;stroke-width:1.92;stroke-linecap:round;stroke-miterlimit:10;}
	.st36{fill:none;stroke:#F2F2F2;stroke-width:1.92;stroke-linecap:round;stroke-miterlimit:10;}
	.st37{fill:#53C8E9;stroke:#F2F2F2;stroke-width:1.92;stroke-linecap:round;stroke-miterlimit:10;}
	.st38{fill:#0393AA;stroke:#F2F2F2;stroke-width:1.92;stroke-linecap:round;stroke-miterlimit:10;}
	.st39{fill:#ECF0B9;stroke:#F2F2F2;stroke-width:1.92;stroke-linecap:round;stroke-miterlimit:10;}
</style>
<g id="Layer_1">
	<path id="XMLID_285_" class="st0" d="M1175.8,363.8c0,4.2-3.4,7.5-7.6,7.5c-4.2,0-7.5-3.4-7.5-7.5c0-4.2,3.4-7.5,7.5-7.5
		C1172.4,356.2,1175.8,359.6,1175.8,363.8z"/>
	<circle id="XMLID_284_" class="st0" cx="1546" cy="220.8" r="7.5"/>
	<circle id="XMLID_283_" class="st0" cx="1185.2" cy="197.2" r="7.5"/>
	<circle id="XMLID_282_" class="st0" cx="1677.6" cy="188.6" r="7.6"/>
	<circle id="XMLID_281_" class="st0" cx="1855.7" cy="388.9" r="7.5"/>
	<circle id="XMLID_280_" class="st0" cx="1739" cy="436.2" r="7.5"/>
	<circle id="XMLID_279_" class="st0" cx="1116" cy="495.4" r="7.5"/>
	<circle id="XMLID_278_" class="st0" cx="1535.7" cy="617.9" r="5.2"/>
	<path id="XMLID_277_" class="st0" d="M1606.7,323.1c0,2.9-2.3,5.2-5.2,5.2c-2.9,0-5.2-2.3-5.2-5.2c0-2.9,2.3-5.2,5.2-5.2
		C1604.4,317.9,1606.7,320.3,1606.7,323.1z"/>
	<circle id="XMLID_276_" class="st0" cx="1816.6" cy="279.2" r="5.2"/>
	<circle id="XMLID_275_" class="st0" cx="963.5" cy="299.1" r="5.2"/>
	<line id="XMLID_274_" class="st1" x1="1229.5" y1="546.7" x2="1116" y2="495.4"/>
	<line id="XMLID_273_" class="st1" x1="1194.5" y1="375" x2="1307" y2="334.1"/>
	<line id="XMLID_272_" class="st1" x1="1816.6" y1="279.2" x2="1760.9" y2="395.4"/>
	<line id="XMLID_271_" class="st1" x1="1535.7" y1="617.9" x2="1745.9" y2="568"/>
	<line id="XMLID_270_" class="st1" x1="1705.9" y1="406.7" x2="1573.4" y2="255.4"/>
	<line id="XMLID_269_" class="st1" x1="1116" y1="495.4" x2="1168.2" y2="363.8"/>
	<line id="XMLID_268_" class="st1" x1="1538.3" y1="618.2" x2="1713.4" y2="467.9"/>
	<line id="XMLID_267_" class="st1" x1="1314.5" y1="574.2" x2="1535.8" y2="618"/>
	<line id="XMLID_266_" class="st1" x1="1695.9" y1="435.4" x2="1209.5" y2="372.9"/>
	<line id="XMLID_265_" class="st1" x1="1817.2" y1="280.4" x2="1587.1" y2="232.9"/>
	<line id="XMLID_264_" class="st1" x1="919.4" y1="438.8" x2="1189.2" y2="195.1"/>
	<line id="XMLID_263_" class="st1" x1="1185.2" y1="197.2" x2="1308.3" y2="288.5"/>
	<line id="XMLID_262_" class="st1" x1="1802.2" y1="287.9" x2="1673.4" y2="299.1"/>
	<line id="XMLID_261_" class="st1" x1="1763" y1="563.2" x2="1739.1" y2="432.3"/>
	<line id="XMLID_260_" class="st1" x1="1817.2" y1="277.9" x2="1724.7" y2="214.1"/>
	<line id="XMLID_259_" class="st1" x1="1601.5" y1="323.1" x2="1855.7" y2="388.9"/>
	<ellipse id="XMLID_258_" class="st0" cx="1353.5" cy="463.2" rx="7.4" ry="8.7"/>
	<ellipse id="XMLID_257_" class="st0" cx="1003.6" cy="603.7" rx="7.4" ry="8.7"/>
	<path id="XMLID_256_" class="st0" d="M1265.5,641.8c0-4.8,3.3-8.7,7.4-8.7c4.1,0,7.4,3.9,7.4,8.7c0,4.8-3.3,8.7-7.4,8.7
		C1268.8,650.5,1265.5,646.6,1265.5,641.8z"/>
	<ellipse id="XMLID_255_" class="st0" cx="1359.5" cy="345.4" rx="7.4" ry="8.7"/>
	<path id="XMLID_254_" class="st0" d="M1035.9,227.3c0-3.3,2.3-6,5.1-6c2.8,0,5.1,2.7,5.1,6c0,3.3-2.3,6-5.1,6
		C1038.2,233.3,1035.9,230.6,1035.9,227.3z"/>
	<path id="XMLID_253_" class="st0" d="M924.3,471.6c0-3.3,2.3-6,5.1-6c2.8,0,5.1,2.7,5.1,6c0,3.3-2.3,6-5.1,6
		C926.5,477.5,924.3,474.9,924.3,471.6z"/>
	<path id="XMLID_252_" class="st0" d="M1612.9,610.5c0-3.3,2.3-6,5.1-6c2.8,0,5.1,2.7,5.1,6c0,3.3-2.3,6-5.1,6
		C1615.1,616.4,1612.9,613.8,1612.9,610.5z"/>
	<line id="XMLID_251_" class="st1" x1="1618" y1="610.5" x2="1359.5" y2="345.4"/>
	<line id="XMLID_250_" class="st1" x1="1353.5" y1="463.2" x2="1043.8" y2="573.5"/>
	<line id="XMLID_249_" class="st1" x1="1041" y1="227.3" x2="1010.6" y2="546.3"/>
	<line id="XMLID_248_" class="st1" x1="929.4" y1="471.6" x2="977.4" y2="557.7"/>
	<line id="XMLID_247_" class="st1" x1="1359.5" y1="345.4" x2="1353.5" y2="463.2"/>
	<line id="XMLID_246_" class="st1" x1="1041" y1="227.3" x2="974.3" y2="319.2"/>
	<line id="XMLID_245_" class="st1" x1="1353.5" y1="463.2" x2="1618" y2="610.5"/>
	<line id="XMLID_244_" class="st1" x1="1132.2" y1="387" x2="901.3" y2="359.8"/>
	<line id="XMLID_243_" class="st1" x1="1201" y1="431" x2="1251.3" y2="583.1"/>
	<line id="XMLID_242_" class="st1" x1="976.2" y1="321.3" x2="998.3" y2="546.3"/>
	<line id="XMLID_241_" class="st1" x1="1606.5" y1="322.3" x2="1317.7" y2="606.5"/>
	<line id="XMLID_240_" class="st1" x1="1637.1" y1="199.1" x2="1589.2" y2="212"/>
	<line id="XMLID_239_" class="st1" x1="1234.2" y1="628" x2="1048.7" y2="612.2"/>
	<g id="XMLID_214_">
		<g id="XMLID_232_">
			<path id="XMLID_238_" class="st2" d="M1784.7,322.2v-2.6c0-4.4,3.6-8.3,8.8-10.3c2.3,3.3,6.5,5.5,10.9,5.5h1.4
				c0.1,3.8,3.5,7.4,7.6,7.4c4.1,0,7.5-3.6,7.6-7.4h1.4c4.4,0,8-2.2,10.3-5.5c5.2,2,8.2,6,8.2,10.3v3.6c-7.5,5.3-17.4,8.4-27.5,8.4
				C1802.8,331.5,1794.1,328.1,1784.7,322.2z"/>
			<path id="XMLID_237_" class="st3" d="M1792.6,267.9c0-11.3,9.9-20.6,21.3-20.6c11.4,0,21.3,8.6,21.3,19.7v32.1l-8.6-33
				c-1.7-4.7-4.9-7.1-8.7-6.8c-2.2,0.2-3.8,1.5-4.5,2.8c-0.7-1.3-2.3-2.6-4.4-2.8c-3.7-0.3-6,2.1-7.7,6.8l-7.3,32.9v-31.2H1792.6z"
				/>
			<path id="XMLID_236_" class="st4" d="M1832,307.7l-0.3,1.1c0,0,0.1-0.3,0.1-0.3c-2.1,2.9-5.6,4.4-9.4,4.4h-2.1v-11.3h0.2
				c1.8-1.9,3.8-4,4.8-5.9c2.6-4.9,4.3-10.8,4.3-14.2v-1.4l5,23.2c-0.2,1.6-1.1,3.1-1.9,4.5C1832.6,307.8,1832.1,307.8,1832,307.7z"
				/>
			<path id="XMLID_235_" class="st0" d="M1807.2,301.8c1.9,1.5,4,2.5,6.6,2.6c2.6-0.1,4.7-1.1,6.5-2.6v12.6c0,3.6-3,6.5-6.6,6.5
				c-3.6,0-6.6-2.9-6.6-6.5V301.8z"/>
			<path id="XMLID_234_" class="st0" d="M1799.5,275.4l2.2-9c1.5-4.3,4-6.3,7.2-6c2.7,0.2,3.8,2.4,3.9,3.4l0.6,0l0.6,0.1
				c0.1-1,1.2-3.1,3.9-3.3c3.2-0.3,5.7,1.7,7.2,5.9l2.2,9h0.6v6.2c0,7.2-5,21.4-14,21.8c-9-0.3-14.1-14.5-14.1-21.8v-6.2H1799.5z"/>
			<path id="XMLID_233_" class="st4" d="M1799.7,280.2v1.4c0,3.4,0.5,9.2,3,14.2c1,1.9,1.7,4,3.5,5.9h-0.9v11.3h-0.9
				c-6,0-10.2-4.1-11-9.9L1799.7,280.2z"/>
		</g>
		<g id="XMLID_215_">
			<g id="XMLID_230_">
				<path id="XMLID_231_" class="st5" d="M1814,332.1c-27.1,0-49.1-22-49.1-49.1c0-27.1,22-49.1,49.1-49.1c27.1,0,49.1,22,49.1,49.1
					C1863.2,310.1,1841.1,332.1,1814,332.1z"/>
			</g>
			<g id="XMLID_216_">
				<path id="XMLID_229_" class="st5" d="M1831.8,308.3c5.9,1.9,10.1,6.2,10.1,11.3v4.2"/>
				<path id="XMLID_228_" class="st5" d="M1784.9,323.8v-4.2c0-4.8,3.7-9,9.1-11"/>
				<path id="XMLID_227_" class="st5" d="M1827.8,275.6c0,5.9,0,0,0,5.9c0,7.1-4.8,22-14.4,22.3l0,0c-9.6-0.3-14.5-15.2-14.4-22.3
					c0-5.9,0,0,0-5.9"/>
				<path id="XMLID_226_" class="st5" d="M1813.4,327.2"/>
				<g id="XMLID_223_">
					<path id="XMLID_225_" class="st5" d="M1813.4,263.8c-0.2-1.3-1.6-3.6-4.4-3.8l0,0c-3.2-0.3-6.1,1.5-7.8,6.4l-9.1,37.3"/>
					<path id="XMLID_224_" class="st5" d="M1813.4,263.8c0.2-1.3,1.6-3.6,4.4-3.8l0,0c3.2-0.3,6.1,1.5,7.8,6.4l9.1,37.3"/>
				</g>
				<path id="XMLID_222_" class="st5" d="M1834.7,265.9v36c0,6.8-5.5,12.3-12.3,12.3h-1.9"/>
				<path id="XMLID_221_" class="st5" d="M1806.3,314.2h-1.9c-6.8,0-12.3-5.5-12.3-12.3v-36"/>
				<path id="XMLID_220_" class="st5" d="M1820.4,301.2v13.2c0,3.9-3.2,7.1-7.1,7.1l0,0c-3.9,0-7.1-3.2-7.1-7.1v-13.2"/>
				<path id="XMLID_219_" class="st5" d="M1809.4,291.2c0,0.1,0,0.3,0,0.4c0,2.1,1.7,3.9,3.9,3.9h0.5c2.1,0,3.9-1.7,3.9-3.9
					c0-0.1,0-0.3,0-0.4H1809.4z"/>
				<polyline id="XMLID_218_" class="st6" points="1815.2,273.7 1820,284.2 1813.9,284.2 				"/>
				<path id="XMLID_217_" class="st5" d="M1792.1,267c0-11.4,9.5-20.7,21.3-20.7c11.8,0,21.3,9.3,21.3,20.7"/>
			</g>
		</g>
	</g>
	<g id="XMLID_198_">
		<g id="XMLID_199_">
			<defs>
				<circle id="XMLID_200_" cx="1031.5" cy="228.1" r="42.2"/>
			</defs>
			<clipPath id="XMLID_37_">
				<use xlink:href="#XMLID_200_"  style="overflow:visible;"/>
			</clipPath>
			<g id="XMLID_201_" class="st7">
				<path id="XMLID_213_" class="st8" d="M1007.4,221.1v8.5c0,1.4,1.1,2.5,2.5,2.5s2.5-1.1,2.5-2.5v-8.5H1007.4z"/>
				<path id="XMLID_212_" class="st8" d="M1049,221.1v8.5c0,1.4,1.1,2.5,2.5,2.5c1.4,0,2.5-1.1,2.5-2.5v-8.5H1049z"/>
				<path id="XMLID_211_" class="st9" d="M1001.5,271.1v-8.7c0-4.4,4.1-8.1,9.1-8.1h39.9c5,0,9.1,3.6,9.1,8.1v8.7"/>
				<polygon id="XMLID_210_" class="st8" points="1043.5,260.7 1043.5,254.3 1017.7,254.3 1017.7,260.7 1030.6,268.2 				"/>
				<polygon id="XMLID_209_" class="st8" points="1038.2,257.7 1030.6,262.1 1022.9,257.7 1022.9,241 1030.6,241 1038.2,241 				"/>
				<path id="XMLID_208_" class="st8" d="M1048.7,209.8c0-5.9-4.8-10.6-10.6-10.6h-15.2c-5.9,0-10.6,4.8-10.6,10.6l0,29.9l10.1,11.6
					h16.4l10.1-11.6L1048.7,209.8z"/>
				<path id="XMLID_207_" class="st9" d="M1030.4,231.8c-7,0-13,4.1-16.1,10.2l8,9.1h16.4l7.8-9
					C1043.5,236,1037.5,231.8,1030.4,231.8z"/>
				<path id="XMLID_206_" class="st8" d="M1026.1,239.4c0,0.1,0,0.3,0,0.5c0,2.3,1.8,4.1,4.1,4.1h0.5c2.3,0,4.1-1.8,4.1-4.1
					c0-0.2,0-0.3,0-0.5H1026.1z"/>
				<g id="XMLID_203_">
					<line id="XMLID_205_" class="st10" x1="1022.3" y1="221.3" x2="1019.1" y2="221.3"/>
					<line id="XMLID_204_" class="st10" x1="1041.9" y1="221.3" x2="1038.6" y2="221.3"/>
				</g>
				<polyline id="XMLID_202_" class="st10" points="1034,216.6 1034,227.3 1027,227.3 1027,216.6 1018.7,216.6 				"/>
			</g>
			<use xlink:href="#XMLID_200_"  style="overflow:visible;fill:none;stroke:#292E33;stroke-width:1.6101;"/>
		</g>
	</g>
	<g id="XMLID_181_">
		<g id="XMLID_182_">
			<defs>
				<path id="XMLID_183_" d="M1214.1,386.3c0,23.3-18.9,42.2-42.2,42.2c-23.3,0-42.2-18.9-42.2-42.2c0-23.3,18.9-42.2,42.2-42.2
					C1195.2,344.1,1214.1,363,1214.1,386.3z"/>
			</defs>
			<clipPath id="XMLID_298_">
				<use xlink:href="#XMLID_183_"  style="overflow:visible;"/>
			</clipPath>
			<g id="XMLID_184_" class="st11">
				<path id="XMLID_197_" class="st8" d="M1144.7,431.4v-9.3c0-4.1,3.8-7.4,8.4-7.4h36.8c4.6,0,8.4,3.3,8.4,7.4v9.3"/>
				<polygon id="XMLID_196_" class="st8" points="1179.5,414.5 1171.5,419.1 1163.5,414.5 1163.5,397 1171.5,397 1179.5,397 				"/>
				<circle id="XMLID_195_" class="st12" cx="1171.4" cy="361.5" r="9.2"/>
				<path id="XMLID_194_" class="st8" d="M1194.5,391.8c0,2-1.7,3.7-3.7,3.7h-0.3c-2,0-3.7-1.7-3.7-3.7v-6.8c0-2,1.7-3.7,3.7-3.7
					h0.3c2,0,3.7,1.7,3.7,3.7V391.8z"/>
				<path id="XMLID_193_" class="st8" d="M1190.1,391.7c0,10.3-8.4,18.7-18.7,18.7l0,0c-10.3,0-18.7-8.4-18.7-18.7v-15
					c0-10.3,8.4-18.7,18.7-18.7l0,0c10.3,0,18.7,8.4,18.7,18.7V391.7z"/>
				<path id="XMLID_192_" class="st8" d="M1152.7,381.4c-1.9,0.2-4.9,1.7-4.9,3.7v6.8c0,1.9,3,3.5,4.9,3.7V381.4z"/>
				<line id="XMLID_191_" class="st10" x1="1171.5" y1="422.9" x2="1171.5" y2="426"/>
				<line id="XMLID_190_" class="st10" x1="1171.5" y1="428.3" x2="1171.5" y2="431.3"/>
				<path id="XMLID_189_" class="st12" d="M1171.4,358c-10.3,0-18.7,8.4-18.7,18.7v3.5h24.3l3.3-5.7l3.3,5.7h6.6v-3.5
					C1190.1,366.3,1181.7,358,1171.4,358z"/>
				<path id="XMLID_188_" class="st8" d="M1168.7,394c0.6,1.1,1.7,1.8,2.9,1.8c1.2,0,2.2-0.7,2.9-1.8"/>
				<line id="XMLID_187_" class="st10" x1="1163.7" y1="387.3" x2="1160.3" y2="387.3"/>
				<line id="XMLID_186_" class="st10" x1="1182.6" y1="387.3" x2="1179.2" y2="387.3"/>
				<path id="XMLID_185_" class="st8" d="M1167,400.8v0.3c0,1.8,1.5,3.4,3.4,3.4h2.3c1.9,0,3.4-1.5,3.4-3.4v-0.3H1167z"/>
			</g>
			<use xlink:href="#XMLID_183_"  style="overflow:visible;fill:none;stroke:#292E33;stroke-width:1.6101;"/>
		</g>
	</g>
	<g id="XMLID_166_">
		<g id="XMLID_167_">
			<defs>
				<path id="XMLID_168_" d="M1310.1,600.6c0,23.3-18.9,42.2-42.2,42.2c-23.3,0-42.2-18.9-42.2-42.2c0-23.3,18.9-42.2,42.2-42.2
					C1291.2,558.4,1310.1,577.3,1310.1,600.6z"/>
			</defs>
			<clipPath id="XMLID_306_">
				<use xlink:href="#XMLID_168_"  style="overflow:visible;"/>
			</clipPath>
			<g id="XMLID_169_" class="st13">
				<path id="XMLID_180_" class="st8" d="M1291.7,606.8c0,1.6-1.3,2.9-2.9,2.9h-2.6c-1.6,0-2.9-1.3-2.9-2.9v-5.4
					c0-1.6,1.3-2.9,2.9-2.9h2.6c1.6,0,2.9,1.3,2.9,2.9V606.8z"/>
				<path id="XMLID_179_" class="st8" d="M1249.2,606.8c0,1.6-1.3,2.9-2.9,2.9h-2.6c-1.6,0-2.9-1.3-2.9-2.9v-5.4
					c0-1.6,1.3-2.9,2.9-2.9h2.6c1.6,0,2.9,1.3,2.9,2.9V606.8z"/>
				<polyline id="XMLID_178_" class="st12" points="1247,641.3 1251.5,632.7 1289.1,632.7 1293.6,641.3 				"/>
				<path id="XMLID_177_" class="st8" d="M1273.6,631.2c0,3.1-2.5,5.6-5.6,5.6h-0.4c-3.1,0-5.6-2.5-5.6-5.6v-14.4
					c0-3.1,2.5-5.6,5.6-5.6h0.4c3.1,0,5.6,2.5,5.6,5.6V631.2z"/>
				<path id="XMLID_176_" class="st9" d="M1289.5,586.2c0,11.7-9.5,21.1-21.1,21.1c-11.7,0-21.1-9.5-21.1-21.1
					c0-11.7,9.5-21.1,21.1-21.1C1280,565.1,1289.5,574.5,1289.5,586.2z"/>
				<path id="XMLID_175_" class="st12" d="M1283.8,597.3c0,9.2-7.5,16.7-16.7,16.7c-9.2,0-16.7-7.5-16.7-16.7
					c0-9.2,7.5-16.7,16.7-16.7C1276.3,580.6,1283.8,588,1283.8,597.3z"/>
				<path id="XMLID_174_" class="st8" d="M1287.4,607.1c0,11.8-9.5,21.3-21.3,21.3c-11.8,0-21.3-9.5-21.3-21.3
					c0-11.8,9.5-21.3,21.3-21.3C1277.8,585.8,1287.4,595.4,1287.4,607.1z"/>
				<path id="XMLID_173_" class="st10" d="M1251.8,600.7c0-2.4,1.9-4.4,4.4-4.4c2.4,0,4.4,1.9,4.4,4.4"/>
				<path id="XMLID_172_" class="st10" d="M1269.1,600.7c0-2.4,1.9-4.4,4.4-4.4c2.4,0,4.4,1.9,4.4,4.4"/>
				<path id="XMLID_171_" class="st10" d="M1264.5,597.4v9h-0.6c-1.4,0-2.6,1.2-2.6,2.6c0,1.4,1.2,2.6,2.6,2.6h2"/>
				<path id="XMLID_170_" class="st8" d="M1262.4,619.8c2.6,1.7,5.9,2.3,9,1.2c3.2-1.1,5.4-3.6,6.3-6.6L1262.4,619.8z"/>
			</g>
			<use xlink:href="#XMLID_168_"  style="overflow:visible;fill:none;stroke:#292E33;stroke-width:1.6101;"/>
		</g>
	</g>
	<path id="XMLID_165_" class="st10" d="M1585,225.4c0,23.3-18.9,42.2-42.2,42.2c-23.3,0-42.2-18.9-42.2-42.2
		c0-23.3,18.9-42.2,42.2-42.2C1566,183.1,1585,202,1585,225.4z"/>
	<g id="XMLID_148_">
		<g id="XMLID_149_">
			<defs>
				<circle id="XMLID_150_" cx="1681.1" cy="197.2" r="42.2"/>
			</defs>
			<clipPath id="XMLID_307_">
				<use xlink:href="#XMLID_150_"  style="overflow:visible;"/>
			</clipPath>
			<g id="XMLID_151_" class="st14">
				<path id="XMLID_164_" class="st9" d="M1663.2,236.6v-8.3c0-3.1,2.5-5.5,5.5-5.5h30.5c3.1,0,5.5,2.5,5.5,5.5v8.3"/>
				<path id="XMLID_163_" class="st8" d="M1673.2,236.6v-7.7c0-2.8,1.3-5.1,2.9-5.1h15.8c1.6,0,2.9,2.3,2.9,5.1v7.7"/>
				<rect id="XMLID_162_" x="1679.1" y="210.2" class="st8" width="9.7" height="18"/>
				<ellipse id="XMLID_161_" class="st9" cx="1669.2" cy="186.2" rx="11.6" ry="12"/>
				<path id="XMLID_160_" class="st9" d="M1673.8,199.3c0,4.2-3.3,7.7-7.4,7.7c-4.1,0-7.4-3.4-7.4-7.7c0-4.2,3.3-7.7,7.4-7.7
					C1670.5,191.6,1673.8,195.1,1673.8,199.3z"/>
				<ellipse id="XMLID_159_" class="st8" cx="1667.8" cy="193.3" rx="7.4" ry="7.7"/>
				<path id="XMLID_158_" class="st9" d="M1704.3,199.3c0,4.2-3.3,7.7-7.4,7.7c-4.1,0-7.4-3.4-7.4-7.7c0-4.2,3.3-7.7,7.4-7.7
					C1701,191.6,1704.3,195.1,1704.3,199.3z"/>
				<path id="XMLID_157_" class="st8" d="M1697.8,200.5c0,9.1-7.4,16.5-16.5,16.5l0,0c-9.1,0-16.5-7.4-16.5-16.5v-13.2
					c0-9.1,7.4-16.5,16.5-16.5l0,0c9.1,0,16.5,7.4,16.5,16.5V200.5z"/>
				<path id="XMLID_156_" class="st9" d="M1696.2,175.2l11.8,11.7l-2.1,2.1c-6.5,6.5-17,6.5-23.5,0l-14.7-14.7
					C1675.8,167.1,1688.4,167.3,1696.2,175.2z"/>
				<path id="XMLID_155_" class="st10" d="M1670,194.4c0-2.2,1.8-4.1,4.1-4.1c2.2,0,4.1,1.8,4.1,4.1"/>
				<line id="XMLID_154_" class="st10" x1="1677.7" y1="206.1" x2="1684" y2="206.1"/>
				<line id="XMLID_153_" class="st10" x1="1680.2" y1="232.7" x2="1687.8" y2="232.7"/>
				<line id="XMLID_152_" class="st10" x1="1684" y1="232.1" x2="1684" y2="236.1"/>
			</g>
			<use xlink:href="#XMLID_150_"  style="overflow:visible;fill:none;stroke:#292E33;stroke-width:1.6101;"/>
		</g>
	</g>
	<g id="XMLID_130_">
		<g id="XMLID_131_">
			<defs>
				<path id="XMLID_132_" d="M1782.3,434.9c0,23.3-18.9,42.2-42.2,42.2c-23.3,0-42.2-18.9-42.2-42.2c0-23.3,18.9-42.2,42.2-42.2
					C1763.4,392.7,1782.3,411.6,1782.3,434.9z"/>
			</defs>
			<clipPath id="XMLID_308_">
				<use xlink:href="#XMLID_132_"  style="overflow:visible;"/>
			</clipPath>
			<g id="XMLID_133_" class="st15">
				<path id="XMLID_147_" class="st12" d="M1753.3,415.6L1753.3,415.6c-0.1-1.2-0.7-2.4-1.7-3.6v10.7c2,0.3,3.5,2.1,3.5,4.1V437h4.2
					v-15.4C1759.2,418.3,1756.6,415.6,1753.3,415.6z"/>
				<path id="XMLID_146_" class="st8" d="M1712,476.6v-9.4c0-4.1,3.8-7.5,8.5-7.5h37.2c4.7,0,8.5,3.4,8.5,7.5v9.4"/>
				<polygon id="XMLID_145_" class="st8" points="1746.3,461 1739.1,466.5 1732,461 1732,440.5 1739.1,440.5 1746.3,440.5 				"/>
				<path id="XMLID_144_" class="st8" d="M1760.5,440.4c0,1.8-1.5,3.3-3.3,3.3h-0.3c-1.8,0-3.3-1.5-3.3-3.3v-3.2
					c0-1.8,1.5-3.3,3.3-3.3h0.3c1.8,0,3.3,1.5,3.3,3.3V440.4z"/>
				<path id="XMLID_143_" class="st8" d="M1755.3,439.5c0,9.2-7.5,16.7-16.7,16.7l0,0c-9.2,0-16.7-7.5-16.7-16.7v-13.3
					c0-9.2,7.5-16.7,16.7-16.7l0,0c9.2,0,16.7,7.5,16.7,16.7V439.5z"/>
				<path id="XMLID_142_" class="st12" d="M1761.3,411.2c-0.6-4.6-9.6-7.2-20-5.8c-9.9,1.3-17.6,5.8-17.8,10.2h0c-3.3,0-6,2.7-6,6
					V437h4.2v-10.2c0-2.3,1.9-4.2,4.2-4.2h0.3c2.4,1.9,7.5,3,13.4,2.8c4.6-0.2,8.7-1.3,11.3-2.8h2c4.3,0,7.7-3.5,7.7-7.7l-0.6-0.1
					C1761,413.7,1761.5,412.4,1761.3,411.2z"/>
				<path id="XMLID_141_" class="st8" d="M1735.1,445.9c0.8,1.4,2.1,2.3,3.6,2.3c1.5,0,2.8-0.9,3.6-2.3"/>
				<line id="XMLID_140_" class="st10" x1="1732.1" y1="433.5" x2="1729.1" y2="433.5"/>
				<line id="XMLID_139_" class="st10" x1="1748.9" y1="433.5" x2="1745.9" y2="433.5"/>
				<g id="XMLID_136_">
					
						<rect id="XMLID_138_" x="1724.9" y="458.7" transform="matrix(0.7071 0.7071 -0.7071 0.7071 833.9022 -1088.9722)" class="st9" width="13.2" height="7"/>
					
						<rect id="XMLID_137_" x="1740.1" y="458.7" transform="matrix(-0.7071 0.7071 -0.7071 -0.7071 3308.7356 -446.0367)" class="st9" width="13.2" height="7"/>
				</g>
				<line id="XMLID_135_" class="st10" x1="1739.4" y1="472" x2="1741.7" y2="472"/>
				<path id="XMLID_134_" class="st8" d="M1721.8,434.2c-0.5-0.2-1-0.4-1.5-0.4h-0.3c-1.8,0-3.3,1.5-3.3,3.3v3.2
					c0,1.8,1.5,3.3,3.3,3.3h0.3c0.6,0,1.1-0.1,1.5-0.4V434.2z"/>
			</g>
			<use xlink:href="#XMLID_132_"  style="overflow:visible;fill:none;stroke:#292E33;stroke-width:1.6101;"/>
		</g>
	</g>
	<g id="XMLID_126_">
		<path id="XMLID_129_" class="st3" d="M1631.6,556.4c0,9-7.3,16.3-16.3,16.3c-9,0-16.3-7.3-16.3-16.3c0-9,7.3-16.3,16.3-16.3
			C1624.3,540.1,1631.6,547.4,1631.6,556.4z"/>
		<path id="XMLID_128_" class="st10" d="M1621,554.5c0,3.2-2.6,5.7-5.7,5.7c-3.2,0-5.7-2.6-5.7-5.7c0-3.2,2.6-5.7,5.7-5.7
			C1618.4,548.8,1621,551.3,1621,554.5z"/>
		<path id="XMLID_127_" class="st10" d="M1619.6,560.9h-8.6c-3.2,0-5.7,2.6-5.7,5.7v0.5c2.6,2.5,6.1,4,10,4c3.9,0,7.4-1.5,10-4v-0.5
			C1625.3,563.5,1622.7,560.9,1619.6,560.9z"/>
	</g>
	<g id="XMLID_122_">
		<circle id="XMLID_125_" class="st3" cx="1184.5" cy="197.3" r="16.3"/>
		<path id="XMLID_124_" class="st10" d="M1190.2,195.4c0,3.2-2.6,5.7-5.7,5.7c-3.2,0-5.7-2.6-5.7-5.7c0-3.2,2.6-5.7,5.7-5.7
			C1187.7,189.6,1190.2,192.2,1190.2,195.4z"/>
		<path id="XMLID_123_" class="st10" d="M1188.8,201.7h-8.6c-3.2,0-5.7,2.6-5.7,5.7v0.5c2.6,2.5,6.2,4,10,4c3.9,0,7.4-1.5,10-4v-0.5
			C1194.5,204.3,1192,201.7,1188.8,201.7z"/>
	</g>
	<g id="XMLID_118_">
		<circle id="XMLID_121_" class="st3" cx="1854.1" cy="387.9" r="16.3"/>
		<circle id="XMLID_120_" class="st10" cx="1854.1" cy="386" r="5.7"/>
		<path id="XMLID_119_" class="st10" d="M1858.4,392.4h-8.6c-3.2,0-5.7,2.6-5.7,5.7v0.5c2.6,2.5,6.1,4,10,4c3.9,0,7.4-1.5,10-4v-0.5
			C1864.2,395,1861.6,392.4,1858.4,392.4z"/>
	</g>
	<g id="XMLID_114_">
		<circle id="XMLID_117_" class="st3" cx="918.6" cy="451.7" r="16.3"/>
		<path id="XMLID_116_" class="st10" d="M924.3,449.7c0,3.2-2.6,5.7-5.7,5.7c-3.2,0-5.7-2.6-5.7-5.7c0-3.2,2.6-5.7,5.7-5.7
			C921.8,444,924.3,446.6,924.3,449.7z"/>
		<path id="XMLID_115_" class="st10" d="M922.9,456.1h-8.6c-3.2,0-5.7,2.6-5.7,5.7v0.5c2.6,2.5,6.1,4,10,4c3.9,0,7.4-1.5,10-4v-0.5
			C928.6,458.7,926.1,456.1,922.9,456.1z"/>
	</g>
	<g id="XMLID_110_">
		<circle id="XMLID_113_" class="st16" cx="1762.5" cy="562.8" r="16.3"/>
		<path id="XMLID_112_" class="st10" d="M1768.2,560.9c0,3.2-2.6,5.7-5.7,5.7c-3.2,0-5.7-2.6-5.7-5.7c0-3.2,2.6-5.7,5.7-5.7
			C1765.7,555.1,1768.2,557.7,1768.2,560.9z"/>
		<path id="XMLID_111_" class="st10" d="M1766.8,567.2h-8.6c-3.2,0-5.7,2.6-5.7,5.7v0.5c2.6,2.5,6.1,4,10,4c3.9,0,7.4-1.5,10-4V573
			C1772.5,569.8,1769.9,567.2,1766.8,567.2z"/>
	</g>
	<g id="XMLID_106_">
		<path id="XMLID_109_" class="st16" d="M1136.8,495.5c0,9-7.3,16.3-16.3,16.3c-9,0-16.3-7.3-16.3-16.3c0-9,7.3-16.3,16.3-16.3
			C1129.5,479.2,1136.8,486.5,1136.8,495.5z"/>
		<path id="XMLID_108_" class="st10" d="M1126.3,493.6c0,3.2-2.6,5.7-5.7,5.7c-3.2,0-5.7-2.6-5.7-5.7c0-3.2,2.6-5.7,5.7-5.7
			C1123.7,487.9,1126.3,490.4,1126.3,493.6z"/>
		<path id="XMLID_107_" class="st10" d="M1124.8,500h-8.6c-3.2,0-5.7,2.6-5.7,5.7v0.5c2.6,2.5,6.1,4,10,4c3.9,0,7.4-1.5,10-4v-0.5
			C1130.6,502.5,1128,500,1124.8,500z"/>
	</g>
	<g id="XMLID_102_">
		<path id="XMLID_105_" class="st16" d="M979.8,302.2c0,9-7.3,16.3-16.3,16.3c-9,0-16.3-7.3-16.3-16.3c0-9,7.3-16.3,16.3-16.3
			C972.5,285.9,979.8,293.2,979.8,302.2z"/>
		<circle id="XMLID_104_" class="st10" cx="963.5" cy="300.3" r="5.7"/>
		<path id="XMLID_103_" class="st10" d="M967.8,306.7h-8.6c-3.2,0-5.7,2.6-5.7,5.7v0.5c2.6,2.5,6.1,4,10,4c3.9,0,7.4-1.5,10-4v-0.5
			C973.5,309.3,971,306.7,967.8,306.7z"/>
	</g>
	<g id="XMLID_98_">
		<path id="XMLID_101_" class="st16" d="M1671.7,302.3c0,9-7.3,16.3-16.3,16.3c-9,0-16.3-7.3-16.3-16.3c0-9,7.3-16.3,16.3-16.3
			C1664.4,286,1671.7,293.3,1671.7,302.3z"/>
		<path id="XMLID_100_" class="st10" d="M1661.1,300.4c0,3.2-2.6,5.7-5.7,5.7c-3.2,0-5.7-2.6-5.7-5.7c0-3.2,2.6-5.7,5.7-5.7
			C1658.5,294.7,1661.1,297.2,1661.1,300.4z"/>
		<path id="XMLID_99_" class="st10" d="M1659.7,306.8h-8.6c-3.2,0-5.7,2.6-5.7,5.7v0.5c2.6,2.5,6.1,4,10,4c3.9,0,7.4-1.5,10-4v-0.5
			C1665.4,309.3,1662.8,306.8,1659.7,306.8z"/>
	</g>
	<g id="XMLID_76_">
		<g id="XMLID_80_">
			<defs>
				<path id="XMLID_81_" d="M859.6,383.4c-24,0-43.4-19.5-43.4-43.4c0-24,19.5-43.4,43.4-43.4c24,0,43.4,19.5,43.4,43.4
					C903.1,363.9,883.6,383.4,859.6,383.4z"/>
			</defs>
			<clipPath id="XMLID_309_">
				<use xlink:href="#XMLID_81_"  style="overflow:visible;"/>
			</clipPath>
			<g id="XMLID_82_" class="st17">
				<path id="XMLID_97_" class="st9" d="M830.6,381.9v-4.1c0-4.4,4-8,9-8h39.5c5,0,9,3.6,9,8v4.1"/>
				<path id="XMLID_96_" class="st8" d="M841,381.9v-2.8c0-3,2.6-5.3,5.7-5.3h25.2c3.2,0,5.7,2.4,5.7,5.3v2.8"/>
				<path id="XMLID_95_" class="st9" d="M859.3,379.3c6.8,0,11.6-3.1,11.6-7.6v-1.9h-23.1v1.9C847.7,376.2,852.5,379.3,859.3,379.3z
					"/>
				<path id="XMLID_94_" class="st8" d="M859.3,374.9c-3.9,0-7.1-1.4-7.1-3.2v-16.9c0-1.7,3.2-3.2,7.1-3.2l0,0
					c3.9,0,7.1,1.4,7.1,3.2v16.9C866.4,373.4,863.2,374.9,859.3,374.9L859.3,374.9z"/>
				<path id="XMLID_93_" class="st8" d="M876.8,348.3c0,4.9-5.5,16.3-10.4,16.3h-14.1c-4.9,0-10.4-11.4-10.4-16.3v-18.9
					c0-4.9,4-8.9,8.9-8.9h17.1c4.9,0,8.9,4,8.9,8.9V348.3z"/>
				<path id="XMLID_92_" class="st10" d="M854.1,335.6c1.8,0,3.3,1.5,3.3,3.3v10"/>
				<path id="XMLID_91_" class="st10" d="M854.2,353.4c0,0.2,0,0.3,0,0.5c0,2.3,1.9,4.2,4.2,4.2h0.6c2.3,0,4.2-1.9,4.2-4.2
					c0-0.2,0-0.3,0-0.5H854.2z"/>
				<path id="XMLID_90_" class="st8" d="M841.8,334.3h-1.2c-1.6,0-3,1.3-3,3v6.9c0,1.6,1.3,3,3,3h1.2V334.3z"/>
				<path id="XMLID_89_" class="st8" d="M877,347.2h1.2c1.6,0,3-1.3,3-3v-6.9c0-1.6-1.3-3-3-3H877V347.2z"/>
				<path id="XMLID_87_" class="st9" d="M872.8,316.3h-1.2c2.3-1,3.7-2.3,3.7-3.8c0-3.2-8.3-4.5-16.5-3.5
					c-9.8,1.1-15.3,7.8-15.3,7.8c-2.6,0-6.1,2.1-6.1,4.6c0,0.2,0,0.4,0,0.5l0,0v13.7h4.5v-6.3c0-3,1.5-5.6,3.7-7.2l1.8-0.4
					c2.4,2.8,6.7,4.9,11.8,5.5c4.1,0.5,7.9-0.1,10.8-1.5c-2-1.5-3.7-3.4-4.9-5.4l8,1.9c2.2,1.6,3.7,4.2,3.7,7.2v6.3h4.5V319
					L872.8,316.3z"/>
				<path id="XMLID_86_" class="st8" d="M876.5,342.8c0,1.2-1,2.2-2.2,2.2h-10.4c-1.2,0-2.2-1-2.2-2.2v-4.1c0-1.2,1-2.2,2.2-2.2
					h10.4c1.2,0,2.2,1,2.2,2.2V342.8z"/>
				<path id="XMLID_85_" class="st8" d="M857.1,342.8c0,1.2-1,2.2-2.2,2.2h-10.4c-1.2,0-2.2-1-2.2-2.2v-4.1c0-1.2,1-2.2,2.2-2.2
					h10.4c1.2,0,2.2,1,2.2,2.2V342.8z"/>
				<line id="XMLID_84_" class="st10" x1="852.4" y1="340.4" x2="848.8" y2="340.4"/>
				<line id="XMLID_83_" class="st10" x1="867.7" y1="340.4" x2="864.1" y2="340.4"/>
			</g>
		</g>
		<g id="XMLID_77_">
			<g id="XMLID_78_">
				<path id="XMLID_79_" class="st10" d="M859.6,383.4c-24,0-43.4-19.5-43.4-43.4c0-24,19.5-43.4,43.4-43.4
					c24,0,43.4,19.5,43.4,43.4C903.1,363.9,883.6,383.4,859.6,383.4z"/>
			</g>
		</g>
	</g>
	<g id="XMLID_62_">
		<g id="XMLID_63_">
			<defs>
				<path id="XMLID_64_" d="M1051.8,590.4c0,23.8-19.3,43.1-43.1,43.1c-23.8,0-43.1-19.3-43.1-43.1c0-23.8,19.3-43.1,43.1-43.1
					C1032.5,547.3,1051.8,566.6,1051.8,590.4z"/>
			</defs>
			<clipPath id="XMLID_310_">
				<use xlink:href="#XMLID_64_"  style="overflow:visible;"/>
			</clipPath>
			<g id="XMLID_65_" class="st18">
				<path id="XMLID_75_" class="st19" d="M987.1,636.5v-11.8c0-3.3,2.6-5.9,5.9-5.9h32.4c3.3,0,5.9,2.6,5.9,5.9v11.8"/>
				<path id="XMLID_74_" class="st20" d="M1009.3,627.4c-3.9,0-7-3.2-7-7v-37.7c0-3.9,3.2-7,7-7l0,0c3.9,0,7,3.2,7,7v37.7
					C1016.3,624.2,1013.2,627.4,1009.3,627.4L1009.3,627.4z"/>
				<path id="XMLID_73_" class="st21" d="M1031.2,615.6v-37.5c0-12.5-10.2-22.7-22.7-22.7c-12.5,0-22.7,10.2-22.7,22.7v37.5h0.8
					c10.1,0,18.4-8.2,18.4-18.3h7.5c0.1,10.1,8.3,18.3,18.4,18.3H1031.2z"/>
				<path id="XMLID_72_" class="st20" d="M1030.1,592.2c0,1.9-1.5,3.5-3.5,3.5h-0.3c-1.9,0-3.5-1.5-3.5-3.5v-6.3
					c0-1.9,1.5-3.5,3.5-3.5h0.3c1.9,0,3.5,1.5,3.5,3.5V592.2z"/>
				<path id="XMLID_71_" class="st20" d="M1026,579v13.1c0,9.7-7.8,17.5-17.5,17.5l0,0c-9.7,0-17.5-7.8-17.5-17.5V579"/>
				<path id="XMLID_70_" class="st20" d="M991,582.5c-1.7,0.2-4.6,1.6-4.6,3.4v6.3c0,1.8,2.8,3.2,4.6,3.4V582.5z"/>
				<line id="XMLID_69_" class="st22" x1="1001.3" y1="590.2" x2="998.1" y2="590.2"/>
				<line id="XMLID_68_" class="st22" x1="1018.9" y1="590.2" x2="1015.7" y2="590.2"/>
				<path id="XMLID_67_" class="st20" d="M1007.6,602.6h2.2c1.7,0,3.1-1.4,3.1-3.1v-0.3"/>
				<path id="XMLID_66_" class="st21" d="M996.5,565.3c-3.4,3.2-5.5,7.7-5.5,12.8v2.4h13.1c1.9,0,3.5-1,4.4-2.5
					c0.9,1.5,2.5,2.5,4.4,2.5h13.1"/>
			</g>
			<use xlink:href="#XMLID_64_"  style="overflow:visible;fill:none;stroke:#292E33;stroke-width:1.6431;"/>
		</g>
	</g>
	<line id="XMLID_61_" class="st1" x1="1503.5" y1="246" x2="1393.3" y2="334.5"/>
	<ellipse id="XMLID_60_" class="st8" cx="1560.3" cy="212.6" rx="5.2" ry="4.5"/>
	<path id="XMLID_59_" class="st23" d="M1546.7,202.5c-11.7,1.1-22.3,5.4-30.1,11.9c0,0.9-0.1,1.7-0.1,2.6
		c0,21.5,14.5,38.9,32.4,38.9c15.7,0,28.7-13.3,31.7-31.1c-1.5,0.2-3,0.4-4.5,0.4C1563.1,225.2,1551.8,215.9,1546.7,202.5z"/>
	<path id="XMLID_58_" class="st10" d="M1578.8,233.4c-1.5,0.2-3,0.4-4.5,0.4c-3.5,0-7-0.7-10.2-2"/>
	<path id="XMLID_57_" class="st9" d="M1517.7,258.9v-13.7c0-3.2,2.6-5.8,5.8-5.8h30c3.2,0,5.8,2.6,5.8,5.8v18.8"/>
	<path id="XMLID_56_" class="st24" d="M1531.4,241.6v-35.4c0-3.6,3-6.6,6.6-6.6l0,0c3.6,0,6.6,3,6.6,6.6v47
		C1544.6,252.9,1531.3,241.7,1531.4,241.6z"/>
	<path id="XMLID_55_" class="st8" d="M1538.8,189.1c-9.6,0-17.8,6.1-20.9,14.6c-2.4-1-5-0.3-6.1,1.7c-1.2,2.2-0.1,5,2.4,6.5
		c0.8,0.4,1.6,0.7,2.4,0.7c0.6,11.7,10.3,21,22.2,21c12.3,0,22.2-9.9,22.2-22.2C1561,199.1,1551,189.1,1538.8,189.1z"/>
	<path id="XMLID_54_" class="st23" d="M1518,203.4c2.5,2.1,5.4,2.3,7.2,2.3c9.5,0,15.5-7.6,18.7-15.9c-1.7-0.4-3.4-0.6-5.2-0.6
		C1529.3,189.1,1521.2,195,1518,203.4z"/>
	<path id="XMLID_53_" class="st23" d="M1560.5,207c-1.9-9.6-9.9-17-19.9-17.8C1542.5,198.8,1550.6,206.2,1560.5,207z"/>
	<path id="XMLID_52_" class="st10" d="M1531.7,212.4c-1.8,1.8-4.6,1.8-6.4,0"/>
	<path id="XMLID_51_" class="st10" d="M1550.1,212.4c-1.8,1.8-4.7,1.8-6.4,0"/>
	<line id="XMLID_50_" class="st10" x1="1538.3" y1="208.6" x2="1538.3" y2="218.2"/>
	<path id="XMLID_49_" class="st25" d="M1586.8,221.6c0,23.3-18.9,42.2-42.2,42.2c-23.3,0-42.2-18.9-42.2-42.2
		c0-23.3,18.9-42.2,42.2-42.2C1567.9,179.4,1586.8,198.3,1586.8,221.6z"/>
	<g id="XMLID_36_">
		<path id="XMLID_48_" class="st26" d="M1328.3,273c1.1,21.2,20.9,32.1,20.9,32.1l15.3-13.6l16,19.2l8-6.4l3.5,13.3
			c2.9-7.1,4.6-14.9,4.6-23.3c0-30.4-21.7-55-48.5-55c-3.3,0-6.4,0.4-9.5,1.1C1335,244.3,1327.4,255,1328.3,273z"/>
		<path id="XMLID_8_" class="st27" d="M1388.7,316.8c-3.6,0-6.6,2.9-6.6,6.5c0,3.6,2.9,6.6,6.6,6.6c3.6,0,6.6-3,6.6-6.6
			C1395.3,319.7,1392.3,316.8,1388.7,316.8z"/>
		<path id="XMLID_7_" class="st27" d="M1388.7,280c-3.6,0-6.6,2.9-6.6,6.5c0,3.6,2.9,6.6,6.6,6.6c3.6,0,6.6-3,6.6-6.6
			C1395.3,282.9,1392.3,280,1388.7,280z"/>
		<path id="XMLID_45_" class="st28" d="M1370.2,232.5c-2.6-0.3-5,0.8-6.7,2.5c-0.7-3.3-3.5-5.9-7-6.3c-3.9-0.4-7.5,2.1-8.5,5.8
			c-1.2-2.4-3.5-4.2-6.4-4.5c-4.4-0.5-8.4,2.8-8.8,7.2c0,0,0,0.1,0,0.1c-1-0.7-2.2-1.1-3.5-1.3c-4.4-0.5-8.4,2.8-8.8,7.2
			c-0.5,4.4,2.8,8.4,7.2,8.8c4.4,0.5,8.4-2.7,8.8-7.2c0,0,0-0.1,0-0.1c1,0.7,2.2,1.1,3.5,1.3c3.9,0.4,7.5-2.1,8.5-5.8
			c1.2,2.4,3.5,4.2,6.4,4.5c2.6,0.3,5-0.8,6.7-2.5c0.4,1.9,1.5,3.6,3,4.7c-0.4,0.9-0.7,1.8-0.7,2.9c0,3.6,2.9,6.6,6.6,6.6
			c3.6,0,6.6-3,6.6-6.6c0-1.6-0.6-3-1.5-4.1c1-1.2,1.7-2.7,1.8-4.3C1377.8,236.9,1374.6,232.9,1370.2,232.5z"/>
		<path id="XMLID_44_" class="st26" d="M1305.8,307.7c6,22.6,24.5,39.1,46.4,39.1c19.1,0,35.6-12.6,43.5-30.8l-78.6,2.9
			C1317.2,318.9,1311.5,314.6,1305.8,307.7z"/>
		<path id="XMLID_43_" class="st26" d="M1332.4,270.5c1.1,21.2,20.9,32.1,20.9,32.1l15.3-13.6l16,19.2l8-6.4l3.5,13.3
			c2.9-7.1,4.6-14.9,4.6-23.3c0-30.4-21.7-55-48.5-55c-3.3,0-6.4,0.4-9.5,1.1C1339.1,241.8,1331.5,252.6,1332.4,270.5z"/>
		<path id="XMLID_42_" class="st29" d="M1392.7,301.7l-8,6.4l-16-19.2l-15.3,13.6c0,0-19.8-10.8-20.9-32.1
			c-0.9-17.9,6.7-28.7,10.3-32.7c0,0,0,0,0,0c0,0-0.1,0-0.1,0c-0.5,0.1-1,0.3-1.5,0.4c-1,0.3-2,0.5-2.9,0.9
			c-0.6,0.2-1.2,0.5-1.8,0.7c-0.8,0.3-1.6,0.6-2.4,1c-0.6,0.3-1.2,0.6-1.8,0.9c-0.8,0.4-1.5,0.8-2.2,1.2c-0.6,0.3-1.2,0.7-1.8,1.1
			c-0.7,0.5-1.4,0.9-2.1,1.4c-0.6,0.4-1.1,0.8-1.6,1.2c-0.7,0.5-1.4,1.1-2,1.7c-0.5,0.4-1,0.9-1.5,1.3c-0.7,0.7-1.4,1.4-2.1,2.1
			c-0.4,0.4-0.8,0.8-1.2,1.2c-1,1.2-2,2.4-2.9,3.6c-0.2,0.3-0.4,0.6-0.6,0.9c-0.7,1-1.4,2-2,3.1c-0.3,0.5-0.6,1.1-0.9,1.6
			c-0.5,0.9-1,1.8-1.4,2.7c-0.3,0.6-0.6,1.2-0.8,1.8c-0.4,0.9-0.8,1.8-1.1,2.7c-0.3,0.6-0.5,1.3-0.7,2c-0.3,0.9-0.6,1.9-0.9,2.8
			c-0.2,0.7-0.4,1.3-0.6,2c-0.3,1-0.5,2-0.7,3c-0.1,0.7-0.3,1.3-0.4,2c-0.2,1.1-0.3,2.3-0.5,3.5c-0.1,0.6-0.2,1.1-0.2,1.7
			c-0.1,1.7-0.2,3.5-0.2,5.3c0,1.7,0.1,3.4,0.2,5c0,0.5,0.1,1,0.2,1.5c0.1,1.2,0.3,2.3,0.5,3.5c0.1,0.5,0.2,1,0.3,1.5
			c0.3,1.5,0.6,2.9,1,4.3c0,0,0,0,0,0c5.7,7,11.3,11.2,11.3,11.2l78.6-2.9l0.1,0c0.1-0.3,0.3-0.6,0.4-0.9l0-0.1L1392.7,301.7z"/>
		<path id="XMLID_6_" class="st30" d="M1405.4,269l-10.5-3.5c0,0-2.7,2.3-1.2,5.9c1.6,3.6,5.7,3.3,5.7,3.3L1405.4,269z"/>
		<circle id="XMLID_5_" class="st31" cx="1379.8" cy="270.5" r="3.6"/>
		<circle id="XMLID_4_" class="st0" cx="1378" cy="268.9" r="2"/>
		<path id="XMLID_2_" class="st32" d="M1319.2,310.5l16.5-19.7l16.5,19.7l16.5-19.7l16.5,19.7l15.8-18.7c1.3,4.9,2.1,10.1,2.1,15.5
			c0,30.4-22.7,55-50.7,55c-28,0-50.7-24.6-50.7-55c0-5.3,0.7-10.5,2-15.3L1319.2,310.5z"/>
		<path id="XMLID_1_" class="st33" d="M1319.2,310.5l7.3-8.7c-0.3,7.4,1.3,18.3,9.9,29.9c11.2,14.9,32.9,13.5,46.8,7.1
			c11.2-5.1,18-17.9,18.4-18.7c-5.3,24.2-25.4,42.3-49.4,42.3c-28,0-50.7-24.6-50.7-55c0-5.3,0.7-10.5,2-15.3L1319.2,310.5z"/>
	</g>
</g>
<g id="Layer_3">
	<g id="XMLID_23_">
		<path id="XMLID_289_" class="st34" d="M1055.4,691.9l-17.9-7.9v-2.6l17.9-8.9v4.3l-12.3,5.7l12.3,5.1V691.9z"/>
		<path id="XMLID_293_" class="st34" d="M1072,669.2l-9.8,26.4h-5l9.8-26.4H1072z"/>
		<path id="XMLID_296_" class="st34" d="M1073.8,687.6l12.3-5.1l-12.3-5.7v-4.3l17.9,8.9v2.6l-17.9,7.9V687.6z"/>
	</g>
	<g id="XMLID_24_">
		<path id="XMLID_38_" class="st34" d="M1525.8,149.3l-22.8-10v-2.3l22.8-11.4v3.5l-18.6,8.8l18.6,7.8V149.3z"/>
		<path id="XMLID_47_" class="st34" d="M1545.7,120.3l-12.9,34.7h-3.9l12.9-34.7H1545.7z"/>
		<path id="XMLID_287_" class="st34" d="M1548.6,145.7l18.6-7.7l-18.6-8.9v-3.5l22.8,11.4v2.3l-22.8,10V145.7z"/>
	</g>
	<g id="XMLID_29_">
		<path id="XMLID_28_" class="st35" d="M619.3,93.3h56.4c0.3-6.8,5.9-12.3,12.9-12.3c3.7,0,6.9,1.5,9.3,4c3-5.5,8.8-9.3,15.5-9.3
			c0.8,0,1.7,0.1,2.5,0.2c2-14.9,14.8-26.4,30.3-26.4c2.3,0,4.5,0.3,6.6,0.7c4.6-8.5,13.6-14.2,23.9-14.2c11.9,0,22,7.6,25.7,18.3
			c2.7-1.1,5.6-1.7,8.6-1.7c12.4,0,22.4,10,22.4,22.4c0,1.3-0.1,2.6-0.3,3.8c0.5,0,1-0.1,1.5-0.1c8.9,0,16.4,6.2,18.2,14.6h68.5"/>
		<line id="XMLID_27_" class="st36" x1="865.5" y1="106.5" x2="786.1" y2="106.5"/>
		<line id="XMLID_26_" class="st36" x1="808.9" y1="116.8" x2="797.7" y2="116.8"/>
		<line id="XMLID_25_" class="st36" x1="736.9" y1="116.8" x2="655.3" y2="116.8"/>
	</g>
	<line id="XMLID_295_" class="st36" x1="1609.5" y1="678.7" x2="1548.6" y2="678.7"/>
	<line id="XMLID_292_" class="st36" x1="1609.6" y1="695.6" x2="1626.5" y2="695.6"/>
	<line id="XMLID_291_" class="st36" x1="1689.6" y1="665.9" x2="1706.5" y2="665.9"/>
	<g id="XMLID_30_">
		<line id="XMLID_35_" class="st36" x1="1627.8" y1="657" x2="1635.3" y2="651.6"/>
		<line id="XMLID_34_" class="st36" x1="1627.8" y1="657" x2="1635.3" y2="662.4"/>
		<line id="XMLID_33_" class="st36" x1="1659.9" y1="657" x2="1652.4" y2="651.6"/>
		<line id="XMLID_32_" class="st36" x1="1659.9" y1="657" x2="1652.4" y2="662.4"/>
		<line id="XMLID_31_" class="st36" x1="1648.8" y1="647" x2="1639.9" y2="665.4"/>
	</g>
	<g id="XMLID_299_">
		<path id="XMLID_302_" class="st37" d="M1690.1,88.1h31.6c2.6-2.3,5.9-3.6,9.4-3.6c0,0,0.2,0,0.3,0l3.1,0.1l-0.5-3
			c-0.2-1.4-0.3-2.8-0.3-4.2c0-14.7,11.9-26.6,26.6-26.6c10.2,0,19.7,6,24.1,15.2l1.2,2.5l2.4-1.3c3.2-1.7,6.7-2.7,10.3-2.7
			c10.6,0,19.7,7.9,21.2,18.4l0.5,3.3l3.1-1.3c1.7-0.7,3.5-1,5.3-1c3.8,0,7.4,1.6,9.9,4.2h50.1"/>
		<line id="XMLID_301_" class="st36" x1="1735" y1="99.4" x2="1656.8" y2="99.4"/>
		<line id="XMLID_300_" class="st36" x1="1792.3" y1="112.1" x2="1708.8" y2="112.1"/>
	</g>
	<path id="XMLID_41_" class="st38" d="M603.7,541.8H626c1.8-1.6,4.1-2.5,6.6-2.5c0,0,0.1,0,0.2,0l2.2,0l-0.3-2.1
		c-0.2-1-0.2-2-0.2-2.9c0-10.3,8.4-18.7,18.7-18.7c7.2,0,13.8,4.2,16.9,10.7l0.8,1.7l1.7-0.9c2.2-1.2,4.7-1.9,7.3-1.9
		c7.5,0,13.9,5.6,14.9,12.9l0.3,2.3l2.1-0.9c1.2-0.5,2.4-0.7,3.7-0.7c2.7,0,5.2,1.1,7,3H743"/>
	<line id="XMLID_40_" class="st36" x1="635.3" y1="549.8" x2="580.3" y2="549.8"/>
	<line id="XMLID_39_" class="st36" x1="675.5" y1="558.7" x2="616.9" y2="558.7"/>
	<g id="XMLID_305_">
		<path id="XMLID_304_" class="st39" d="M327.2,731.3h-42.7c-2.7-6-8-10.1-14.1-10.1c2.2-4.3,3.5-9.4,3.5-14.9
			c0-15.4-10.2-27.8-22.9-27.8c-7.7,0-14.6,4.7-18.7,11.8c-0.7-0.6-1.4-1.1-2.2-1.6c-13.5-8.9-30.4-2.8-37.7,13.6
			c-2.7,6.1-3.8,12.8-3.3,19.3h-0.1c-5.9,0-11,3.9-13.7,9.7h-50.2"/>
		<line id="XMLID_303_" class="st36" x1="294.7" y1="746.4" x2="349.1" y2="746.4"/>
		<line id="XMLID_9_" class="st36" x1="168.3" y1="746.4" x2="214.2" y2="746.4"/>
	</g>
</g>
</svg>
