<?xml version="1.0" encoding="utf-8"?>
<!-- Generator: Adobe Illustrator 19.0.0, SVG Export Plug-In . SVG Version: 6.00 Build 0)  -->
<svg version="1.1" id="Layer_1" xmlns="http://www.w3.org/2000/svg" xmlns:xlink="http://www.w3.org/1999/xlink" x="0px" y="0px"
	 viewBox="0 0 72 72" style="enable-background:new 0 0 72 72;" xml:space="preserve">
<style type="text/css">
	.st0{fill:#FDC70C;}
	.st1{fill:#F0526C;}
	.st2{fill:#DB1E38;}
	.st3{fill:#F8971D;}
	.st4{fill:#F48851;}
	.st5{fill:#5E2E11;}
	.st6{fill:#FFFFFF;}
	.st7{fill:#FFE3C5;}
	.st8{fill:#F4D4AE;}
</style>
<g id="XMLID_24_">
	<path id="XMLID_36_" class="st0" d="M23.3,24.2c0.6,11.2,11,16.8,11,16.8l8-7.1l8.4,10.1l4.2-3.3l1.8,7c1.5-3.7,2.4-7.8,2.4-12.2
		c0-16-11.4-28.9-25.5-28.9c-1.7,0-3.4,0.2-5,0.6C26.8,9.1,22.8,14.8,23.3,24.2z"/>
	<path id="XMLID_8_" class="st1" d="M55.1,47.2c-1.9,0-3.4,1.5-3.4,3.4c0,1.9,1.5,3.5,3.4,3.5c1.9,0,3.4-1.6,3.4-3.5
		C58.5,48.7,57,47.2,55.1,47.2z"/>
	<path id="XMLID_7_" class="st1" d="M55.1,27.9c-1.9,0-3.4,1.5-3.4,3.4c0,1.9,1.5,3.5,3.4,3.5c1.9,0,3.4-1.6,3.4-3.5
		C58.5,29.4,57,27.9,55.1,27.9z"/>
	<path id="XMLID_33_" class="st2" d="M45.3,2.9c-1.4-0.1-2.6,0.4-3.5,1.3c-0.4-1.7-1.8-3.1-3.7-3.3c-2.1-0.2-3.9,1.1-4.5,3
		c-0.6-1.3-1.8-2.2-3.3-2.3C28,1.4,25.9,3,25.7,5.4c0,0,0,0,0,0.1c-0.5-0.3-1.2-0.6-1.8-0.7c-2.3-0.2-4.4,1.4-4.6,3.8
		c-0.2,2.3,1.4,4.4,3.8,4.6c2.3,0.2,4.4-1.4,4.6-3.8c0,0,0,0,0,0c0.5,0.3,1.2,0.6,1.8,0.7c2.1,0.2,3.9-1.1,4.5-3
		c0.6,1.3,1.8,2.2,3.3,2.3c1.4,0.1,2.6-0.4,3.5-1.3c0.2,1,0.8,1.9,1.6,2.5c-0.2,0.5-0.4,1-0.4,1.5c0,1.9,1.5,3.5,3.4,3.5
		c1.9,0,3.4-1.6,3.4-3.5c0-0.8-0.3-1.6-0.8-2.2c0.5-0.6,0.9-1.4,1-2.3C49.3,5.2,47.7,3.1,45.3,2.9z"/>
	<path id="XMLID_32_" class="st0" d="M11.5,42.4c3.2,11.9,12.9,20.5,24.4,20.5c10,0,18.7-6.6,22.8-16.2l-41.3,1.5
		C17.5,48.3,14.5,46.1,11.5,42.4z"/>
	<path id="XMLID_31_" class="st0" d="M25.5,22.9c0.6,11.2,11,16.8,11,16.8l8-7.1l8.4,10.1l4.2-3.3l1.8,7c1.5-3.7,2.4-7.8,2.4-12.2
		c0-16-11.4-28.9-25.5-28.9c-1.7,0-3.4,0.2-5,0.6C29,7.8,25,13.4,25.5,22.9z"/>
	<path id="XMLID_30_" class="st3" d="M57.1,39.3l-4.2,3.3l-8.4-10.1l-8,7.1c0,0-10.4-5.7-11-16.8C25,13.4,29,7.8,30.9,5.7
		c0,0,0,0,0,0c0,0,0,0,0,0c-0.3,0.1-0.5,0.1-0.8,0.2c-0.5,0.1-1,0.3-1.5,0.4c-0.3,0.1-0.6,0.2-0.9,0.4c-0.4,0.2-0.9,0.3-1.3,0.5
		c-0.3,0.1-0.6,0.3-1,0.5c-0.4,0.2-0.8,0.4-1.2,0.6c-0.3,0.2-0.6,0.4-0.9,0.6c-0.4,0.2-0.7,0.5-1.1,0.8c-0.3,0.2-0.6,0.4-0.9,0.6
		c-0.4,0.3-0.7,0.6-1.1,0.9c-0.3,0.2-0.5,0.5-0.8,0.7c-0.4,0.4-0.7,0.7-1.1,1.1c-0.2,0.2-0.4,0.4-0.6,0.7c-0.5,0.6-1,1.2-1.5,1.9
		c-0.1,0.2-0.2,0.3-0.3,0.5c-0.4,0.5-0.7,1.1-1.1,1.6c-0.2,0.3-0.3,0.6-0.5,0.8c-0.3,0.5-0.5,0.9-0.8,1.4c-0.2,0.3-0.3,0.6-0.4,1
		c-0.2,0.5-0.4,0.9-0.6,1.4c-0.1,0.3-0.3,0.7-0.4,1c-0.2,0.5-0.3,1-0.5,1.5c-0.1,0.3-0.2,0.7-0.3,1.1c-0.1,0.5-0.3,1.1-0.4,1.6
		c-0.1,0.3-0.1,0.7-0.2,1c-0.1,0.6-0.2,1.2-0.2,1.8c0,0.3-0.1,0.6-0.1,0.9c-0.1,0.9-0.1,1.8-0.1,2.8c0,0.9,0,1.8,0.1,2.6
		c0,0.3,0.1,0.5,0.1,0.8c0.1,0.6,0.1,1.2,0.2,1.8c0,0.3,0.1,0.5,0.1,0.8c0.1,0.8,0.3,1.5,0.5,2.3c0,0,0,0,0,0c3,3.7,6,5.9,6,5.9
		l41.3-1.5l0,0c0.1-0.2,0.1-0.3,0.2-0.5l0,0L57.1,39.3z"/>
	<path id="XMLID_6_" class="st4" d="M63.8,22.1l-5.5-1.8c0,0-1.4,1.2-0.6,3.1c0.8,1.9,3,1.7,3,1.7L63.8,22.1z"/>
	<circle id="XMLID_5_" class="st5" cx="50.4" cy="22.9" r="1.9"/>
	<circle id="XMLID_4_" class="st6" cx="49.4" cy="22" r="1"/>
	<path id="XMLID_2_" class="st7" d="M18.6,43.9l8.7-10.3l8.7,10.3l8.7-10.3l8.7,10.3l8.3-9.8c0.7,2.6,1.1,5.3,1.1,8.2
		c0,16-11.9,28.9-26.6,28.9c-14.7,0-26.6-12.9-26.6-28.9c0-2.8,0.4-5.5,1.1-8L18.6,43.9z"/>
	<path id="XMLID_1_" class="st8" d="M18.6,43.9l3.9-4.6c-0.2,3.9,0.7,9.6,5.2,15.7c5.9,7.8,17.3,7.1,24.6,3.7
		c5.9-2.7,9.5-9.4,9.7-9.8C59.1,61.6,48.6,71.1,36,71.1c-14.7,0-26.6-12.9-26.6-28.9c0-2.8,0.4-5.5,1.1-8L18.6,43.9z"/>
</g>
</svg>
