<?xml version="1.0" encoding="utf-8"?>
<!-- Generator: Adobe Illustrator 22.0.1, SVG Export Plug-In . SVG Version: 6.00 Build 0)  -->
<svg version="1.1" id="Layer_1" xmlns="http://www.w3.org/2000/svg" xmlns:xlink="http://www.w3.org/1999/xlink" x="0px" y="0px"
	 viewBox="0 0 288 62" enable-background="new 0 0 288 62" xml:space="preserve">
<path fill="#0ABBDF" d="M27.4,38c-0.2-0.4-0.4-0.8-0.8-1.2c-0.3-0.3-0.7-0.5-1.1-0.7c-0.4-0.2-0.9-0.2-1.4-0.2c-0.5,0-1,0.1-1.5,0.3
	c-0.5,0.2-0.9,0.5-1.3,0.9c-0.5,0.5-1.1,1-1.8,1.5c-0.7,0.5-1.5,0.7-2.3,0.7c-0.7,0-1.3-0.1-1.9-0.4c-0.6-0.3-1.1-0.6-1.6-1.1
	c-0.4-0.4-0.8-1-1.1-1.6c-0.3-0.6-0.4-1.2-0.4-1.9c0-0.7,0.1-1.3,0.4-1.9c0.3-0.6,0.6-1.1,1-1.6c0.4-0.5,1-0.8,1.6-1.1
	c0.6-0.3,1.2-0.4,1.9-0.4c0.8,0,1.5,0.2,2.1,0.6c0.6,0.4,1.2,0.8,1.7,1.4c0.3,0.4,0.7,0.7,1.2,0.9c0.4,0.2,0.9,0.4,1.4,0.5
	s1,0,1.5-0.1c0.5-0.2,0.9-0.4,1.3-0.8c0.3-0.3,0.6-0.7,0.8-1.2c0.2-0.4,0.3-0.9,0.3-1.4c0-0.5-0.1-0.9-0.3-1.3
	c-0.2-0.4-0.4-0.8-0.8-1.2c-1.1-1.3-2.5-2.4-4-3.2c-1.6-0.8-3.3-1.2-5.1-1.2c-1.7,0-3.2,0.3-4.7,1c-1.5,0.6-2.8,1.5-3.9,2.6
	c-1.1,1.1-2,2.4-2.6,3.8c-0.6,1.5-0.9,3-0.9,4.7c0,1.7,0.3,3.2,0.9,4.7c0.6,1.5,1.5,2.7,2.6,3.8c1.1,1.1,2.4,2,3.9,2.6
	c1.5,0.6,3,0.9,4.7,0.9c1.9,0,3.6-0.4,5.2-1.2c1.6-0.8,3-1.9,4.1-3.2c0.3-0.3,0.6-0.7,0.8-1.2c0.2-0.4,0.3-0.9,0.3-1.4
	S27.5,38.4,27.4,38z"/>
<path fill="#0ABBDF" d="M83.6,29.5c-0.6-1.5-1.5-2.7-2.6-3.8c-1.1-1.1-2.4-1.9-3.8-2.6c-1.5-0.6-3-1-4.7-1h-7.2
	c-0.8,0-1.4,0.1-1.7,0.3C63.2,22.7,63,23,63,23.4c0,0.4,0,0.8,0.1,1.2c0.1,0.5,0.2,0.9,0.2,1.4v16.6c0,1,0.3,1.9,1,2.6
	c0.7,0.7,1.5,1,2.6,1h5.6c1.7,0,3.2-0.3,4.7-0.9c1.5-0.6,2.8-1.5,3.8-2.6c1.1-1.1,2-2.4,2.6-3.8c0.6-1.5,1-3,1-4.7
	C84.5,32.6,84.2,31,83.6,29.5z M76.9,36.1c-0.3,0.6-0.6,1.1-1.1,1.5c-0.4,0.4-1,0.8-1.6,1.1c-0.6,0.3-1.2,0.4-1.9,0.4l-2,0.1v-9.9
	l2,0.1c0.7,0,1.3,0.2,1.9,0.4c0.6,0.3,1.1,0.6,1.6,1c0.4,0.4,0.8,0.9,1.1,1.5c0.3,0.6,0.4,1.2,0.4,1.9
	C77.3,34.9,77.2,35.5,76.9,36.1z"/>
<path fill="#0ABBDF" d="M94.5,24.4c-0.2-0.4-0.4-0.8-0.8-1.1c-0.3-0.3-0.7-0.6-1.1-0.8c-0.4-0.2-0.9-0.3-1.4-0.3h-1.7
	c-0.8,0-1.4,0.1-1.7,0.3c-0.3,0.2-0.5,0.5-0.5,0.9c0,0.4,0,0.8,0.1,1.2c0.1,0.5,0.2,0.9,0.2,1.4v16.6c0,1,0.3,1.9,1,2.6
	c0.7,0.7,1.5,1,2.6,1c1,0,1.9-0.3,2.6-1c0.7-0.7,1.1-1.5,1.1-2.6V25.8C94.8,25.3,94.7,24.8,94.5,24.4z"/>
<path fill="#0ABBDF" d="M119.4,24.4c-0.2-0.4-0.5-0.8-0.8-1.1c-0.3-0.3-0.7-0.6-1.2-0.8c-0.4-0.2-0.9-0.3-1.3-0.3h-1.7
	c-0.8,0-1.4,0.1-1.7,0.4c-0.3,0.2-0.5,0.6-0.5,0.9c0,0.4,0,0.8,0.1,1.3c0.1,0.5,0.2,0.9,0.2,1.4l0,6.5c-1.2-1.5-2.3-2.7-3.1-3.7
	s-1.5-1.8-2.1-2.5c-0.6-0.7-1-1.2-1.3-1.5c-0.3-0.4-0.5-0.6-0.7-0.8c-0.1-0.2-0.2-0.3-0.3-0.4c-0.4-0.5-0.9-0.8-1.3-1.1
	c-0.5-0.3-1-0.4-1.5-0.4h-1.7c-0.8,0-1.4,0.1-1.7,0.3c-0.3,0.2-0.5,0.5-0.5,0.9c0,0.4,0,0.8,0.1,1.2c0.1,0.5,0.2,0.9,0.2,1.4v16.6
	c0,1,0.3,1.9,1,2.6c0.7,0.7,1.5,1,2.6,1c1,0,1.8-0.3,2.5-1c0.7-0.7,1-1.5,1-2.6l0-6.9l7.8,9.3c0.3,0.4,0.7,0.7,1.2,0.9
	c0.4,0.2,0.9,0.3,1.3,0.3c0.5,0,0.9,0,1.4-0.2c0.4-0.2,0.9-0.4,1.2-0.8c0.4-0.4,0.7-0.9,0.9-1.4c0.2-0.5,0.2-1.1,0.2-1.6V25.8
	C119.7,25.3,119.6,24.8,119.4,24.4z"/>
<path fill="#0ABBDF" d="M144.8,35.4c-0.4-0.4-0.9-0.6-1.5-0.6h-6.6c-0.6,0-1.1,0.1-1.5,0.4c-0.4,0.2-0.6,0.7-0.6,1.2
	c0,0.5,0.2,1.1,0.5,1.6c0.4,0.5,0.8,0.8,1.3,0.9c-0.2,0.1-0.5,0.1-0.7,0.2c-0.2,0.1-0.5,0.1-0.7,0.1c-0.7,0-1.3-0.1-1.9-0.4
	c-0.6-0.3-1.1-0.6-1.6-1.1c-0.4-0.4-0.8-1-1.1-1.6c-0.3-0.6-0.4-1.2-0.4-1.9c0-0.7,0.1-1.3,0.4-1.9c0.3-0.6,0.6-1.1,1-1.6
	c0.4-0.5,1-0.8,1.6-1.1c0.6-0.3,1.2-0.4,1.9-0.4c0.8,0,1.5,0.2,2.1,0.6c0.6,0.4,1.2,0.8,1.7,1.4c0.2,0.2,0.3,0.3,0.4,0.4
	c0.3,0.4,0.7,0.6,1.2,0.8c0.4,0.2,0.9,0.2,1.3,0.2c0.4,0,0.9-0.1,1.3-0.2c0.4-0.2,0.8-0.4,1.2-0.8c0.3-0.3,0.6-0.7,0.8-1.2
	c0.2-0.4,0.3-0.9,0.3-1.4c0-0.5-0.1-0.9-0.3-1.3c-0.2-0.4-0.4-0.8-0.8-1.2c-1.1-1.3-2.5-2.4-4-3.2c-1.6-0.8-3.3-1.2-5.1-1.2
	c-1.7,0-3.2,0.3-4.7,1c-1.5,0.6-2.8,1.5-3.9,2.6c-1.1,1.1-2,2.4-2.6,3.8c-0.6,1.5-0.9,3-0.9,4.7c0,1.7,0.3,3.2,0.9,4.7
	c0.6,1.5,1.5,2.7,2.6,3.8c1.1,1.1,2.4,2,3.9,2.6c1.5,0.6,3,0.9,4.7,0.9c1.2,0,2.3-0.2,3.3-0.5c1.1-0.3,2-0.7,2.9-1.3
	c0.1,0.5,0.4,0.9,0.9,1.3c0.5,0.3,1,0.5,1.6,0.5c0.6,0,1-0.2,1.3-0.6c0.3-0.4,0.4-0.9,0.4-1.5v-7.3
	C145.3,36.3,145.1,35.8,144.8,35.4z"/>
<path fill="#EE3427" d="M170.7,38c-0.2-0.4-0.4-0.8-0.8-1.2c-0.3-0.3-0.7-0.5-1.1-0.7c-0.4-0.2-0.9-0.2-1.4-0.2
	c-0.5,0-1,0.1-1.5,0.3c-0.5,0.2-0.9,0.5-1.3,0.9c-0.5,0.5-1.1,1-1.8,1.5c-0.7,0.5-1.5,0.7-2.3,0.7c-0.7,0-1.3-0.1-1.9-0.4
	c-0.6-0.3-1.1-0.6-1.6-1.1c-0.4-0.4-0.8-1-1.1-1.6c-0.3-0.6-0.4-1.2-0.4-1.9c0-0.7,0.1-1.3,0.4-1.9c0.3-0.6,0.6-1.1,1-1.6
	c0.4-0.5,1-0.8,1.6-1.1c0.6-0.3,1.2-0.4,1.9-0.4c0.8,0,1.5,0.2,2.1,0.6c0.6,0.4,1.2,0.8,1.7,1.4c0.3,0.4,0.7,0.7,1.2,0.9
	c0.4,0.2,0.9,0.4,1.4,0.5c0.5,0.1,1,0,1.5-0.1c0.5-0.2,0.9-0.4,1.3-0.8c0.3-0.3,0.6-0.7,0.8-1.2c0.2-0.4,0.3-0.9,0.3-1.4
	c0-0.5-0.1-0.9-0.3-1.3c-0.2-0.4-0.4-0.8-0.8-1.2c-1.1-1.3-2.5-2.4-4-3.2c-1.6-0.8-3.3-1.2-5.1-1.2c-1.7,0-3.2,0.3-4.7,1
	c-1.5,0.6-2.8,1.5-3.9,2.6c-1.1,1.1-2,2.4-2.6,3.8c-0.6,1.5-0.9,3-0.9,4.7c0,1.7,0.3,3.2,0.9,4.7c0.6,1.5,1.5,2.7,2.6,3.8
	c1.1,1.1,2.4,2,3.9,2.6c1.5,0.6,3,0.9,4.7,0.9c1.9,0,3.6-0.4,5.2-1.2c1.6-0.8,3-1.9,4.1-3.2c0.3-0.3,0.6-0.7,0.8-1.2
	c0.2-0.4,0.3-0.9,0.3-1.4S170.9,38.4,170.7,38z"/>
<path fill="#EE3427" d="M196.6,29.5c-0.6-1.5-1.5-2.7-2.6-3.8c-1.1-1.1-2.4-1.9-3.8-2.6c-1.5-0.6-3-1-4.7-1c-1.7,0-3.2,0.3-4.7,1
	c-1.5,0.6-2.8,1.5-3.9,2.6c-1.1,1.1-2,2.4-2.6,3.8c-0.6,1.5-0.9,3-0.9,4.7c0,1.7,0.3,3.2,0.9,4.7c0.6,1.5,1.5,2.7,2.6,3.8
	c1.1,1.1,2.4,2,3.9,2.6c1.5,0.6,3,0.9,4.7,0.9c1.7,0,3.2-0.3,4.7-0.9c1.5-0.6,2.8-1.5,3.8-2.6c1.1-1.1,2-2.4,2.6-3.8
	c0.6-1.5,1-3,1-4.7C197.5,32.6,197.2,31,196.6,29.5z M189.9,36.1c-0.3,0.6-0.6,1.1-1.1,1.6c-0.4,0.5-1,0.8-1.6,1.1
	c-0.6,0.3-1.2,0.4-1.9,0.4c-0.7,0-1.3-0.1-1.9-0.4c-0.6-0.3-1.1-0.6-1.6-1.1c-0.4-0.5-0.8-1-1-1.6c-0.3-0.6-0.4-1.2-0.4-1.9
	c0-0.6,0.1-1.3,0.4-1.9c0.3-0.6,0.6-1.1,1-1.6c0.4-0.5,1-0.8,1.6-1.1c0.6-0.3,1.2-0.4,1.9-0.4c0.7,0,1.3,0.1,1.9,0.4
	c0.6,0.3,1.1,0.6,1.6,1.1c0.4,0.4,0.8,1,1.1,1.6c0.3,0.6,0.4,1.2,0.4,1.9C190.3,34.9,190.2,35.5,189.9,36.1z"/>
<path fill="#EE3427" d="M259.5,27.8c-0.5-1.2-1.2-2.2-2.1-3.1c-0.9-0.9-1.9-1.6-3.1-2.1c-1.2-0.5-2.5-0.8-3.8-0.8h-7.3
	c-0.8,0-1.4,0.1-1.7,0.3c-0.3,0.2-0.5,0.5-0.5,0.9c0,0.4,0,0.8,0.1,1.2c0.1,0.5,0.2,0.9,0.2,1.4v16.9c0,1,0.3,1.9,1,2.6
	c0.7,0.7,1.5,1,2.6,1c1,0,1.9-0.3,2.6-1c0.7-0.7,1.1-1.5,1.1-2.6v-1.4h2c1.3,0,2.6-0.3,3.8-0.8c1.2-0.5,2.2-1.2,3.1-2.1
	s1.6-1.9,2.1-3.1c0.5-1.2,0.8-2.4,0.8-3.8C260.3,30.3,260,29,259.5,27.8z M252.3,33.5c-0.5,0.4-1.1,0.6-1.7,0.7l-2,0.1v-5.2l2,0.1
	c0.7,0,1.3,0.3,1.7,0.8c0.5,0.5,0.7,1.1,0.7,1.8S252.7,33.1,252.3,33.5z"/>
<path fill="#EE3427" d="M262.5,28.9c0.1-0.9,0.4-1.8,0.8-2.7c0.4-0.8,1-1.5,1.7-2.1c0.7-0.6,1.6-1.1,2.6-1.4c1-0.3,2.2-0.5,3.5-0.5
	c0.5,0,1.1,0.1,1.7,0.2c0.7,0.1,1.3,0.3,2,0.6c0.7,0.3,1.3,0.6,1.9,1c0.6,0.4,1.1,0.8,1.5,1.3c0.3,0.4,0.5,0.8,0.7,1.2
	c0.1,0.4,0.2,0.9,0.2,1.4c0,0.5-0.1,0.9-0.3,1.4c-0.2,0.4-0.4,0.8-0.8,1.2c-0.4,0.4-0.8,0.6-1.2,0.8c-0.5,0.2-0.9,0.3-1.4,0.3
	c-0.5,0-1-0.1-1.5-0.2c-0.5-0.2-0.9-0.4-1.3-0.7c-0.2-0.1-0.3-0.3-0.4-0.5c-0.1-0.2-0.2-0.4-0.3-0.6c-0.1-0.2-0.3-0.3-0.4-0.5
	c-0.2-0.1-0.4-0.2-0.7-0.2c-0.4,0-0.7,0.1-0.9,0.2c-0.2,0.1-0.3,0.3-0.3,0.4c0,0.2,0,0.3,0.2,0.5c0.1,0.2,0.3,0.3,0.5,0.5l4.3,2.4
	c1.1,0.5,2.1,1.1,2.8,1.8c0.7,0.6,1.3,1.3,1.6,1.9c0.4,0.7,0.6,1.3,0.7,2c0.1,0.7,0,1.3-0.1,1.9c-0.2,1.1-0.6,2-1.3,2.7
	c-0.6,0.8-1.3,1.4-2.1,1.8c-0.8,0.5-1.6,0.8-2.5,1.1c-0.9,0.2-1.6,0.3-2.3,0.3c-1.6,0-2.9-0.1-3.8-0.4c-0.9-0.3-1.7-0.7-2.2-1.1
	c-0.5-0.4-1-0.9-1.5-1.4c-0.4-0.5-0.7-1.1-0.9-1.7c-0.2-0.6-0.3-1.2-0.2-1.7c0.1-0.6,0.3-1.1,0.8-1.6c0.2-0.3,0.6-0.5,1-0.7
	c0.5-0.2,0.9-0.3,1.5-0.3c0.5,0,1.1,0.1,1.6,0.3c0.6,0.2,1.1,0.6,1.5,1.2c0.4,0.5,0.8,0.7,1.2,0.8c0.4,0.1,0.8,0.1,1,0
	c0.4-0.1,0.6-0.3,0.7-0.7c0-0.4-0.2-0.8-0.7-1c-0.5-0.3-1.2-0.7-2.3-1.3c-1-0.5-2.2-1.1-3.5-1.8c-0.3-0.1-0.6-0.3-1-0.6
	c-0.4-0.2-0.7-0.6-1-1c-0.3-0.4-0.5-1-0.7-1.7C262.4,30.8,262.4,30,262.5,28.9z"/>
<path id="XMLID_58_" fill="#F0526C" d="M231.5,38.6c-1.3,0-2.3,1-2.3,2.3c0,1.3,1,2.3,2.3,2.3c1.3,0,2.3-1,2.3-2.3
	C233.8,39.6,232.8,38.6,231.5,38.6z"/>
<path id="XMLID_57_" fill="#F0526C" d="M231.5,25.7c-1.3,0-2.3,1-2.3,2.3c0,1.3,1,2.3,2.3,2.3c1.3,0,2.3-1,2.3-2.3
	C233.8,26.8,232.8,25.7,231.5,25.7z"/>
<path fill="#DB1E38" d="M225,9.1c-0.9-0.1-1.8,0.3-2.3,0.9c-0.3-1.2-1.2-2.1-2.4-2.2c-1.4-0.1-2.6,0.7-3,2c-0.4-0.8-1.2-1.5-2.2-1.6
	c-1.5-0.2-2.9,1-3.1,2.5c0,0,0,0,0,0c-0.4-0.2-0.8-0.4-1.2-0.4c-1.5-0.2-2.9,1-3.1,2.5c-0.2,1.5,1,2.9,2.5,3.1
	c1.5,0.2,2.9-1,3.1-2.5c0,0,0,0,0,0c0.4,0.2,0.8,0.4,1.2,0.4c1.4,0.1,2.6-0.7,3-2c0.4,0.8,1.2,1.5,2.2,1.6c0.9,0.1,1.8-0.3,2.3-0.9
	c0.1,0.7,0.5,1.2,1.1,1.6c-0.1,0.3-0.2,0.6-0.2,1c0,1.3,1,2.3,2.3,2.3c1.3,0,2.3-1,2.3-2.3c0-0.5-0.2-1-0.5-1.4
	c0.4-0.4,0.6-0.9,0.6-1.5C227.7,10.7,226.6,9.3,225,9.1z"/>
<path fill="#FDC70C" d="M202.5,35.4c2.1,7.9,8.6,13.6,16.2,13.6c6.7,0,12.4-4.4,15.2-10.7l-27.4,1C206.5,39.3,204.5,37.8,202.5,35.4
	z"/>
<path fill="#FDC70C" d="M211.8,22.4c0.4,7.4,7.3,11.2,7.3,11.2l5.3-4.8l5.6,6.7l2.8-2.2l1.2,4.6c1-2.5,1.6-5.2,1.6-8.1
	c0-10.6-7.6-19.2-16.9-19.2c-1.1,0-2.3,0.1-3.3,0.4C214.2,12.4,211.5,16.2,211.8,22.4z"/>
<path fill="#F8971D" d="M232.9,33.3l-2.8,2.2l-5.6-6.7l-5.3,4.8c0,0-6.9-3.8-7.3-11.2c-0.3-6.3,2.3-10,3.6-11.4c0,0,0,0,0,0
	c0,0,0,0,0,0c-0.2,0-0.3,0.1-0.5,0.1c-0.3,0.1-0.7,0.2-1,0.3c-0.2,0.1-0.4,0.2-0.6,0.2c-0.3,0.1-0.6,0.2-0.9,0.4
	c-0.2,0.1-0.4,0.2-0.6,0.3c-0.3,0.1-0.5,0.3-0.8,0.4c-0.2,0.1-0.4,0.2-0.6,0.4c-0.2,0.2-0.5,0.3-0.7,0.5c-0.2,0.1-0.4,0.3-0.6,0.4
	c-0.2,0.2-0.5,0.4-0.7,0.6c-0.2,0.2-0.3,0.3-0.5,0.5c-0.2,0.2-0.5,0.5-0.7,0.7c-0.1,0.1-0.3,0.3-0.4,0.4c-0.4,0.4-0.7,0.8-1,1.3
	c-0.1,0.1-0.1,0.2-0.2,0.3c-0.2,0.3-0.5,0.7-0.7,1.1c-0.1,0.2-0.2,0.4-0.3,0.6c-0.2,0.3-0.3,0.6-0.5,0.9c-0.1,0.2-0.2,0.4-0.3,0.6
	c-0.1,0.3-0.3,0.6-0.4,0.9c-0.1,0.2-0.2,0.5-0.3,0.7c-0.1,0.3-0.2,0.7-0.3,1c-0.1,0.2-0.1,0.5-0.2,0.7c-0.1,0.4-0.2,0.7-0.2,1.1
	c0,0.2-0.1,0.5-0.1,0.7c-0.1,0.4-0.1,0.8-0.2,1.2c0,0.2-0.1,0.4-0.1,0.6c-0.1,0.6-0.1,1.2-0.1,1.9c0,0.6,0,1.2,0.1,1.7
	c0,0.2,0,0.4,0.1,0.5c0,0.4,0.1,0.8,0.2,1.2c0,0.2,0.1,0.4,0.1,0.5c0.1,0.5,0.2,1,0.3,1.5c0,0,0,0,0,0c2,2.4,4,3.9,4,3.9l27.4-1l0,0
	c0-0.1,0.1-0.2,0.1-0.3l0,0L232.9,33.3z"/>
<path id="XMLID_49_" fill="#F48851" d="M237.3,21.9l-3.7-1.2c0,0-1,0.8-0.4,2c0.5,1.3,2,1.2,2,1.2L237.3,21.9z"/>
<path id="XMLID_48_" fill="#5E2E11" d="M227.1,22.4c0,0.7,0.6,1.2,1.2,1.2c0.7,0,1.2-0.6,1.2-1.2c0-0.7-0.6-1.2-1.2-1.2
	C227.7,21.2,227.1,21.7,227.1,22.4z"/>
<path id="XMLID_47_" fill="#FFFFFF" d="M227.1,21.9c0,0.4,0.3,0.7,0.7,0.7c0.4,0,0.7-0.3,0.7-0.7c0-0.4-0.3-0.7-0.7-0.7
	C227.4,21.2,227.1,21.5,227.1,21.9z"/>
<path id="XMLID_46_" fill="#FFE3C5" d="M207.2,36.4l5.8-6.9l5.8,6.9l5.8-6.9l5.8,6.9l5.5-6.5c0.5,1.7,0.7,3.5,0.7,5.4
	c0,10.6-7.9,19.2-17.7,19.2c-9.8,0-17.7-8.6-17.7-19.2c0-1.9,0.2-3.6,0.7-5.3L207.2,36.4z"/>
<path id="XMLID_3_" fill="#F4D4AE" d="M207.2,36.4l2.6-3.1c-0.1,2.6,0.4,6.4,3.5,10.4c3.9,5.2,11.5,4.7,16.3,2.5
	c3.9-1.8,6.3-6.3,6.4-6.5c-1.9,8.5-8.9,14.8-17.2,14.8c-9.8,0-17.7-8.6-17.7-19.2c0-1.9,0.2-3.6,0.7-5.3L207.2,36.4z"/>
<path fill="#00BBDF" d="M42.4,45.6c-2.3-2.1-5.1-5.8-5.2-11.2c-0.1-5.6,2.6-9.4,4.8-11.5l0.9-0.9L36,22.1l-0.1,0.1
	c-2.7,2.3-5.9,6.2-5.8,12.2c0.1,6.3,4,10.2,6.3,12l0.1,0.1l6.9-0.1L42.4,45.6z"/>
<path fill="#00BBDF" d="M54.2,22.2L54,22.1L47.1,22l0.9,0.9c2.3,2.1,4.9,5.9,4.8,11.5c-0.1,5.4-2.9,9.1-5.2,11.2l-0.9,0.8l6.9,0.1
	l0.1-0.1c2.3-1.8,6.2-5.7,6.3-12C60,28.5,56.8,24.5,54.2,22.2z"/>
</svg>
