<?xml version="1.0" encoding="utf-8"?>
<!-- Generator: Adobe Illustrator 19.0.0, SVG Export Plug-In . SVG Version: 6.00 Build 0)  -->
<svg version="1.1" id="Layer_1" xmlns="http://www.w3.org/2000/svg" xmlns:xlink="http://www.w3.org/1999/xlink" x="0px" y="0px"
	 viewBox="0 0 288 62" style="enable-background:new 0 0 288 62;" xml:space="preserve">
<style type="text/css">
	.st0{fill:#0ABBDF;}
	.st1{fill:#EE3427;}
	.st2{fill:#F0526C;}
	.st3{fill:#DB1E38;}
	.st4{fill:#FDC70C;}
	.st5{fill:#F8971D;}
	.st6{fill:#F48851;}
	.st7{fill:#5E2E11;}
	.st8{fill:#FFFFFF;}
	.st9{fill:#FFE3C5;}
	.st10{fill:#F4D4AE;}
	.st11{fill:#00BBDF;}
</style>
<path class="st0" d="M26.6,36.8c0.3,0.4,0.6,0.8,0.8,1.2c0.2,0.4,0.3,0.9,0.3,1.3c0,0.5-0.1,0.9-0.3,1.4c-0.2,0.4-0.4,0.8-0.8,1.2
	c-1.1,1.4-2.5,2.4-4.1,3.2c-1.6,0.8-3.3,1.2-5.2,1.2c-1.7,0-3.2-0.3-4.7-0.9c-1.5-0.6-2.8-1.5-3.9-2.6c-1.1-1.1-2-2.4-2.6-3.8
	c-0.6-1.5-0.9-3-0.9-4.7c0-1.7,0.3-3.2,0.9-4.7c0.6-1.5,1.5-2.7,2.6-3.8c1.1-1.1,2.4-1.9,3.9-2.6c1.5-0.6,3-1,4.7-1
	c1.9,0,3.6,0.4,5.1,1.2c1.6,0.8,2.9,1.9,4,3.2c0.3,0.4,0.6,0.8,0.8,1.2c0.2,0.4,0.3,0.9,0.3,1.3c0,0.5-0.1,0.9-0.3,1.4
	c-0.2,0.4-0.4,0.8-0.8,1.2c-0.4,0.4-0.9,0.7-1.3,0.8c-0.5,0.2-1,0.2-1.5,0.1c-0.5-0.1-1-0.2-1.4-0.5c-0.4-0.2-0.8-0.6-1.2-0.9
	c-0.5-0.5-1-1-1.7-1.4c-0.6-0.4-1.3-0.6-2.1-0.6c-0.7,0-1.3,0.1-1.9,0.4c-0.6,0.3-1.1,0.6-1.6,1.1c-0.4,0.5-0.8,1-1,1.6
	c-0.3,0.6-0.4,1.2-0.4,1.9c0,0.7,0.1,1.3,0.4,1.9c0.3,0.6,0.6,1.1,1.1,1.6c0.4,0.4,1,0.8,1.6,1.1c0.6,0.3,1.2,0.4,1.9,0.4
	c0.8,0,1.6-0.2,2.3-0.7c0.7-0.5,1.3-1,1.8-1.5c0.4-0.4,0.8-0.7,1.3-0.9c0.5-0.2,1-0.3,1.5-0.3c0.5,0,0.9,0.1,1.4,0.2
	C25.9,36.3,26.3,36.5,26.6,36.8z"/>
<path class="st0" d="M66.9,46.3c-1,0-1.9-0.3-2.6-1c-0.7-0.7-1-1.5-1-2.6V26c0-0.5-0.1-0.9-0.2-1.4c-0.1-0.5-0.1-0.9-0.1-1.2
	c0-0.4,0.2-0.7,0.5-0.9c0.3-0.2,0.9-0.3,1.7-0.3h7.2c1.7,0,3.2,0.3,4.7,1c1.5,0.6,2.8,1.5,3.8,2.6c1.1,1.1,2,2.4,2.6,3.8
	c0.6,1.5,1,3,1,4.7c0,1.7-0.3,3.2-1,4.7c-0.6,1.5-1.5,2.7-2.6,3.8c-1.1,1.1-2.4,2-3.8,2.6c-1.5,0.6-3,0.9-4.7,0.9H66.9z M77.3,34.2
	c0-0.7-0.1-1.3-0.4-1.9c-0.3-0.6-0.6-1.1-1.1-1.5c-0.4-0.4-1-0.8-1.6-1c-0.6-0.3-1.2-0.4-1.9-0.4l-2-0.1v9.9l2-0.1
	c0.7,0,1.3-0.2,1.9-0.4c0.6-0.3,1.1-0.6,1.6-1.1c0.4-0.4,0.8-0.9,1.1-1.5C77.2,35.5,77.3,34.9,77.3,34.2z"/>
<path class="st0" d="M94.8,42.7c0,1-0.4,1.9-1.1,2.6c-0.7,0.7-1.6,1-2.6,1c-1,0-1.9-0.3-2.6-1c-0.7-0.7-1-1.5-1-2.6V26
	c0-0.5-0.1-0.9-0.2-1.4c-0.1-0.5-0.1-0.9-0.1-1.2c0-0.4,0.2-0.7,0.5-0.9c0.3-0.2,0.9-0.3,1.7-0.3h1.7c0.5,0,0.9,0.1,1.4,0.3
	c0.4,0.2,0.8,0.4,1.1,0.8c0.3,0.3,0.6,0.7,0.8,1.1c0.2,0.4,0.3,0.9,0.3,1.4V42.7z"/>
<path class="st0" d="M119.7,42.3c0,0.6-0.1,1.1-0.2,1.6c-0.2,0.5-0.4,1-0.9,1.4c-0.4,0.4-0.8,0.6-1.2,0.8c-0.4,0.2-0.9,0.2-1.4,0.2
	c-0.5,0-0.9-0.1-1.3-0.3c-0.4-0.2-0.8-0.5-1.2-0.9l-7.8-9.3l0,6.9c0,1-0.3,1.9-1,2.6c-0.7,0.7-1.5,1-2.5,1c-1,0-1.9-0.3-2.6-1
	c-0.7-0.7-1-1.5-1-2.6V26c0-0.5-0.1-0.9-0.2-1.4c-0.1-0.5-0.1-0.9-0.1-1.2c0-0.4,0.2-0.7,0.5-0.9c0.3-0.2,0.9-0.3,1.7-0.3h1.7
	c0.6,0,1.1,0.1,1.5,0.4c0.5,0.3,0.9,0.6,1.3,1.1c0.1,0.1,0.2,0.2,0.3,0.4c0.1,0.2,0.4,0.4,0.7,0.8c0.3,0.4,0.7,0.9,1.3,1.5
	c0.6,0.7,1.2,1.5,2.1,2.5c0.8,1,1.9,2.3,3.1,3.7l0-6.5c0-0.5-0.1-0.9-0.2-1.4c-0.1-0.5-0.2-0.9-0.1-1.3c0-0.4,0.2-0.7,0.5-0.9
	c0.3-0.2,0.9-0.4,1.7-0.4h1.7c0.5,0,0.9,0.1,1.3,0.3c0.4,0.2,0.8,0.5,1.2,0.8c0.3,0.3,0.6,0.7,0.8,1.1c0.2,0.4,0.3,0.9,0.3,1.4V42.3
	z"/>
<path class="st0" d="M134.5,36.4c0-0.6,0.2-1,0.6-1.2c0.4-0.2,0.9-0.4,1.5-0.4h6.6c0.6,0,1.1,0.2,1.5,0.6c0.4,0.4,0.6,0.9,0.6,1.5
	v7.3c0,0.6-0.1,1.1-0.4,1.5c-0.3,0.4-0.7,0.6-1.3,0.6c-0.5,0-1.1-0.2-1.6-0.5c-0.5-0.3-0.8-0.8-0.9-1.3c-0.9,0.6-1.9,1-2.9,1.3
	c-1.1,0.3-2.2,0.5-3.3,0.5c-1.7,0-3.2-0.3-4.7-0.9c-1.5-0.6-2.8-1.5-3.9-2.6c-1.1-1.1-2-2.4-2.6-3.8c-0.6-1.5-0.9-3-0.9-4.7
	c0-1.7,0.3-3.2,0.9-4.7c0.6-1.5,1.5-2.7,2.6-3.8c1.1-1.1,2.4-1.9,3.9-2.6c1.5-0.6,3-1,4.7-1c1.9,0,3.6,0.4,5.1,1.2
	c1.6,0.8,2.9,1.9,4,3.2c0.3,0.4,0.6,0.8,0.8,1.2c0.2,0.4,0.3,0.9,0.3,1.3c0,0.5-0.1,0.9-0.3,1.4c-0.2,0.4-0.4,0.8-0.8,1.2
	c-0.4,0.4-0.8,0.6-1.2,0.8c-0.4,0.2-0.9,0.2-1.3,0.2c-0.4,0-0.9-0.1-1.3-0.2c-0.4-0.2-0.8-0.4-1.2-0.8c-0.1-0.1-0.2-0.2-0.4-0.4
	c-0.5-0.5-1-1-1.7-1.4c-0.6-0.4-1.3-0.6-2.1-0.6c-0.7,0-1.3,0.1-1.9,0.4c-0.6,0.3-1.1,0.6-1.6,1.1c-0.4,0.5-0.8,1-1,1.6
	c-0.3,0.6-0.4,1.2-0.4,1.9c0,0.7,0.1,1.3,0.4,1.9c0.3,0.6,0.6,1.1,1.1,1.6c0.4,0.4,1,0.8,1.6,1.1c0.6,0.3,1.2,0.4,1.9,0.4
	c0.3,0,0.5,0,0.7-0.1c0.2-0.1,0.5-0.1,0.7-0.2c-0.5-0.1-0.9-0.4-1.3-0.9C134.7,37.5,134.5,37,134.5,36.4z"/>
<path class="st1" d="M169.9,36.8c0.3,0.4,0.6,0.8,0.8,1.2c0.2,0.4,0.3,0.9,0.3,1.3c0,0.5-0.1,0.9-0.3,1.4c-0.2,0.4-0.4,0.8-0.8,1.2
	c-1.1,1.4-2.5,2.4-4.1,3.2c-1.6,0.8-3.3,1.2-5.2,1.2c-1.7,0-3.2-0.3-4.7-0.9c-1.5-0.6-2.8-1.5-3.9-2.6c-1.1-1.1-2-2.4-2.6-3.8
	c-0.6-1.5-0.9-3-0.9-4.7c0-1.7,0.3-3.2,0.9-4.7c0.6-1.5,1.5-2.7,2.6-3.8c1.1-1.1,2.4-1.9,3.9-2.6c1.5-0.6,3-1,4.7-1
	c1.9,0,3.6,0.4,5.1,1.2c1.6,0.8,2.9,1.9,4,3.2c0.3,0.4,0.6,0.8,0.8,1.2c0.2,0.4,0.3,0.9,0.3,1.3c0,0.5-0.1,0.9-0.3,1.4
	c-0.2,0.4-0.4,0.8-0.8,1.2c-0.4,0.4-0.9,0.7-1.3,0.8c-0.5,0.2-1,0.2-1.5,0.1c-0.5-0.1-1-0.2-1.4-0.5c-0.4-0.2-0.8-0.6-1.2-0.9
	c-0.5-0.5-1-1-1.7-1.4c-0.6-0.4-1.3-0.6-2.1-0.6c-0.7,0-1.3,0.1-1.9,0.4c-0.6,0.3-1.1,0.6-1.6,1.1c-0.4,0.5-0.8,1-1,1.6
	c-0.3,0.6-0.4,1.2-0.4,1.9c0,0.7,0.1,1.3,0.4,1.9c0.3,0.6,0.6,1.1,1.1,1.6c0.4,0.4,1,0.8,1.6,1.1c0.6,0.3,1.2,0.4,1.9,0.4
	c0.8,0,1.6-0.2,2.3-0.7c0.7-0.5,1.3-1,1.8-1.5c0.4-0.4,0.8-0.7,1.3-0.9c0.5-0.2,1-0.3,1.5-0.3c0.5,0,0.9,0.1,1.4,0.2
	C169.2,36.3,169.6,36.5,169.9,36.8z"/>
<path class="st1" d="M173.3,34.2c0-1.7,0.3-3.2,0.9-4.7c0.6-1.5,1.5-2.7,2.6-3.8c1.1-1.1,2.4-1.9,3.9-2.6c1.5-0.6,3-1,4.7-1
	c1.7,0,3.2,0.3,4.7,1c1.5,0.6,2.8,1.5,3.8,2.6c1.1,1.1,2,2.4,2.6,3.8c0.6,1.5,1,3,1,4.7c0,1.7-0.3,3.2-1,4.7
	c-0.6,1.5-1.5,2.7-2.6,3.8c-1.1,1.1-2.4,2-3.8,2.6c-1.5,0.6-3,0.9-4.7,0.9c-1.7,0-3.2-0.3-4.7-0.9c-1.5-0.6-2.8-1.5-3.9-2.6
	c-1.1-1.1-2-2.4-2.6-3.8C173.6,37.4,173.3,35.9,173.3,34.2z M180.6,34.2c0,0.7,0.1,1.3,0.4,1.9c0.3,0.6,0.6,1.1,1,1.6
	c0.4,0.5,1,0.8,1.6,1.1c0.6,0.3,1.2,0.4,1.9,0.4c0.7,0,1.3-0.1,1.9-0.4c0.6-0.3,1.1-0.6,1.6-1.1c0.4-0.5,0.8-1,1.1-1.6
	c0.3-0.6,0.4-1.2,0.4-1.9c0-0.7-0.1-1.3-0.4-1.9c-0.3-0.6-0.6-1.1-1.1-1.6c-0.4-0.4-1-0.8-1.6-1.1c-0.6-0.3-1.2-0.4-1.9-0.4
	c-0.7,0-1.3,0.1-1.9,0.4c-0.6,0.3-1.1,0.6-1.6,1.1c-0.4,0.5-0.8,1-1,1.6C180.7,33,180.6,33.6,180.6,34.2L180.6,34.2z"/>
<path class="st1" d="M260.3,31.6c0,1.4-0.3,2.6-0.8,3.8c-0.5,1.2-1.2,2.2-2.1,3.1c-0.9,0.9-1.9,1.6-3.1,2.1
	c-1.2,0.5-2.5,0.8-3.8,0.8h-2v1.4c0,1-0.4,1.9-1.1,2.6c-0.7,0.7-1.6,1-2.6,1c-1,0-1.9-0.3-2.6-1c-0.7-0.7-1-1.5-1-2.6V25.8
	c0-0.5-0.1-0.9-0.2-1.4c-0.1-0.5-0.1-0.9-0.1-1.2c0-0.4,0.2-0.7,0.5-0.9c0.3-0.2,0.9-0.3,1.7-0.3h7.3c1.3,0,2.6,0.3,3.8,0.8
	c1.2,0.5,2.2,1.2,3.1,2.1c0.9,0.9,1.6,1.9,2.1,3.1C260,29,260.3,30.3,260.3,31.6z M253,31.8c0-0.7-0.2-1.3-0.7-1.8
	c-0.5-0.5-1.1-0.8-1.7-0.8l-2-0.1v5.2l2-0.1c0.7,0,1.3-0.2,1.7-0.7C252.7,33.1,253,32.5,253,31.8z"/>
<path class="st1" d="M262.5,28.9c0.1-0.9,0.4-1.8,0.8-2.6c0.4-0.8,1-1.5,1.7-2.1c0.7-0.6,1.6-1.1,2.6-1.4c1-0.3,2.2-0.5,3.4-0.5
	c0.5,0,1.1,0.1,1.7,0.2c0.7,0.1,1.3,0.3,2,0.6c0.7,0.3,1.3,0.6,1.9,1c0.6,0.4,1.1,0.8,1.5,1.3c0.3,0.4,0.5,0.8,0.7,1.2
	c0.1,0.4,0.2,0.9,0.2,1.4c0,0.5-0.1,0.9-0.3,1.4c-0.2,0.4-0.4,0.8-0.7,1.1c-0.4,0.4-0.8,0.6-1.2,0.8c-0.5,0.2-0.9,0.3-1.4,0.3
	c-0.5,0-1-0.1-1.4-0.2c-0.5-0.2-0.9-0.4-1.3-0.7c-0.2-0.1-0.3-0.3-0.4-0.5c-0.1-0.2-0.2-0.4-0.3-0.6c-0.1-0.2-0.3-0.3-0.4-0.5
	c-0.2-0.1-0.4-0.2-0.7-0.2c-0.4,0-0.7,0.1-0.9,0.2c-0.2,0.1-0.3,0.3-0.3,0.4c0,0.2,0,0.3,0.2,0.5c0.1,0.2,0.3,0.3,0.5,0.5l4.3,2.4
	c1.1,0.5,2,1.1,2.8,1.8c0.7,0.6,1.3,1.3,1.6,1.9c0.4,0.7,0.6,1.3,0.7,2c0.1,0.7,0,1.3-0.1,1.9c-0.2,1-0.6,1.9-1.2,2.7
	c-0.6,0.8-1.3,1.4-2.1,1.8c-0.8,0.5-1.6,0.8-2.5,1.1c-0.9,0.2-1.6,0.3-2.3,0.3c-1.6,0-2.9-0.1-3.8-0.4c-0.9-0.3-1.7-0.7-2.2-1.1
	c-0.5-0.4-1-0.9-1.4-1.4c-0.4-0.5-0.7-1.1-0.9-1.6c-0.2-0.6-0.3-1.1-0.2-1.7c0.1-0.6,0.3-1.1,0.8-1.6c0.2-0.3,0.6-0.5,1-0.7
	c0.4-0.2,0.9-0.3,1.5-0.3c0.5,0,1.1,0.1,1.6,0.3c0.6,0.2,1.1,0.6,1.5,1.2c0.4,0.5,0.8,0.7,1.2,0.8c0.4,0.1,0.8,0.1,1,0
	c0.4-0.1,0.6-0.3,0.7-0.7c0-0.4-0.2-0.8-0.7-1c-0.5-0.3-1.2-0.7-2.2-1.2c-1-0.5-2.2-1.1-3.5-1.7c-0.3-0.1-0.6-0.3-1-0.6
	c-0.4-0.2-0.7-0.6-1-1c-0.3-0.4-0.5-1-0.7-1.7C262.4,30.8,262.4,29.9,262.5,28.9z"/>
<path id="XMLID_58_" class="st2" d="M231.5,38.6c-1.3,0-2.3,1-2.3,2.3c0,1.3,1,2.3,2.3,2.3c1.3,0,2.3-1,2.3-2.3
	C233.8,39.6,232.8,38.6,231.5,38.6z"/>
<path id="XMLID_57_" class="st2" d="M231.5,25.7c-1.3,0-2.3,1-2.3,2.3c0,1.3,1,2.3,2.3,2.3c1.3,0,2.3-1,2.3-2.3
	C233.8,26.8,232.8,25.7,231.5,25.7z"/>
<path id="XMLID_16_" class="st3" d="M225,9.1c-0.9-0.1-1.8,0.3-2.3,0.9c-0.3-1.2-1.2-2.1-2.4-2.2c-1.4-0.1-2.6,0.7-3,2
	c-0.4-0.8-1.2-1.5-2.2-1.6c-1.5-0.2-2.9,1-3.1,2.5c0,0,0,0,0,0c-0.4-0.2-0.8-0.4-1.2-0.4c-1.5-0.2-2.9,1-3.1,2.5
	c-0.2,1.5,1,2.9,2.5,3.1c1.5,0.2,2.9-1,3.1-2.5c0,0,0,0,0,0c0.4,0.2,0.8,0.4,1.2,0.4c1.4,0.1,2.6-0.7,3-2c0.4,0.8,1.2,1.5,2.2,1.6
	c0.9,0.1,1.8-0.3,2.3-0.9c0.1,0.7,0.5,1.2,1.1,1.6c-0.1,0.3-0.2,0.6-0.2,1c0,1.3,1,2.3,2.3,2.3c1.3,0,2.3-1,2.3-2.3
	c0-0.5-0.2-1-0.5-1.4c0.4-0.4,0.6-0.9,0.6-1.5C227.7,10.7,226.6,9.3,225,9.1z"/>
<path class="st4" d="M202.5,35.4c2.1,7.9,8.6,13.6,16.2,13.6c6.7,0,12.4-4.4,15.2-10.7l-27.4,1C206.5,39.3,204.5,37.8,202.5,35.4z"
	/>
<path id="XMLID_18_" class="st4" d="M210.1,23.3c0.4,7.4,7.3,11.2,7.3,11.2l5.3-4.8l5.6,6.7l2.8-2.2l1.2,4.6c1-2.5,1.6-5.2,1.6-8.1
	c0-10.6-7.6-19.2-16.9-19.2c-1.1,0-2.3,0.1-3.3,0.4C212.4,13.3,209.7,17,210.1,23.3z"/>
<path class="st4" d="M211.8,22.4c0.4,7.4,7.3,11.2,7.3,11.2l5.3-4.8l5.6,6.7l2.8-2.2l1.2,4.6c1-2.5,1.6-5.2,1.6-8.1
	c0-10.6-7.6-19.2-16.9-19.2c-1.1,0-2.3,0.1-3.3,0.4C214.2,12.4,211.5,16.2,211.8,22.4z"/>
<path class="st5" d="M232.9,33.3l-2.8,2.2l-5.6-6.7l-5.3,4.8c0,0-6.9-3.8-7.3-11.2c-0.3-6.3,2.3-10,3.6-11.4c0,0,0,0,0,0
	c0,0,0,0,0,0c-0.2,0-0.3,0.1-0.5,0.1c-0.3,0.1-0.7,0.2-1,0.3c-0.2,0.1-0.4,0.2-0.6,0.2c-0.3,0.1-0.6,0.2-0.9,0.4
	c-0.2,0.1-0.4,0.2-0.6,0.3c-0.3,0.1-0.5,0.3-0.8,0.4c-0.2,0.1-0.4,0.2-0.6,0.4c-0.2,0.2-0.5,0.3-0.7,0.5c-0.2,0.1-0.4,0.3-0.6,0.4
	c-0.2,0.2-0.5,0.4-0.7,0.6c-0.2,0.2-0.3,0.3-0.5,0.5c-0.2,0.2-0.5,0.5-0.7,0.7c-0.1,0.1-0.3,0.3-0.4,0.4c-0.4,0.4-0.7,0.8-1,1.3
	c-0.1,0.1-0.1,0.2-0.2,0.3c-0.2,0.3-0.5,0.7-0.7,1.1c-0.1,0.2-0.2,0.4-0.3,0.6c-0.2,0.3-0.3,0.6-0.5,0.9c-0.1,0.2-0.2,0.4-0.3,0.6
	c-0.1,0.3-0.3,0.6-0.4,0.9c-0.1,0.2-0.2,0.5-0.3,0.7c-0.1,0.3-0.2,0.7-0.3,1c-0.1,0.2-0.1,0.5-0.2,0.7c-0.1,0.4-0.2,0.7-0.2,1.1
	c0,0.2-0.1,0.5-0.1,0.7c-0.1,0.4-0.1,0.8-0.2,1.2c0,0.2-0.1,0.4-0.1,0.6c-0.1,0.6-0.1,1.2-0.1,1.9c0,0.6,0,1.2,0.1,1.7
	c0,0.2,0,0.4,0.1,0.5c0,0.4,0.1,0.8,0.2,1.2c0,0.2,0.1,0.4,0.1,0.5c0.1,0.5,0.2,1,0.3,1.5c0,0,0,0,0,0c2,2.4,4,3.9,4,3.9l27.4-1l0,0
	c0-0.1,0.1-0.2,0.1-0.3l0,0L232.9,33.3z"/>
<path id="XMLID_49_" class="st6" d="M237.3,21.9l-3.7-1.2c0,0-1,0.8-0.4,2c0.5,1.3,2,1.2,2,1.2L237.3,21.9z"/>
<circle id="XMLID_48_" class="st7" cx="228.4" cy="22.4" r="1.2"/>
<circle id="XMLID_47_" class="st8" cx="227.8" cy="21.9" r="0.7"/>
<path id="XMLID_46_" class="st9" d="M207.2,36.4l5.8-6.9l5.8,6.9l5.8-6.9l5.8,6.9l5.5-6.5c0.5,1.7,0.7,3.5,0.7,5.4
	c0,10.6-7.9,19.2-17.7,19.2c-9.8,0-17.7-8.6-17.7-19.2c0-1.9,0.2-3.6,0.7-5.3L207.2,36.4z"/>
<path id="XMLID_3_" class="st10" d="M207.2,36.4l2.6-3.1c-0.1,2.6,0.4,6.4,3.5,10.4c3.9,5.2,11.5,4.7,16.3,2.5
	c3.9-1.8,6.3-6.3,6.4-6.5c-1.9,8.5-8.9,14.8-17.2,14.8c-9.8,0-17.7-8.6-17.7-19.2c0-1.9,0.2-3.6,0.7-5.3L207.2,36.4z"/>
<path id="XMLID_19_" class="st11" d="M41.6,45.7c-4.3-3.3-6.4-7-6.5-11.3c-0.1-4.5,1.9-8.3,6-11.6l1.2-0.9L37.1,22L37,22.1
	c-4.6,3.6-6.7,7.6-6.7,12.4c0.1,4.7,2.4,8.7,7.2,12.1l0.1,0.1l5.1-0.1L41.6,45.7z"/>
<path id="XMLID_6_" class="st11" d="M53,22.1L52.9,22l-5.2-0.1l1.2,0.9c4.2,3.3,6.1,7.1,6.1,11.6c-0.1,4.3-2.2,8-6.5,11.3l-1.1,0.9
	l5.1,0.1l0.1-0.1c4.7-3.4,7.1-7.3,7.2-12.1C59.8,29.7,57.6,25.7,53,22.1z"/>
</svg>
