<svg xmlns="http://www.w3.org/2000/svg" viewBox="0 0 288 62"><path fill="#0ABBDF" d="M27.4 38c-.2-.4-.4-.8-.8-1.2-.3-.3-.7-.5-1.1-.7-.4-.2-.9-.2-1.4-.2-.5 0-1 .1-1.5.3-.5.2-.9.5-1.3.9-.5.5-1.1 1-1.8 1.5s-1.5.7-2.3.7c-.7 0-1.3-.1-1.9-.4-.6-.3-1.1-.6-1.6-1.1-.4-.4-.8-1-1.1-1.6-.3-.6-.4-1.2-.4-1.9s.1-1.3.4-1.9c.3-.6.6-1.1 1-1.6s1-.8 1.6-1.1c.6-.3 1.2-.4 1.9-.4.8 0 1.5.2 2.1.6.6.4 1.2.8 1.7 1.4.3.4.7.7 1.2.9.4.2.9.4 1.4.5s1 0 1.5-.1c.5-.2.9-.4 1.3-.8.3-.3.6-.7.8-1.2.2-.4.3-.9.3-1.4 0-.5-.1-.9-.3-1.3-.2-.4-.4-.8-.8-1.2-1.1-1.3-2.5-2.4-4-3.2-1.6-.8-3.3-1.2-5.1-1.2-1.7 0-3.2.3-4.7 1-1.5.6-2.8 1.5-3.9 2.6s-2 2.4-2.6 3.8c-.6 1.5-.9 3-.9 4.7 0 1.7.3 3.2.9 4.7.6 1.5 1.5 2.7 2.6 3.8 1.1 1.1 2.4 2 3.9 2.6 1.5.6 3 .9 4.7.9 1.9 0 3.6-.4 5.2-1.2 1.6-.8 3-1.9 4.1-3.2.3-.3.6-.7.8-1.2.2-.4.3-.9.3-1.4s-.1-1-.2-1.4zm56.2-8.5c-.6-1.5-1.5-2.7-2.6-3.8-1.1-1.1-2.4-1.9-3.8-2.6-1.5-.6-3-1-4.7-1h-7.2c-.8 0-1.4.1-1.7.3-.4.3-.6.6-.6 1s0 .8.1 1.2c.1.5.2.9.2 1.4v16.6c0 1 .3 1.9 1 2.6.7.7 1.5 1 2.6 1h5.6c1.7 0 3.2-.3 4.7-.9 1.5-.6 2.8-1.5 3.8-2.6 1.1-1.1 2-2.4 2.6-3.8.6-1.5 1-3 1-4.7-.1-1.6-.4-3.2-1-4.7zm-6.7 6.6c-.3.6-.6 1.1-1.1 1.5-.4.4-1 .8-1.6 1.1-.6.3-1.2.4-1.9.4l-2 .1v-9.9l2 .1c.7 0 1.3.2 1.9.4.6.3 1.1.6 1.6 1 .4.4.8.9 1.1 1.5.3.6.4 1.2.4 1.9s-.1 1.3-.4 1.9zm17.6-11.7c-.2-.4-.4-.8-.8-1.1-.3-.3-.7-.6-1.1-.8-.4-.2-.9-.3-1.4-.3h-1.7c-.8 0-1.4.1-1.7.3-.3.2-.5.5-.5.9s0 .8.1 1.2c.1.5.2.9.2 1.4v16.6c0 1 .3 1.9 1 2.6.7.7 1.5 1 2.6 1 1 0 1.9-.3 2.6-1 .7-.7 1.1-1.5 1.1-2.6V25.8c-.1-.5-.2-1-.4-1.4zm24.9 0c-.2-.4-.5-.8-.8-1.1-.3-.3-.7-.6-1.2-.8-.4-.2-.9-.3-1.3-.3h-1.7c-.8 0-1.4.1-1.7.4-.3.2-.5.6-.5.9 0 .4 0 .8.1 1.3s.2.9.2 1.4v6.5c-1.2-1.5-2.3-2.7-3.1-3.7s-1.5-1.8-2.1-2.5c-.6-.7-1-1.2-1.3-1.5-.3-.4-.5-.6-.7-.8-.1-.2-.2-.3-.3-.4-.4-.5-.9-.8-1.3-1.1-.5-.3-1-.4-1.5-.4h-1.7c-.8 0-1.4.1-1.7.3-.3.2-.5.5-.5.9s0 .8.1 1.2c.1.5.2.9.2 1.4v16.6c0 1 .3 1.9 1 2.6.7.7 1.5 1 2.6 1 1 0 1.8-.3 2.5-1s1-1.5 1-2.6v-6.9l7.8 9.3c.3.4.7.7 1.2.9.4.2.9.3 1.3.3.5 0 .9 0 1.4-.2.4-.2.9-.4 1.2-.8.4-.4.7-.9.9-1.4.2-.5.2-1.1.2-1.6V25.8c0-.5-.1-1-.3-1.4zm25.4 11c-.4-.4-.9-.6-1.5-.6h-6.6c-.6 0-1.1.1-1.5.4-.4.2-.6.7-.6 1.2s.2 1.1.5 1.6c.4.5.8.8 1.3.9-.2.1-.5.1-.7.2-.2.1-.5.1-.7.1-.7 0-1.3-.1-1.9-.4-.6-.3-1.1-.6-1.6-1.1-.4-.4-.8-1-1.1-1.6-.3-.6-.4-1.2-.4-1.9s.1-1.3.4-1.9c.3-.6.6-1.1 1-1.6s1-.8 1.6-1.1c.6-.3 1.2-.4 1.9-.4.8 0 1.5.2 2.1.6.6.4 1.2.8 1.7 1.4l.4.4c.3.4.7.6 1.2.8.4.2.9.2 1.3.2s.9-.1 1.3-.2c.4-.2.8-.4 1.2-.8.3-.3.6-.7.8-1.2.2-.4.3-.9.3-1.4 0-.5-.1-.9-.3-1.3-.2-.4-.4-.8-.8-1.2-1.1-1.3-2.5-2.4-4-3.2-1.6-.8-3.3-1.2-5.1-1.2-1.7 0-3.2.3-4.7 1-1.5.6-2.8 1.5-3.9 2.6s-2 2.4-2.6 3.8c-.6 1.5-.9 3-.9 4.7 0 1.7.3 3.2.9 4.7.6 1.5 1.5 2.7 2.6 3.8 1.1 1.1 2.4 2 3.9 2.6 1.5.6 3 .9 4.7.9 1.2 0 2.3-.2 3.3-.5 1.1-.3 2-.7 2.9-1.3.1.5.4.9.9 1.3.5.3 1 .5 1.6.5.6 0 1-.2 1.3-.6.3-.4.4-.9.4-1.5v-7.3c-.1-.5-.3-1-.6-1.4z"/><path fill="#EE3427" d="M170.7 38c-.2-.4-.4-.8-.8-1.2-.3-.3-.7-.5-1.1-.7-.4-.2-.9-.2-1.4-.2-.5 0-1 .1-1.5.3-.5.2-.9.5-1.3.9-.5.5-1.1 1-1.8 1.5s-1.5.7-2.3.7c-.7 0-1.3-.1-1.9-.4-.6-.3-1.1-.6-1.6-1.1-.4-.4-.8-1-1.1-1.6-.3-.6-.4-1.2-.4-1.9s.1-1.3.4-1.9c.3-.6.6-1.1 1-1.6s1-.8 1.6-1.1c.6-.3 1.2-.4 1.9-.4.8 0 1.5.2 2.1.6.6.4 1.2.8 1.7 1.4.3.4.7.7 1.2.9.4.2.9.4 1.4.5.5.1 1 0 1.5-.1.5-.2.9-.4 1.3-.8.3-.3.6-.7.8-1.2.2-.4.3-.9.3-1.4 0-.5-.1-.9-.3-1.3-.2-.4-.4-.8-.8-1.2-1.1-1.3-2.5-2.4-4-3.2-1.6-.8-3.3-1.2-5.1-1.2-1.7 0-3.2.3-4.7 1-1.5.6-2.8 1.5-3.9 2.6s-2 2.4-2.6 3.8c-.6 1.5-.9 3-.9 4.7 0 1.7.3 3.2.9 4.7.6 1.5 1.5 2.7 2.6 3.8 1.1 1.1 2.4 2 3.9 2.6 1.5.6 3 .9 4.7.9 1.9 0 3.6-.4 5.2-1.2 1.6-.8 3-1.9 4.1-3.2.3-.3.6-.7.8-1.2.2-.4.3-.9.3-1.4s0-1-.2-1.4zm25.9-8.5c-.6-1.5-1.5-2.7-2.6-3.8-1.1-1.1-2.4-1.9-3.8-2.6-1.5-.6-3-1-4.7-1-1.7 0-3.2.3-4.7 1-1.5.6-2.8 1.5-3.9 2.6s-2 2.4-2.6 3.8c-.6 1.5-.9 3-.9 4.7 0 1.7.3 3.2.9 4.7.6 1.5 1.5 2.7 2.6 3.8 1.1 1.1 2.4 2 3.9 2.6 1.5.6 3 .9 4.7.9 1.7 0 3.2-.3 4.7-.9 1.5-.6 2.8-1.5 3.8-2.6 1.1-1.1 2-2.4 2.6-3.8.6-1.5 1-3 1-4.7-.1-1.6-.4-3.2-1-4.7zm-6.7 6.6c-.3.6-.6 1.1-1.1 1.6-.4.5-1 .8-1.6 1.1-.6.3-1.2.4-1.9.4s-1.3-.1-1.9-.4c-.6-.3-1.1-.6-1.6-1.1-.4-.5-.8-1-1-1.6-.3-.6-.4-1.2-.4-1.9 0-.6.1-1.3.4-1.9.3-.6.6-1.1 1-1.6s1-.8 1.6-1.1c.6-.3 1.2-.4 1.9-.4s1.3.1 1.9.4c.6.3 1.1.6 1.6 1.1.4.4.8 1 1.1 1.6.3.6.4 1.2.4 1.9s-.1 1.3-.4 1.9zm69.6-8.3c-.5-1.2-1.2-2.2-2.1-3.1-.9-.9-1.9-1.6-3.1-2.1-1.2-.5-2.5-.8-3.8-.8h-7.3c-.8 0-1.4.1-1.7.3-.3.2-.5.5-.5.9s0 .8.1 1.2c.1.5.2.9.2 1.4v16.9c0 1 .3 1.9 1 2.6.7.7 1.5 1 2.6 1 1 0 1.9-.3 2.6-1 .7-.7 1.1-1.5 1.1-2.6v-1.4h2c1.3 0 2.6-.3 3.8-.8 1.2-.5 2.2-1.2 3.1-2.1s1.6-1.9 2.1-3.1c.5-1.2.8-2.4.8-3.8-.1-1-.4-2.3-.9-3.5zm-7.2 5.7c-.5.4-1.1.6-1.7.7l-2 .1v-5.2l2 .1c.7 0 1.3.3 1.7.8.5.5.7 1.1.7 1.8s-.3 1.3-.7 1.7zm10.2-4.6c.1-.9.4-1.8.8-2.7.4-.8 1-1.5 1.7-2.1.7-.6 1.6-1.1 2.6-1.4 1-.3 2.2-.5 3.5-.5.5 0 1.1.1 1.7.2.7.1 1.3.3 2 .6s1.3.6 1.9 1c.6.4 1.1.8 1.5 1.3.3.4.5.8.7 1.2.1.4.2.9.2 1.4 0 .5-.1.9-.3 1.4-.2.4-.4.8-.8 1.2-.4.4-.8.6-1.2.8-.5.2-.9.3-1.4.3-.5 0-1-.1-1.5-.2-.5-.2-.9-.4-1.3-.7-.2-.1-.3-.3-.4-.5l-.3-.6c-.1-.2-.3-.3-.4-.5-.2-.1-.4-.2-.7-.2-.4 0-.7.1-.9.2-.2.1-.3.3-.3.4 0 .2 0 .3.2.5.1.2.3.3.5.5l4.3 2.4c1.1.5 2.1 1.1 2.8 1.8.7.6 1.3 1.3 1.6 1.9.4.7.6 1.3.7 2 .1.7 0 1.3-.1 1.9-.2 1.1-.6 2-1.3 2.7-.6.8-1.3 1.4-2.1 1.8-.8.5-1.6.8-2.5 1.1-.9.2-1.6.3-2.3.3-1.6 0-2.9-.1-3.8-.4-.9-.3-1.7-.7-2.2-1.1-.5-.4-1-.9-1.5-1.4-.4-.5-.7-1.1-.9-1.7-.2-.6-.3-1.2-.2-1.7.1-.6.3-1.1.8-1.6.2-.3.6-.5 1-.7.5-.2.9-.3 1.5-.3.5 0 1.1.1 1.6.3.6.2 1.1.6 1.5 1.2.4.5.8.7 1.2.8.4.1.8.1 1 0 .4-.1.6-.3.7-.7 0-.4-.2-.8-.7-1-.5-.3-1.2-.7-2.3-1.3-1-.5-2.2-1.1-3.5-1.8-.3-.1-.6-.3-1-.6-.4-.2-.7-.6-1-1-.3-.4-.5-1-.7-1.7-.5-.9-.5-1.7-.4-2.8z"/><path fill="#F0526C" d="M231.5 38.6c-1.3 0-2.3 1-2.3 2.3 0 1.3 1 2.3 2.3 2.3 1.3 0 2.3-1 2.3-2.3 0-1.3-1-2.3-2.3-2.3zm0-12.9c-1.3 0-2.3 1-2.3 2.3 0 1.3 1 2.3 2.3 2.3 1.3 0 2.3-1 2.3-2.3 0-1.2-1-2.3-2.3-2.3z"/><path fill="#DB1E38" d="M225 9.1c-.9-.1-1.8.3-2.3.9-.3-1.2-1.2-2.1-2.4-2.2-1.4-.1-2.6.7-3 2-.4-.8-1.2-1.5-2.2-1.6-1.5-.2-2.9 1-3.1 2.5-.4-.2-.8-.4-1.2-.4-1.5-.2-2.9 1-3.1 2.5-.2 1.5 1 2.9 2.5 3.1 1.5.2 2.9-1 3.1-2.5.4.2.8.4 1.2.4 1.4.1 2.6-.7 3-2 .4.8 1.2 1.5 2.2 1.6.9.1 1.8-.3 2.3-.9.1.7.5 1.2 1.1 1.6-.1.3-.2.6-.2 1 0 1.3 1 2.3 2.3 2.3 1.3 0 2.3-1 2.3-2.3 0-.5-.2-1-.5-1.4.4-.4.6-.9.6-1.5.1-1.5-1-2.9-2.6-3.1z"/><path fill="#FDC70C" d="M202.5 35.4c2.1 7.9 8.6 13.6 16.2 13.6 6.7 0 12.4-4.4 15.2-10.7l-27.4 1s-2-1.5-4-3.9zm9.3-13c.4 7.4 7.3 11.2 7.3 11.2l5.3-4.8 5.6 6.7 2.8-2.2 1.2 4.6c1-2.5 1.6-5.2 1.6-8.1 0-10.6-7.6-19.2-16.9-19.2-1.1 0-2.3.1-3.3.4-1.2 1.4-3.9 5.2-3.6 11.4z"/><path fill="#F8971D" d="M232.9 33.3l-2.8 2.2-5.6-6.7-5.3 4.8s-6.9-3.8-7.3-11.2c-.3-6.3 2.3-10 3.6-11.4-.2 0-.3.1-.5.1-.3.1-.7.2-1 .3-.2.1-.4.2-.6.2-.3.1-.6.2-.9.4l-.6.3c-.3.1-.5.3-.8.4-.2.1-.4.2-.6.4-.2.2-.5.3-.7.5-.2.1-.4.3-.6.4-.2.2-.5.4-.7.6l-.5.5-.7.7-.4.4c-.4.4-.7.8-1 1.3-.1.1-.1.2-.2.3-.2.3-.5.7-.7 1.1l-.3.6c-.2.3-.3.6-.5.9l-.3.6c-.1.3-.3.6-.4.9-.1.2-.2.5-.3.7-.1.3-.2.7-.3 1-.1.2-.1.5-.2.7-.1.4-.2.7-.2 1.1 0 .2-.1.5-.1.7-.1.4-.1.8-.2 1.2 0 .2-.1.4-.1.6-.1.6-.1 1.2-.1 1.9 0 .6 0 1.2.1 1.7 0 .2 0 .4.1.5 0 .4.1.8.2 1.2 0 .2.1.4.1.5l.3 1.5c2 2.4 4 3.9 4 3.9l27.4-1c0-.1.1-.2.1-.3l-1.4-4.5z"/><path fill="#F48851" d="M237.3 21.9l-3.7-1.2s-1 .8-.4 2c.5 1.3 2 1.2 2 1.2l2.1-2z"/><path fill="#5E2E11" d="M227.1 22.4c0 .7.6 1.2 1.2 1.2.7 0 1.2-.6 1.2-1.2 0-.7-.6-1.2-1.2-1.2s-1.2.5-1.2 1.2z"/><path fill="#FFF" d="M227.1 21.9c0 .4.3.7.7.7.4 0 .7-.3.7-.7 0-.4-.3-.7-.7-.7-.4 0-.7.3-.7.7z"/><path fill="#FFE3C5" d="M207.2 36.4l5.8-6.9 5.8 6.9 5.8-6.9 5.8 6.9 5.5-6.5c.5 1.7.7 3.5.7 5.4 0 10.6-7.9 19.2-17.7 19.2-9.8 0-17.7-8.6-17.7-19.2 0-1.9.2-3.6.7-5.3l5.3 6.4z"/><path fill="#F4D4AE" d="M207.2 36.4l2.6-3.1c-.1 2.6.4 6.4 3.5 10.4 3.9 5.2 11.5 4.7 16.3 2.5 3.9-1.8 6.3-6.3 6.4-6.5-1.9 8.5-8.9 14.8-17.2 14.8-9.8 0-17.7-8.6-17.7-19.2 0-1.9.2-3.6.7-5.3l5.4 6.4z"/><path fill="#00BBDF" d="M42.4 45.6c-2.3-2.1-5.1-5.8-5.2-11.2-.1-5.6 2.6-9.4 4.8-11.5l.9-.9-6.9.1-.1.1c-2.7 2.3-5.9 6.2-5.8 12.2.1 6.3 4 10.2 6.3 12l.1.1 6.9-.1-1-.8zm11.8-23.4l-.2-.1-6.9-.1.9.9c2.3 2.1 4.9 5.9 4.8 11.5-.1 5.4-2.9 9.1-5.2 11.2l-.9.8 6.9.1.1-.1c2.3-1.8 6.2-5.7 6.3-12 0-5.9-3.2-9.9-5.8-12.2z"/></svg>