<svg id="Layer_1" xmlns="http://www.w3.org/2000/svg" viewBox="0 0 288 62"><style>.st2{fill:#f0526c}.st4{fill:#fdc70c}.st11{fill:#00bbdf}</style><path d="M26.6 36.8c.3.4.6.8.8 1.2.2.4.3.9.3 1.3 0 .5-.1.9-.3 1.4-.2.4-.4.8-.8 1.2-1.1 1.4-2.5 2.4-4.1 3.2-1.6.8-3.3 1.2-5.2 1.2-1.7 0-3.2-.3-4.7-.9-1.5-.6-2.8-1.5-3.9-2.6s-2-2.4-2.6-3.8c-.6-1.5-.9-3-.9-4.7 0-1.7.3-3.2.9-4.7.6-1.5 1.5-2.7 2.6-3.8 1.1-1.1 2.4-1.9 3.9-2.6 1.5-.6 3-1 4.7-1 1.9 0 3.6.4 5.1 1.2 1.6.8 2.9 1.9 4 3.2.3.4.6.8.8 1.2.2.4.3.9.3 1.3 0 .5-.1.9-.3 1.4-.2.4-.4.8-.8 1.2-.4.4-.9.7-1.3.8-.5.2-1 .2-1.5.1s-1-.2-1.4-.5c-.4-.2-.8-.6-1.2-.9-.5-.5-1-1-1.7-1.4-.6-.4-1.3-.6-2.1-.6-.7 0-1.3.1-1.9.4-.6.3-1.1.6-1.6 1.1-.4.5-.8 1-1 1.6-.3.6-.4 1.2-.4 1.9s.1 1.3.4 1.9c.3.6.6 1.1 1.1 1.6.4.4 1 .8 1.6 1.1.6.3 1.2.4 1.9.4.8 0 1.6-.2 2.3-.7.7-.5 1.3-1 1.8-1.5.4-.4.8-.7 1.3-.9.5-.2 1-.3 1.5-.3s.9.1 1.4.2c.3.3.7.5 1 .8zm40.3 9.5c-1 0-1.9-.3-2.6-1-.7-.7-1-1.5-1-2.6V26c0-.5-.1-.9-.2-1.4-.1-.5-.1-.9-.1-1.2 0-.4.2-.7.5-.9.3-.2.9-.3 1.7-.3h7.2c1.7 0 3.2.3 4.7 1 1.5.6 2.8 1.5 3.8 2.6 1.1 1.1 2 2.4 2.6 3.8.6 1.5 1 3 1 4.7 0 1.7-.3 3.2-1 4.7-.6 1.5-1.5 2.7-2.6 3.8-1.1 1.1-2.4 2-3.8 2.6-1.5.6-3 .9-4.7.9h-5.5zm10.4-12.1c0-.7-.1-1.3-.4-1.9-.3-.6-.6-1.1-1.1-1.5-.4-.4-1-.8-1.6-1-.6-.3-1.2-.4-1.9-.4l-2-.1v9.9l2-.1c.7 0 1.3-.2 1.9-.4.6-.3 1.1-.6 1.6-1.1.4-.4.8-.9 1.1-1.5.3-.6.4-1.2.4-1.9zm17.5 8.5c0 1-.4 1.9-1.1 2.6-.7.7-1.6 1-2.6 1s-1.9-.3-2.6-1c-.7-.7-1-1.5-1-2.6V26c0-.5-.1-.9-.2-1.4-.1-.5-.1-.9-.1-1.2 0-.4.2-.7.5-.9.3-.2.9-.3 1.7-.3h1.7c.5 0 .9.1 1.4.3.4.2.8.4 1.1.8.3.3.6.7.8 1.1.2.4.3.9.3 1.4v16.9zm24.9-.4c0 .6-.1 1.1-.2 1.6-.2.5-.4 1-.9 1.4-.4.4-.8.6-1.2.8-.4.2-.9.2-1.4.2-.5 0-.9-.1-1.3-.3-.4-.2-.8-.5-1.2-.9l-7.8-9.3v6.9c0 1-.3 1.9-1 2.6-.7.7-1.5 1-2.5 1s-1.9-.3-2.6-1c-.7-.7-1-1.5-1-2.6V26c0-.5-.1-.9-.2-1.4-.1-.5-.1-.9-.1-1.2 0-.4.2-.7.5-.9.3-.2.9-.3 1.7-.3h1.7c.6 0 1.1.1 1.5.4.5.3.9.6 1.3 1.1.1.1.2.2.3.4.1.2.4.4.7.8.3.4.7.9 1.3 1.5.6.7 1.2 1.5 2.1 2.5.8 1 1.9 2.3 3.1 3.7v-6.5c0-.5-.1-.9-.2-1.4-.1-.5-.2-.9-.1-1.3 0-.4.2-.7.5-.9.3-.2.9-.4 1.7-.4h1.7c.5 0 .9.1 1.3.3.4.2.8.5 1.2.8.3.3.6.7.8 1.1.2.4.3.9.3 1.4v16.6zm14.8-5.9c0-.6.2-1 .6-1.2.4-.2.9-.4 1.5-.4h6.6c.6 0 1.1.2 1.5.6.4.4.6.9.6 1.5v7.3c0 .6-.1 1.1-.4 1.5-.3.4-.7.6-1.3.6-.5 0-1.1-.2-1.6-.5s-.8-.8-.9-1.3c-.9.6-1.9 1-2.9 1.3-1.1.3-2.2.5-3.3.5-1.7 0-3.2-.3-4.7-.9-1.5-.6-2.8-1.5-3.9-2.6s-2-2.4-2.6-3.8c-.6-1.5-.9-3-.9-4.7 0-1.7.3-3.2.9-4.7.6-1.5 1.5-2.7 2.6-3.8 1.1-1.1 2.4-1.9 3.9-2.6 1.5-.6 3-1 4.7-1 1.9 0 3.6.4 5.1 1.2 1.6.8 2.9 1.9 4 3.2.3.4.6.8.8 1.2.2.4.3.9.3 1.3 0 .5-.1.9-.3 1.4-.2.4-.4.8-.8 1.2-.4.4-.8.6-1.2.8-.4.2-.9.2-1.3.2s-.9-.1-1.3-.2c-.4-.2-.8-.4-1.2-.8l-.4-.4c-.5-.5-1-1-1.7-1.4-.6-.4-1.3-.6-2.1-.6-.7 0-1.3.1-1.9.4-.6.3-1.1.6-1.6 1.1-.4.5-.8 1-1 1.6-.3.6-.4 1.2-.4 1.9s.1 1.3.4 1.9c.3.6.6 1.1 1.1 1.6.4.4 1 .8 1.6 1.1.6.3 1.2.4 1.9.4.3 0 .5 0 .7-.1.2-.1.5-.1.7-.2-.5-.1-.9-.4-1.3-.9-.3-.6-.5-1.1-.5-1.7z" fill="#0abbdf"/><path d="M169.9 36.8c.3.4.6.8.8 1.2.2.4.3.9.3 1.3 0 .5-.1.9-.3 1.4-.2.4-.4.8-.8 1.2-1.1 1.4-2.5 2.4-4.1 3.2-1.6.8-3.3 1.2-5.2 1.2-1.7 0-3.2-.3-4.7-.9-1.5-.6-2.8-1.5-3.9-2.6s-2-2.4-2.6-3.8c-.6-1.5-.9-3-.9-4.7 0-1.7.3-3.2.9-4.7.6-1.5 1.5-2.7 2.6-3.8 1.1-1.1 2.4-1.9 3.9-2.6 1.5-.6 3-1 4.7-1 1.9 0 3.6.4 5.1 1.2 1.6.8 2.9 1.9 4 3.2.3.4.6.8.8 1.2.2.4.3.9.3 1.3 0 .5-.1.9-.3 1.4-.2.4-.4.8-.8 1.2-.4.4-.9.7-1.3.8-.5.2-1 .2-1.5.1s-1-.2-1.4-.5c-.4-.2-.8-.6-1.2-.9-.5-.5-1-1-1.7-1.4-.6-.4-1.3-.6-2.1-.6-.7 0-1.3.1-1.9.4-.6.3-1.1.6-1.6 1.1-.4.5-.8 1-1 1.6-.3.6-.4 1.2-.4 1.9s.1 1.3.4 1.9c.3.6.6 1.1 1.1 1.6.4.4 1 .8 1.6 1.1.6.3 1.2.4 1.9.4.8 0 1.6-.2 2.3-.7.7-.5 1.3-1 1.8-1.5.4-.4.8-.7 1.3-.9.5-.2 1-.3 1.5-.3s.9.1 1.4.2c.3.3.7.5 1 .8zm3.4-2.6c0-1.7.3-3.2.9-4.7.6-1.5 1.5-2.7 2.6-3.8 1.1-1.1 2.4-1.9 3.9-2.6 1.5-.6 3-1 4.7-1 1.7 0 3.2.3 4.7 1 1.5.6 2.8 1.5 3.8 2.6 1.1 1.1 2 2.4 2.6 3.8.6 1.5 1 3 1 4.7 0 1.7-.3 3.2-1 4.7-.6 1.5-1.5 2.7-2.6 3.8-1.1 1.1-2.4 2-3.8 2.6-1.5.6-3 .9-4.7.9-1.7 0-3.2-.3-4.7-.9-1.5-.6-2.8-1.5-3.9-2.6s-2-2.4-2.6-3.8c-.6-1.5-.9-3-.9-4.7zm7.3 0c0 .7.1 1.3.4 1.9.3.6.6 1.1 1 1.6s1 .8 1.6 1.1c.6.3 1.2.4 1.9.4s1.3-.1 1.9-.4c.6-.3 1.1-.6 1.6-1.1.4-.5.8-1 1.1-1.6.3-.6.4-1.2.4-1.9s-.1-1.3-.4-1.9c-.3-.6-.6-1.1-1.1-1.6-.4-.4-1-.8-1.6-1.1-.6-.3-1.2-.4-1.9-.4s-1.3.1-1.9.4c-.6.3-1.1.6-1.6 1.1-.4.5-.8 1-1 1.6-.3.7-.4 1.3-.4 1.9zm79.7-2.6c0 1.4-.3 2.6-.8 3.8-.5 1.2-1.2 2.2-2.1 3.1-.9.9-1.9 1.6-3.1 2.1-1.2.5-2.5.8-3.8.8h-2v1.4c0 1-.4 1.9-1.1 2.6-.7.7-1.6 1-2.6 1s-1.9-.3-2.6-1c-.7-.7-1-1.5-1-2.6v-17c0-.5-.1-.9-.2-1.4-.1-.5-.1-.9-.1-1.2 0-.4.2-.7.5-.9.3-.2.9-.3 1.7-.3h7.3c1.3 0 2.6.3 3.8.8 1.2.5 2.2 1.2 3.1 2.1.9.9 1.6 1.9 2.1 3.1.6 1 .9 2.3.9 3.6zm-7.3.2c0-.7-.2-1.3-.7-1.8-.5-.5-1.1-.8-1.7-.8l-2-.1v5.2l2-.1c.7 0 1.3-.2 1.7-.7.4-.4.7-1 .7-1.7zm9.5-2.9c.1-.9.4-1.8.8-2.6s1-1.5 1.7-2.1c.7-.6 1.6-1.1 2.6-1.4 1-.3 2.2-.5 3.4-.5.5 0 1.1.1 1.7.2.7.1 1.3.3 2 .6s1.3.6 1.9 1c.6.4 1.1.8 1.5 1.3.3.4.5.8.7 1.2.1.4.2.9.2 1.4 0 .5-.1.9-.3 1.4-.2.4-.4.8-.7 1.1-.4.4-.8.6-1.2.8-.5.2-.9.3-1.4.3-.5 0-1-.1-1.4-.2-.5-.2-.9-.4-1.3-.7-.2-.1-.3-.3-.4-.5l-.3-.6c-.1-.2-.3-.3-.4-.5-.2-.1-.4-.2-.7-.2-.4 0-.7.1-.9.2-.2.1-.3.3-.3.4 0 .2 0 .3.2.5.1.2.3.3.5.5l4.3 2.4c1.1.5 2 1.1 2.8 1.8.7.6 1.3 1.3 1.6 1.9.4.7.6 1.3.7 2 .1.7 0 1.3-.1 1.9-.2 1-.6 1.9-1.2 2.7-.6.8-1.3 1.4-2.1 1.8-.8.5-1.6.8-2.5 1.1-.9.2-1.6.3-2.3.3-1.6 0-2.9-.1-3.8-.4-.9-.3-1.7-.7-2.2-1.1-.5-.4-1-.9-1.4-1.4-.4-.5-.7-1.1-.9-1.6-.2-.6-.3-1.1-.2-1.7.1-.6.3-1.1.8-1.6.2-.3.6-.5 1-.7.4-.2.9-.3 1.5-.3.5 0 1.1.1 1.6.3.6.2 1.1.6 1.5 1.2.4.5.8.7 1.2.8.4.1.8.1 1 0 .4-.1.6-.3.7-.7 0-.4-.2-.8-.7-1-.5-.3-1.2-.7-2.2-1.2-1-.5-2.2-1.1-3.5-1.7-.3-.1-.6-.3-1-.6-.4-.2-.7-.6-1-1-.3-.4-.5-1-.7-1.7-.9-1.2-.9-2.1-.8-3.1z" fill="#ee3427"/><path id="XMLID_58_" class="st2" d="M231.5 38.6c-1.3 0-2.3 1-2.3 2.3 0 1.3 1 2.3 2.3 2.3 1.3 0 2.3-1 2.3-2.3 0-1.3-1-2.3-2.3-2.3z"/><path id="XMLID_57_" class="st2" d="M231.5 25.7c-1.3 0-2.3 1-2.3 2.3 0 1.3 1 2.3 2.3 2.3 1.3 0 2.3-1 2.3-2.3 0-1.2-1-2.3-2.3-2.3z"/><path id="XMLID_16_" d="M225 9.1c-.9-.1-1.8.3-2.3.9-.3-1.2-1.2-2.1-2.4-2.2-1.4-.1-2.6.7-3 2-.4-.8-1.2-1.5-2.2-1.6-1.5-.2-2.9 1-3.1 2.5-.4-.2-.8-.4-1.2-.4-1.5-.2-2.9 1-3.1 2.5-.2 1.5 1 2.9 2.5 3.1 1.5.2 2.9-1 3.1-2.5.4.2.8.4 1.2.4 1.4.1 2.6-.7 3-2 .4.8 1.2 1.5 2.2 1.6.9.1 1.8-.3 2.3-.9.1.7.5 1.2 1.1 1.6-.1.3-.2.6-.2 1 0 1.3 1 2.3 2.3 2.3 1.3 0 2.3-1 2.3-2.3 0-.5-.2-1-.5-1.4.4-.4.6-.9.6-1.5.1-1.5-1-2.9-2.6-3.1z" fill="#db1e38"/><path class="st4" d="M202.5 35.4c2.1 7.9 8.6 13.6 16.2 13.6 6.7 0 12.4-4.4 15.2-10.7l-27.4 1s-2-1.5-4-3.9z"/><path id="XMLID_18_" class="st4" d="M210.1 23.3c.4 7.4 7.3 11.2 7.3 11.2l5.3-4.8 5.6 6.7 2.8-2.2 1.2 4.6c1-2.5 1.6-5.2 1.6-8.1 0-10.6-7.6-19.2-16.9-19.2-1.1 0-2.3.1-3.3.4-1.3 1.4-4 5.1-3.6 11.4z"/><path class="st4" d="M211.8 22.4c.4 7.4 7.3 11.2 7.3 11.2l5.3-4.8 5.6 6.7 2.8-2.2 1.2 4.6c1-2.5 1.6-5.2 1.6-8.1 0-10.6-7.6-19.2-16.9-19.2-1.1 0-2.3.1-3.3.4-1.2 1.4-3.9 5.2-3.6 11.4z"/><path d="M232.9 33.3l-2.8 2.2-5.6-6.7-5.3 4.8s-6.9-3.8-7.3-11.2c-.3-6.3 2.3-10 3.6-11.4-.2 0-.3.1-.5.1-.3.1-.7.2-1 .3-.2.1-.4.2-.6.2-.3.1-.6.2-.9.4l-.6.3c-.3.1-.5.3-.8.4-.2.1-.4.2-.6.4-.2.2-.5.3-.7.5-.2.1-.4.3-.6.4-.2.2-.5.4-.7.6l-.5.5-.7.7-.4.4c-.4.4-.7.8-1 1.3-.1.1-.1.2-.2.3-.2.3-.5.7-.7 1.1l-.3.6c-.2.3-.3.6-.5.9l-.3.6c-.1.3-.3.6-.4.9-.1.2-.2.5-.3.7-.1.3-.2.7-.3 1-.1.2-.1.5-.2.7-.1.4-.2.7-.2 1.1 0 .2-.1.5-.1.7-.1.4-.1.8-.2 1.2 0 .2-.1.4-.1.6-.1.6-.1 1.2-.1 1.9 0 .6 0 1.2.1 1.7 0 .2 0 .4.1.5 0 .4.1.8.2 1.2 0 .2.1.4.1.5l.3 1.5c2 2.4 4 3.9 4 3.9l27.4-1c0-.1.1-.2.1-.3l-1.4-4.5z" fill="#f8971d"/><path id="XMLID_49_" d="M237.3 21.9l-3.7-1.2s-1 .8-.4 2c.5 1.3 2 1.2 2 1.2l2.1-2z" fill="#f48851"/><circle id="XMLID_48_" cx="228.4" cy="22.4" r="1.2" fill="#5e2e11"/><circle id="XMLID_47_" cx="227.8" cy="21.9" r=".7" fill="#fff"/><path id="XMLID_46_" d="M207.2 36.4l5.8-6.9 5.8 6.9 5.8-6.9 5.8 6.9 5.5-6.5c.5 1.7.7 3.5.7 5.4 0 10.6-7.9 19.2-17.7 19.2-9.8 0-17.7-8.6-17.7-19.2 0-1.9.2-3.6.7-5.3l5.3 6.4z" fill="#ffe3c5"/><path id="XMLID_3_" d="M207.2 36.4l2.6-3.1c-.1 2.6.4 6.4 3.5 10.4 3.9 5.2 11.5 4.7 16.3 2.5 3.9-1.8 6.3-6.3 6.4-6.5-1.9 8.5-8.9 14.8-17.2 14.8-9.8 0-17.7-8.6-17.7-19.2 0-1.9.2-3.6.7-5.3l5.4 6.4z" fill="#f4d4ae"/><path id="XMLID_19_" class="st11" d="M41.6 45.7c-4.3-3.3-6.4-7-6.5-11.3-.1-4.5 1.9-8.3 6-11.6l1.2-.9-5.2.1-.1.1c-4.6 3.6-6.7 7.6-6.7 12.4.1 4.7 2.4 8.7 7.2 12.1l.1.1 5.1-.1-1.1-.9z"/><path id="XMLID_6_" class="st11" d="M53 22.1l-.1-.1-5.2-.1 1.2.9c4.2 3.3 6.1 7.1 6.1 11.6-.1 4.3-2.2 8-6.5 11.3l-1.1.9 5.1.1.1-.1c4.7-3.4 7.1-7.3 7.2-12.1 0-4.8-2.2-8.8-6.8-12.4z"/></svg>