<svg xmlns="http://www.w3.org/2000/svg" xmlns:xlink="http://www.w3.org/1999/xlink" viewBox="0 0 1920 837"><style>.st0{fill:#fff}.st1{fill:none;stroke:#fff;stroke-width:1.6101;stroke-dasharray:2.1469}.st3{fill:#fec40d}.st4{fill:#f79a1f}.st5{fill:none;stroke:#292e33;stroke-width:1.7861}.st10,.st12,.st8,.st9{stroke:#292e33;stroke-width:1.6101}.st8,.st9{fill:#fff}.st9{fill:#61b4e4}.st10{fill:none}.st12{fill:#f7c450}.st16{fill:#a6def8}.st20{fill:#fff;stroke:#292e33}.st20,.st21,.st22{stroke-width:1.6431}.st21,.st22,.st23{stroke:#292e33}.st21{fill:#f7c450}.st22{fill:none}.st23{fill:#ce2728;stroke-width:1.6101}.st26{fill:#fcc613}.st27{fill:#f0536b}.st34{fill:#f1f2f2}.st36{fill:none;stroke:#f2f2f2;stroke-width:1.92;stroke-linecap:round;stroke-miterlimit:10}</style><g id="Layer_1"><path id="XMLID_285_" class="st0" d="M1175.8 363.8c0 4.2-3.4 7.5-7.6 7.5-4.2 0-7.5-3.4-7.5-7.5 0-4.2 3.4-7.5 7.5-7.5 4.2-.1 7.6 3.3 7.6 7.5z"/><circle id="XMLID_284_" class="st0" cx="1546" cy="220.8" r="7.5"/><circle id="XMLID_283_" class="st0" cx="1185.2" cy="197.2" r="7.5"/><circle id="XMLID_282_" class="st0" cx="1677.6" cy="188.6" r="7.6"/><circle id="XMLID_281_" class="st0" cx="1855.7" cy="388.9" r="7.5"/><circle id="XMLID_280_" class="st0" cx="1739" cy="436.2" r="7.5"/><circle id="XMLID_279_" class="st0" cx="1116" cy="495.4" r="7.5"/><circle id="XMLID_278_" class="st0" cx="1535.7" cy="617.9" r="5.2"/><path id="XMLID_277_" class="st0" d="M1606.7 323.1c0 2.9-2.3 5.2-5.2 5.2-2.9 0-5.2-2.3-5.2-5.2 0-2.9 2.3-5.2 5.2-5.2 2.9 0 5.2 2.4 5.2 5.2z"/><circle id="XMLID_276_" class="st0" cx="1816.6" cy="279.2" r="5.2"/><circle id="XMLID_275_" class="st0" cx="963.5" cy="299.1" r="5.2"/><path id="XMLID_274_" class="st1" d="M1229.5 546.7L1116 495.4"/><path id="XMLID_273_" class="st1" d="M1194.5 375l112.5-40.9"/><path id="XMLID_272_" class="st1" d="M1816.6 279.2l-55.7 116.2"/><path id="XMLID_271_" class="st1" d="M1535.7 617.9l210.2-49.9"/><path id="XMLID_270_" class="st1" d="M1705.9 406.7l-132.5-151.3"/><path id="XMLID_269_" class="st1" d="M1116 495.4l52.2-131.6"/><path id="XMLID_268_" class="st1" d="M1538.3 618.2l175.1-150.3"/><path id="XMLID_267_" class="st1" d="M1314.5 574.2l221.3 43.8"/><path id="XMLID_266_" class="st1" d="M1695.9 435.4l-486.4-62.5"/><path id="XMLID_265_" class="st1" d="M1817.2 280.4l-230.1-47.5"/><path id="XMLID_264_" class="st1" d="M919.4 438.8l269.8-243.7"/><path id="XMLID_263_" class="st1" d="M1185.2 197.2l123.1 91.3"/><path id="XMLID_262_" class="st1" d="M1802.2 287.9l-128.8 11.2"/><path id="XMLID_261_" class="st1" d="M1763 563.2l-23.9-130.9"/><path id="XMLID_260_" class="st1" d="M1817.2 277.9l-92.5-63.8"/><path id="XMLID_259_" class="st1" d="M1601.5 323.1l254.2 65.8"/><ellipse id="XMLID_258_" class="st0" cx="1353.5" cy="463.2" rx="7.4" ry="8.7"/><ellipse id="XMLID_257_" class="st0" cx="1003.6" cy="603.7" rx="7.4" ry="8.7"/><path id="XMLID_256_" class="st0" d="M1265.5 641.8c0-4.8 3.3-8.7 7.4-8.7 4.1 0 7.4 3.9 7.4 8.7 0 4.8-3.3 8.7-7.4 8.7-4.1 0-7.4-3.9-7.4-8.7z"/><ellipse id="XMLID_255_" class="st0" cx="1359.5" cy="345.4" rx="7.4" ry="8.7"/><path id="XMLID_254_" class="st0" d="M1035.9 227.3c0-3.3 2.3-6 5.1-6s5.1 2.7 5.1 6-2.3 6-5.1 6-5.1-2.7-5.1-6z"/><path id="XMLID_253_" class="st0" d="M924.3 471.6c0-3.3 2.3-6 5.1-6s5.1 2.7 5.1 6-2.3 6-5.1 6c-2.9-.1-5.1-2.7-5.1-6z"/><path id="XMLID_252_" class="st0" d="M1612.9 610.5c0-3.3 2.3-6 5.1-6s5.1 2.7 5.1 6-2.3 6-5.1 6c-2.9-.1-5.1-2.7-5.1-6z"/><path id="XMLID_251_" class="st1" d="M1618 610.5l-258.5-265.1"/><path id="XMLID_250_" class="st1" d="M1353.5 463.2l-309.7 110.3"/><path id="XMLID_249_" class="st1" d="M1041 227.3l-30.4 319"/><path id="XMLID_248_" class="st1" d="M929.4 471.6l48 86.1"/><path id="XMLID_247_" class="st1" d="M1359.5 345.4l-6 117.8"/><path id="XMLID_246_" class="st1" d="M1041 227.3l-66.7 91.9"/><path id="XMLID_245_" class="st1" d="M1353.5 463.2L1618 610.5"/><path id="XMLID_244_" class="st1" d="M1132.2 387l-230.9-27.2"/><path id="XMLID_243_" class="st1" d="M1201 431l50.3 152.1"/><path id="XMLID_242_" class="st1" d="M976.2 321.3l22.1 225"/><path id="XMLID_241_" class="st1" d="M1606.5 322.3l-288.8 284.2"/><path id="XMLID_240_" class="st1" d="M1637.1 199.1l-47.9 12.9"/><path id="XMLID_239_" class="st1" d="M1234.2 628l-185.5-15.8"/><g id="XMLID_214_"><g id="XMLID_232_"><path id="XMLID_238_" d="M1784.7 322.2v-2.6c0-4.4 3.6-8.3 8.8-10.3 2.3 3.3 6.5 5.5 10.9 5.5h1.4c.1 3.8 3.5 7.4 7.6 7.4s7.5-3.6 7.6-7.4h1.4c4.4 0 8-2.2 10.3-5.5 5.2 2 8.2 6 8.2 10.3v3.6c-7.5 5.3-17.4 8.4-27.5 8.4-10.6-.1-19.3-3.5-28.7-9.4z" fill="#1870b7"/><path id="XMLID_237_" class="st3" d="M1792.6 267.9c0-11.3 9.9-20.6 21.3-20.6s21.3 8.6 21.3 19.7v32.1l-8.6-33c-1.7-4.7-4.9-7.1-8.7-6.8-2.2.2-3.8 1.5-4.5 2.8-.7-1.3-2.3-2.6-4.4-2.8-3.7-.3-6 2.1-7.7 6.8L1794 299v-31.2h-1.4z"/><path id="XMLID_236_" class="st4" d="M1832 307.7l-.3 1.1.1-.3c-2.1 2.9-5.6 4.4-9.4 4.4h-2.1v-11.3h.2c1.8-1.9 3.8-4 4.8-5.9 2.6-4.9 4.3-10.8 4.3-14.2v-1.4l5 23.2c-.2 1.6-1.1 3.1-1.9 4.5-.1 0-.6 0-.7-.1z"/><path id="XMLID_235_" class="st0" d="M1807.2 301.8c1.9 1.5 4 2.5 6.6 2.6 2.6-.1 4.7-1.1 6.5-2.6v12.6c0 3.6-3 6.5-6.6 6.5-3.6 0-6.6-2.9-6.6-6.5v-12.6z"/><path id="XMLID_234_" class="st0" d="M1799.5 275.4l2.2-9c1.5-4.3 4-6.3 7.2-6 2.7.2 3.8 2.4 3.9 3.4h.6l.6.1c.1-1 1.2-3.1 3.9-3.3 3.2-.3 5.7 1.7 7.2 5.9l2.2 9h.6v6.2c0 7.2-5 21.4-14 21.8-9-.3-14.1-14.5-14.1-21.8v-6.2h-.3z"/><path id="XMLID_233_" class="st4" d="M1799.7 280.2v1.4c0 3.4.5 9.2 3 14.2 1 1.9 1.7 4 3.5 5.9h-.9V313h-.9c-6 0-10.2-4.1-11-9.9l6.3-22.9z"/></g><g id="XMLID_215_"><g id="XMLID_230_"><path id="XMLID_231_" class="st5" d="M1814 332.1c-27.1 0-49.1-22-49.1-49.1s22-49.1 49.1-49.1 49.1 22 49.1 49.1c.1 27.1-22 49.1-49.1 49.1z"/></g><g id="XMLID_216_"><path id="XMLID_229_" class="st5" d="M1831.8 308.3c5.9 1.9 10.1 6.2 10.1 11.3v4.2"/><path id="XMLID_228_" class="st5" d="M1784.9 323.8v-4.2c0-4.8 3.7-9 9.1-11"/><path id="XMLID_227_" class="st5" d="M1827.8 275.6v5.9c0 7.1-4.8 22-14.4 22.3-9.6-.3-14.5-15.2-14.4-22.3v-5.9"/><g id="XMLID_223_"><path id="XMLID_225_" class="st5" d="M1813.4 263.8c-.2-1.3-1.6-3.6-4.4-3.8-3.2-.3-6.1 1.5-7.8 6.4l-9.1 37.3"/><path id="XMLID_224_" class="st5" d="M1813.4 263.8c.2-1.3 1.6-3.6 4.4-3.8 3.2-.3 6.1 1.5 7.8 6.4l9.1 37.3"/></g><path id="XMLID_222_" class="st5" d="M1834.7 265.9v36c0 6.8-5.5 12.3-12.3 12.3h-1.9"/><path id="XMLID_221_" class="st5" d="M1806.3 314.2h-1.9c-6.8 0-12.3-5.5-12.3-12.3v-36"/><path id="XMLID_220_" class="st5" d="M1820.4 301.2v13.2c0 3.9-3.2 7.1-7.1 7.1-3.9 0-7.1-3.2-7.1-7.1v-13.2"/><path id="XMLID_219_" class="st5" d="M1809.4 291.2v.4c0 2.1 1.7 3.9 3.9 3.9h.5c2.1 0 3.9-1.7 3.9-3.9v-.4h-8.3z"/><path id="XMLID_218_" fill="none" stroke="#292e33" stroke-width="1.786" stroke-linejoin="bevel" d="M1815.2 273.7l4.8 10.5h-6.1"/><path id="XMLID_217_" class="st5" d="M1792.1 267c0-11.4 9.5-20.7 21.3-20.7s21.3 9.3 21.3 20.7"/></g></g></g><g id="XMLID_198_"><g id="XMLID_199_"><defs><circle id="XMLID_200_" cx="1031.5" cy="228.1" r="42.2"/></defs><clipPath id="XMLID_37_"><use xlink:href="#XMLID_200_" overflow="visible"/></clipPath><g id="XMLID_201_" clip-path="url(#XMLID_37_)"><path id="XMLID_213_" class="st8" d="M1007.4 221.1v8.5c0 1.4 1.1 2.5 2.5 2.5s2.5-1.1 2.5-2.5v-8.5h-5z"/><path id="XMLID_212_" class="st8" d="M1049 221.1v8.5c0 1.4 1.1 2.5 2.5 2.5s2.5-1.1 2.5-2.5v-8.5h-5z"/><path id="XMLID_211_" class="st9" d="M1001.5 271.1v-8.7c0-4.4 4.1-8.1 9.1-8.1h39.9c5 0 9.1 3.6 9.1 8.1v8.7"/><path id="XMLID_210_" class="st8" d="M1043.5 260.7v-6.4h-25.8v6.4l12.9 7.5z"/><path id="XMLID_209_" class="st8" d="M1038.2 257.7l-7.6 4.4-7.7-4.4V241h15.3z"/><path id="XMLID_208_" class="st8" d="M1048.7 209.8c0-5.9-4.8-10.6-10.6-10.6h-15.2c-5.9 0-10.6 4.8-10.6 10.6v29.9l10.1 11.6h16.4l10.1-11.6-.2-29.9z"/><path id="XMLID_207_" class="st9" d="M1030.4 231.8c-7 0-13 4.1-16.1 10.2l8 9.1h16.4l7.8-9c-3-6.1-9-10.3-16.1-10.3z"/><path id="XMLID_206_" class="st8" d="M1026.1 239.4v.5c0 2.3 1.8 4.1 4.1 4.1h.5c2.3 0 4.1-1.8 4.1-4.1v-.5h-8.7z"/><g id="XMLID_203_"><path id="XMLID_205_" class="st10" d="M1022.3 221.3h-3.2"/><path id="XMLID_204_" class="st10" d="M1041.9 221.3h-3.3"/></g><path id="XMLID_202_" class="st10" d="M1034 216.6v10.7h-7v-10.7h-8.3"/></g><use xlink:href="#XMLID_200_" overflow="visible" fill="none" stroke="#292e33" stroke-width="1.61"/></g></g><g id="XMLID_181_"><g id="XMLID_182_"><defs><path id="XMLID_183_" d="M1214.1 386.3c0 23.3-18.9 42.2-42.2 42.2-23.3 0-42.2-18.9-42.2-42.2 0-23.3 18.9-42.2 42.2-42.2 23.3 0 42.2 18.9 42.2 42.2z"/></defs><clipPath id="XMLID_298_"><use xlink:href="#XMLID_183_" overflow="visible"/></clipPath><g id="XMLID_184_" clip-path="url(#XMLID_298_)"><path id="XMLID_197_" class="st8" d="M1144.7 431.4v-9.3c0-4.1 3.8-7.4 8.4-7.4h36.8c4.6 0 8.4 3.3 8.4 7.4v9.3"/><path id="XMLID_196_" class="st8" d="M1179.5 414.5l-8 4.6-8-4.6V397h16z"/><circle id="XMLID_195_" class="st12" cx="1171.4" cy="361.5" r="9.2"/><path id="XMLID_194_" class="st8" d="M1194.5 391.8c0 2-1.7 3.7-3.7 3.7h-.3c-2 0-3.7-1.7-3.7-3.7V385c0-2 1.7-3.7 3.7-3.7h.3c2 0 3.7 1.7 3.7 3.7v6.8z"/><path id="XMLID_193_" class="st8" d="M1190.1 391.7c0 10.3-8.4 18.7-18.7 18.7-10.3 0-18.7-8.4-18.7-18.7v-15c0-10.3 8.4-18.7 18.7-18.7 10.3 0 18.7 8.4 18.7 18.7v15z"/><path id="XMLID_192_" class="st8" d="M1152.7 381.4c-1.9.2-4.9 1.7-4.9 3.7v6.8c0 1.9 3 3.5 4.9 3.7v-14.2z"/><path id="XMLID_191_" class="st10" d="M1171.5 422.9v3.1"/><path id="XMLID_190_" class="st10" d="M1171.5 428.3v3"/><path id="XMLID_189_" class="st12" d="M1171.4 358c-10.3 0-18.7 8.4-18.7 18.7v3.5h24.3l3.3-5.7 3.3 5.7h6.6v-3.5c-.1-10.4-8.5-18.7-18.8-18.7z"/><path id="XMLID_188_" class="st8" d="M1168.7 394c.6 1.1 1.7 1.8 2.9 1.8s2.2-.7 2.9-1.8"/><path id="XMLID_187_" class="st10" d="M1163.7 387.3h-3.4"/><path id="XMLID_186_" class="st10" d="M1182.6 387.3h-3.4"/><path id="XMLID_185_" class="st8" d="M1167 400.8v.3c0 1.8 1.5 3.4 3.4 3.4h2.3c1.9 0 3.4-1.5 3.4-3.4v-.3h-9.1z"/></g><use xlink:href="#XMLID_183_" overflow="visible" fill="none" stroke="#292e33" stroke-width="1.61"/></g></g><g id="XMLID_166_"><g id="XMLID_167_"><defs><path id="XMLID_168_" d="M1310.1 600.6c0 23.3-18.9 42.2-42.2 42.2-23.3 0-42.2-18.9-42.2-42.2 0-23.3 18.9-42.2 42.2-42.2 23.3 0 42.2 18.9 42.2 42.2z"/></defs><clipPath id="XMLID_306_"><use xlink:href="#XMLID_168_" overflow="visible"/></clipPath><g id="XMLID_169_" clip-path="url(#XMLID_306_)"><path id="XMLID_180_" class="st8" d="M1291.7 606.8c0 1.6-1.3 2.9-2.9 2.9h-2.6c-1.6 0-2.9-1.3-2.9-2.9v-5.4c0-1.6 1.3-2.9 2.9-2.9h2.6c1.6 0 2.9 1.3 2.9 2.9v5.4z"/><path id="XMLID_179_" class="st8" d="M1249.2 606.8c0 1.6-1.3 2.9-2.9 2.9h-2.6c-1.6 0-2.9-1.3-2.9-2.9v-5.4c0-1.6 1.3-2.9 2.9-2.9h2.6c1.6 0 2.9 1.3 2.9 2.9v5.4z"/><path id="XMLID_178_" class="st12" d="M1247 641.3l4.5-8.6h37.6l4.5 8.6"/><path id="XMLID_177_" class="st8" d="M1273.6 631.2c0 3.1-2.5 5.6-5.6 5.6h-.4c-3.1 0-5.6-2.5-5.6-5.6v-14.4c0-3.1 2.5-5.6 5.6-5.6h.4c3.1 0 5.6 2.5 5.6 5.6v14.4z"/><path id="XMLID_176_" class="st9" d="M1289.5 586.2c0 11.7-9.5 21.1-21.1 21.1-11.7 0-21.1-9.5-21.1-21.1 0-11.7 9.5-21.1 21.1-21.1 11.6 0 21.1 9.4 21.1 21.1z"/><path id="XMLID_175_" class="st12" d="M1283.8 597.3c0 9.2-7.5 16.7-16.7 16.7s-16.7-7.5-16.7-16.7 7.5-16.7 16.7-16.7 16.7 7.4 16.7 16.7z"/><path id="XMLID_174_" class="st8" d="M1287.4 607.1c0 11.8-9.5 21.3-21.3 21.3s-21.3-9.5-21.3-21.3 9.5-21.3 21.3-21.3c11.7 0 21.3 9.6 21.3 21.3z"/><path id="XMLID_173_" class="st10" d="M1251.8 600.7c0-2.4 1.9-4.4 4.4-4.4 2.4 0 4.4 1.9 4.4 4.4"/><path id="XMLID_172_" class="st10" d="M1269.1 600.7c0-2.4 1.9-4.4 4.4-4.4 2.4 0 4.4 1.9 4.4 4.4"/><path id="XMLID_171_" class="st10" d="M1264.5 597.4v9h-.6c-1.4 0-2.6 1.2-2.6 2.6 0 1.4 1.2 2.6 2.6 2.6h2"/><path id="XMLID_170_" class="st8" d="M1262.4 619.8c2.6 1.7 5.9 2.3 9 1.2 3.2-1.1 5.4-3.6 6.3-6.6l-15.3 5.4z"/></g><use xlink:href="#XMLID_168_" overflow="visible" fill="none" stroke="#292e33" stroke-width="1.61"/></g></g><path id="XMLID_165_" class="st10" d="M1585 225.4c0 23.3-18.9 42.2-42.2 42.2-23.3 0-42.2-18.9-42.2-42.2 0-23.3 18.9-42.2 42.2-42.2 23.2-.1 42.2 18.8 42.2 42.2z"/><g id="XMLID_148_"><g id="XMLID_149_"><defs><circle id="XMLID_150_" cx="1681.1" cy="197.2" r="42.2"/></defs><clipPath id="XMLID_307_"><use xlink:href="#XMLID_150_" overflow="visible"/></clipPath><g id="XMLID_151_" clip-path="url(#XMLID_307_)"><path id="XMLID_164_" class="st9" d="M1663.2 236.6v-8.3c0-3.1 2.5-5.5 5.5-5.5h30.5c3.1 0 5.5 2.5 5.5 5.5v8.3"/><path id="XMLID_163_" class="st8" d="M1673.2 236.6v-7.7c0-2.8 1.3-5.1 2.9-5.1h15.8c1.6 0 2.9 2.3 2.9 5.1v7.7"/><path id="XMLID_162_" class="st8" d="M1679.1 210.2h9.7v18h-9.7z"/><ellipse id="XMLID_161_" class="st9" cx="1669.2" cy="186.2" rx="11.6" ry="12"/><path id="XMLID_160_" class="st9" d="M1673.8 199.3c0 4.2-3.3 7.7-7.4 7.7-4.1 0-7.4-3.4-7.4-7.7 0-4.2 3.3-7.7 7.4-7.7 4.1 0 7.4 3.5 7.4 7.7z"/><ellipse id="XMLID_159_" class="st8" cx="1667.8" cy="193.3" rx="7.4" ry="7.7"/><path id="XMLID_158_" class="st9" d="M1704.3 199.3c0 4.2-3.3 7.7-7.4 7.7-4.1 0-7.4-3.4-7.4-7.7 0-4.2 3.3-7.7 7.4-7.7 4.1 0 7.4 3.5 7.4 7.7z"/><path id="XMLID_157_" class="st8" d="M1697.8 200.5c0 9.1-7.4 16.5-16.5 16.5s-16.5-7.4-16.5-16.5v-13.2c0-9.1 7.4-16.5 16.5-16.5s16.5 7.4 16.5 16.5v13.2z"/><path id="XMLID_156_" class="st9" d="M1696.2 175.2l11.8 11.7-2.1 2.1c-6.5 6.5-17 6.5-23.5 0l-14.7-14.7c8.1-7.2 20.7-7 28.5.9z"/><path id="XMLID_155_" class="st10" d="M1670 194.4c0-2.2 1.8-4.1 4.1-4.1 2.2 0 4.1 1.8 4.1 4.1"/><path id="XMLID_154_" class="st10" d="M1677.7 206.1h6.3"/><path id="XMLID_153_" class="st10" d="M1680.2 232.7h7.6"/><path id="XMLID_152_" class="st10" d="M1684 232.1v4"/></g><use xlink:href="#XMLID_150_" overflow="visible" fill="none" stroke="#292e33" stroke-width="1.61"/></g></g><g id="XMLID_130_"><g id="XMLID_131_"><defs><path id="XMLID_132_" d="M1782.3 434.9c0 23.3-18.9 42.2-42.2 42.2-23.3 0-42.2-18.9-42.2-42.2 0-23.3 18.9-42.2 42.2-42.2 23.3 0 42.2 18.9 42.2 42.2z"/></defs><clipPath id="XMLID_308_"><use xlink:href="#XMLID_132_" overflow="visible"/></clipPath><g id="XMLID_133_" clip-path="url(#XMLID_308_)"><path id="XMLID_147_" class="st12" d="M1753.3 415.6c-.1-1.2-.7-2.4-1.7-3.6v10.7c2 .3 3.5 2.1 3.5 4.1V437h4.2v-15.4c-.1-3.3-2.7-6-6-6z"/><path id="XMLID_146_" class="st8" d="M1712 476.6v-9.4c0-4.1 3.8-7.5 8.5-7.5h37.2c4.7 0 8.5 3.4 8.5 7.5v9.4"/><path id="XMLID_145_" class="st8" d="M1746.3 461l-7.2 5.5-7.1-5.5v-20.5h14.3z"/><path id="XMLID_144_" class="st8" d="M1760.5 440.4c0 1.8-1.5 3.3-3.3 3.3h-.3c-1.8 0-3.3-1.5-3.3-3.3v-3.2c0-1.8 1.5-3.3 3.3-3.3h.3c1.8 0 3.3 1.5 3.3 3.3v3.2z"/><path id="XMLID_143_" class="st8" d="M1755.3 439.5c0 9.2-7.5 16.7-16.7 16.7s-16.7-7.5-16.7-16.7v-13.3c0-9.2 7.5-16.7 16.7-16.7s16.7 7.5 16.7 16.7v13.3z"/><path id="XMLID_142_" class="st12" d="M1761.3 411.2c-.6-4.6-9.6-7.2-20-5.8-9.9 1.3-17.6 5.8-17.8 10.2-3.3 0-6 2.7-6 6V437h4.2v-10.2c0-2.3 1.9-4.2 4.2-4.2h.3c2.4 1.9 7.5 3 13.4 2.8 4.6-.2 8.7-1.3 11.3-2.8h2c4.3 0 7.7-3.5 7.7-7.7l-.6-.1c1-1.1 1.5-2.4 1.3-3.6z"/><path id="XMLID_141_" class="st8" d="M1735.1 445.9c.8 1.4 2.1 2.3 3.6 2.3s2.8-.9 3.6-2.3"/><path id="XMLID_140_" class="st10" d="M1732.1 433.5h-3"/><path id="XMLID_139_" class="st10" d="M1748.9 433.5h-3"/><g id="XMLID_136_"><path id="XMLID_138_" transform="rotate(45.001 1731.47 462.105)" class="st9" d="M1724.9 458.7h13.2v7h-13.2z"/><path id="XMLID_137_" transform="rotate(134.999 1746.754 462.242)" class="st9" d="M1740.1 458.7h13.2v7h-13.2z"/></g><path id="XMLID_135_" class="st10" d="M1739.4 472h2.3"/><path id="XMLID_134_" class="st8" d="M1721.8 434.2c-.5-.2-1-.4-1.5-.4h-.3c-1.8 0-3.3 1.5-3.3 3.3v3.2c0 1.8 1.5 3.3 3.3 3.3h.3c.6 0 1.1-.1 1.5-.4v-9z"/></g><use xlink:href="#XMLID_132_" overflow="visible" fill="none" stroke="#292e33" stroke-width="1.61"/></g></g><g id="XMLID_126_"><path id="XMLID_129_" class="st3" d="M1631.6 556.4c0 9-7.3 16.3-16.3 16.3s-16.3-7.3-16.3-16.3 7.3-16.3 16.3-16.3 16.3 7.3 16.3 16.3z"/><path id="XMLID_128_" class="st10" d="M1621 554.5c0 3.2-2.6 5.7-5.7 5.7-3.2 0-5.7-2.6-5.7-5.7 0-3.2 2.6-5.7 5.7-5.7s5.7 2.5 5.7 5.7z"/><path id="XMLID_127_" class="st10" d="M1619.6 560.9h-8.6c-3.2 0-5.7 2.6-5.7 5.7v.5c2.6 2.5 6.1 4 10 4 3.9 0 7.4-1.5 10-4v-.5c0-3.1-2.6-5.7-5.7-5.7z"/></g><g id="XMLID_122_"><circle id="XMLID_125_" class="st3" cx="1184.5" cy="197.3" r="16.3"/><path id="XMLID_124_" class="st10" d="M1190.2 195.4c0 3.2-2.6 5.7-5.7 5.7-3.2 0-5.7-2.6-5.7-5.7 0-3.2 2.6-5.7 5.7-5.7 3.2-.1 5.7 2.5 5.7 5.7z"/><path id="XMLID_123_" class="st10" d="M1188.8 201.7h-8.6c-3.2 0-5.7 2.6-5.7 5.7v.5c2.6 2.5 6.2 4 10 4 3.9 0 7.4-1.5 10-4v-.5c0-3.1-2.5-5.7-5.7-5.7z"/></g><g id="XMLID_118_"><circle id="XMLID_121_" class="st3" cx="1854.1" cy="387.9" r="16.3"/><circle id="XMLID_120_" class="st10" cx="1854.1" cy="386" r="5.7"/><path id="XMLID_119_" class="st10" d="M1858.4 392.4h-8.6c-3.2 0-5.7 2.6-5.7 5.7v.5c2.6 2.5 6.1 4 10 4 3.9 0 7.4-1.5 10-4v-.5c.1-3.1-2.5-5.7-5.7-5.7z"/></g><g id="XMLID_114_"><circle id="XMLID_117_" class="st3" cx="918.6" cy="451.7" r="16.3"/><path id="XMLID_116_" class="st10" d="M924.3 449.7c0 3.2-2.6 5.7-5.7 5.7-3.2 0-5.7-2.6-5.7-5.7 0-3.2 2.6-5.7 5.7-5.7 3.2 0 5.7 2.6 5.7 5.7z"/><path id="XMLID_115_" class="st10" d="M922.9 456.1h-8.6c-3.2 0-5.7 2.6-5.7 5.7v.5c2.6 2.5 6.1 4 10 4 3.9 0 7.4-1.5 10-4v-.5c0-3.1-2.5-5.7-5.7-5.7z"/></g><g id="XMLID_110_"><circle id="XMLID_113_" class="st16" cx="1762.5" cy="562.8" r="16.3"/><path id="XMLID_112_" class="st10" d="M1768.2 560.9c0 3.2-2.6 5.7-5.7 5.7-3.2 0-5.7-2.6-5.7-5.7 0-3.2 2.6-5.7 5.7-5.7 3.2-.1 5.7 2.5 5.7 5.7z"/><path id="XMLID_111_" class="st10" d="M1766.8 567.2h-8.6c-3.2 0-5.7 2.6-5.7 5.7v.5c2.6 2.5 6.1 4 10 4 3.9 0 7.4-1.5 10-4v-.4c0-3.2-2.6-5.8-5.7-5.8z"/></g><g id="XMLID_106_"><path id="XMLID_109_" class="st16" d="M1136.8 495.5c0 9-7.3 16.3-16.3 16.3s-16.3-7.3-16.3-16.3 7.3-16.3 16.3-16.3 16.3 7.3 16.3 16.3z"/><path id="XMLID_108_" class="st10" d="M1126.3 493.6c0 3.2-2.6 5.7-5.7 5.7-3.2 0-5.7-2.6-5.7-5.7 0-3.2 2.6-5.7 5.7-5.7s5.7 2.5 5.7 5.7z"/><path id="XMLID_107_" class="st10" d="M1124.8 500h-8.6c-3.2 0-5.7 2.6-5.7 5.7v.5c2.6 2.5 6.1 4 10 4 3.9 0 7.4-1.5 10-4v-.5c.1-3.2-2.5-5.7-5.7-5.7z"/></g><g id="XMLID_102_"><path id="XMLID_105_" class="st16" d="M979.8 302.2c0 9-7.3 16.3-16.3 16.3s-16.3-7.3-16.3-16.3 7.3-16.3 16.3-16.3 16.3 7.3 16.3 16.3z"/><circle id="XMLID_104_" class="st10" cx="963.5" cy="300.3" r="5.7"/><path id="XMLID_103_" class="st10" d="M967.8 306.7h-8.6c-3.2 0-5.7 2.6-5.7 5.7v.5c2.6 2.5 6.1 4 10 4 3.9 0 7.4-1.5 10-4v-.5c0-3.1-2.5-5.7-5.7-5.7z"/></g><g id="XMLID_98_"><path id="XMLID_101_" class="st16" d="M1671.7 302.3c0 9-7.3 16.3-16.3 16.3s-16.3-7.3-16.3-16.3 7.3-16.3 16.3-16.3 16.3 7.3 16.3 16.3z"/><path id="XMLID_100_" class="st10" d="M1661.1 300.4c0 3.2-2.6 5.7-5.7 5.7-3.2 0-5.7-2.6-5.7-5.7 0-3.2 2.6-5.7 5.7-5.7s5.7 2.5 5.7 5.7z"/><path id="XMLID_99_" class="st10" d="M1659.7 306.8h-8.6c-3.2 0-5.7 2.6-5.7 5.7v.5c2.6 2.5 6.1 4 10 4 3.9 0 7.4-1.5 10-4v-.5c0-3.2-2.6-5.7-5.7-5.7z"/></g><g id="XMLID_76_"><g id="XMLID_80_"><defs><path id="XMLID_81_" d="M859.6 383.4c-24 0-43.4-19.5-43.4-43.4 0-24 19.5-43.4 43.4-43.4 24 0 43.4 19.5 43.4 43.4.1 23.9-19.4 43.4-43.4 43.4z"/></defs><clipPath id="XMLID_309_"><use xlink:href="#XMLID_81_" overflow="visible"/></clipPath><g id="XMLID_82_" clip-path="url(#XMLID_309_)"><path id="XMLID_97_" class="st9" d="M830.6 381.9v-4.1c0-4.4 4-8 9-8h39.5c5 0 9 3.6 9 8v4.1"/><path id="XMLID_96_" class="st8" d="M841 381.9v-2.8c0-3 2.6-5.3 5.7-5.3h25.2c3.2 0 5.7 2.4 5.7 5.3v2.8"/><path id="XMLID_95_" class="st9" d="M859.3 379.3c6.8 0 11.6-3.1 11.6-7.6v-1.9h-23.1v1.9c-.1 4.5 4.7 7.6 11.5 7.6z"/><path id="XMLID_94_" class="st8" d="M859.3 374.9c-3.9 0-7.1-1.4-7.1-3.2v-16.9c0-1.7 3.2-3.2 7.1-3.2 3.9 0 7.1 1.4 7.1 3.2v16.9c0 1.7-3.2 3.2-7.1 3.2z"/><path id="XMLID_93_" class="st8" d="M876.8 348.3c0 4.9-5.5 16.3-10.4 16.3h-14.1c-4.9 0-10.4-11.4-10.4-16.3v-18.9c0-4.9 4-8.9 8.9-8.9h17.1c4.9 0 8.9 4 8.9 8.9v18.9z"/><path id="XMLID_92_" class="st10" d="M854.1 335.6c1.8 0 3.3 1.5 3.3 3.3v10"/><path id="XMLID_91_" class="st10" d="M854.2 353.4v.5c0 2.3 1.9 4.2 4.2 4.2h.6c2.3 0 4.2-1.9 4.2-4.2v-.5h-9z"/><path id="XMLID_90_" class="st8" d="M841.8 334.3h-1.2c-1.6 0-3 1.3-3 3v6.9c0 1.6 1.3 3 3 3h1.2v-12.9z"/><path id="XMLID_89_" class="st8" d="M877 347.2h1.2c1.6 0 3-1.3 3-3v-6.9c0-1.6-1.3-3-3-3H877v12.9z"/><path id="XMLID_87_" class="st9" d="M872.8 316.3h-1.2c2.3-1 3.7-2.3 3.7-3.8 0-3.2-8.3-4.5-16.5-3.5-9.8 1.1-15.3 7.8-15.3 7.8-2.6 0-6.1 2.1-6.1 4.6v14.2h4.5v-6.3c0-3 1.5-5.6 3.7-7.2l1.8-.4c2.4 2.8 6.7 4.9 11.8 5.5 4.1.5 7.9-.1 10.8-1.5-2-1.5-3.7-3.4-4.9-5.4l8 1.9c2.2 1.6 3.7 4.2 3.7 7.2v6.3h4.5V319l-8.5-2.7z"/><path id="XMLID_86_" class="st8" d="M876.5 342.8c0 1.2-1 2.2-2.2 2.2h-10.4c-1.2 0-2.2-1-2.2-2.2v-4.1c0-1.2 1-2.2 2.2-2.2h10.4c1.2 0 2.2 1 2.2 2.2v4.1z"/><path id="XMLID_85_" class="st8" d="M857.1 342.8c0 1.2-1 2.2-2.2 2.2h-10.4c-1.2 0-2.2-1-2.2-2.2v-4.1c0-1.2 1-2.2 2.2-2.2h10.4c1.2 0 2.2 1 2.2 2.2v4.1z"/><path id="XMLID_84_" class="st10" d="M852.4 340.4h-3.6"/><path id="XMLID_83_" class="st10" d="M867.7 340.4h-3.6"/></g></g><g id="XMLID_77_"><g id="XMLID_78_"><path id="XMLID_79_" class="st10" d="M859.6 383.4c-24 0-43.4-19.5-43.4-43.4 0-24 19.5-43.4 43.4-43.4 24 0 43.4 19.5 43.4 43.4.1 23.9-19.4 43.4-43.4 43.4z"/></g></g></g><g id="XMLID_62_"><g id="XMLID_63_"><defs><path id="XMLID_64_" d="M1051.8 590.4c0 23.8-19.3 43.1-43.1 43.1s-43.1-19.3-43.1-43.1 19.3-43.1 43.1-43.1 43.1 19.3 43.1 43.1z"/></defs><clipPath id="XMLID_310_"><use xlink:href="#XMLID_64_" overflow="visible"/></clipPath><g id="XMLID_65_" clip-path="url(#XMLID_310_)"><path id="XMLID_75_" d="M987.1 636.5v-11.8c0-3.3 2.6-5.9 5.9-5.9h32.4c3.3 0 5.9 2.6 5.9 5.9v11.8" fill="#c0d34b" stroke="#292e33" stroke-width="1.643"/><path id="XMLID_74_" class="st20" d="M1009.3 627.4c-3.9 0-7-3.2-7-7v-37.7c0-3.9 3.2-7 7-7 3.9 0 7 3.2 7 7v37.7c0 3.8-3.1 7-7 7z"/><path id="XMLID_73_" class="st21" d="M1031.2 615.6v-37.5c0-12.5-10.2-22.7-22.7-22.7s-22.7 10.2-22.7 22.7v37.5h.8c10.1 0 18.4-8.2 18.4-18.3h7.5c.1 10.1 8.3 18.3 18.4 18.3h.3z"/><path id="XMLID_72_" class="st20" d="M1030.1 592.2c0 1.9-1.5 3.5-3.5 3.5h-.3c-1.9 0-3.5-1.5-3.5-3.5v-6.3c0-1.9 1.5-3.5 3.5-3.5h.3c1.9 0 3.5 1.5 3.5 3.5v6.3z"/><path id="XMLID_71_" class="st20" d="M1026 579v13.1c0 9.7-7.8 17.5-17.5 17.5s-17.5-7.8-17.5-17.5V579"/><path id="XMLID_70_" class="st20" d="M991 582.5c-1.7.2-4.6 1.6-4.6 3.4v6.3c0 1.8 2.8 3.2 4.6 3.4v-13.1z"/><path id="XMLID_69_" class="st22" d="M1001.3 590.2h-3.2"/><path id="XMLID_68_" class="st22" d="M1018.9 590.2h-3.2"/><path id="XMLID_67_" class="st20" d="M1007.6 602.6h2.2c1.7 0 3.1-1.4 3.1-3.1v-.3"/><path id="XMLID_66_" class="st21" d="M996.5 565.3c-3.4 3.2-5.5 7.7-5.5 12.8v2.4h13.1c1.9 0 3.5-1 4.4-2.5.9 1.5 2.5 2.5 4.4 2.5h13.1"/></g><use xlink:href="#XMLID_64_" overflow="visible" fill="none" stroke="#292e33" stroke-width="1.643"/></g></g><path id="XMLID_61_" class="st1" d="M1503.5 246l-110.2 88.5"/><ellipse id="XMLID_60_" class="st8" cx="1560.3" cy="212.6" rx="5.2" ry="4.5"/><path id="XMLID_59_" class="st23" d="M1546.7 202.5c-11.7 1.1-22.3 5.4-30.1 11.9 0 .9-.1 1.7-.1 2.6 0 21.5 14.5 38.9 32.4 38.9 15.7 0 28.7-13.3 31.7-31.1-1.5.2-3 .4-4.5.4-13 0-24.3-9.3-29.4-22.7z"/><path id="XMLID_58_" class="st10" d="M1578.8 233.4c-1.5.2-3 .4-4.5.4-3.5 0-7-.7-10.2-2"/><path id="XMLID_57_" class="st9" d="M1517.7 258.9v-13.7c0-3.2 2.6-5.8 5.8-5.8h30c3.2 0 5.8 2.6 5.8 5.8V264"/><path id="XMLID_56_" d="M1531.4 241.6v-35.4c0-3.6 3-6.6 6.6-6.6 3.6 0 6.6 3 6.6 6.6v47c0-.3-13.3-11.5-13.2-11.6z" fill="#fff" stroke="#292e33" stroke-width="1.61" stroke-linejoin="round"/><path id="XMLID_55_" class="st8" d="M1538.8 189.1c-9.6 0-17.8 6.1-20.9 14.6-2.4-1-5-.3-6.1 1.7-1.2 2.2-.1 5 2.4 6.5.8.4 1.6.7 2.4.7.6 11.7 10.3 21 22.2 21 12.3 0 22.2-9.9 22.2-22.2 0-12.3-10-22.3-22.2-22.3z"/><path id="XMLID_54_" class="st23" d="M1518 203.4c2.5 2.1 5.4 2.3 7.2 2.3 9.5 0 15.5-7.6 18.7-15.9-1.7-.4-3.4-.6-5.2-.6-9.4-.1-17.5 5.8-20.7 14.2z"/><path id="XMLID_53_" class="st23" d="M1560.5 207c-1.9-9.6-9.9-17-19.9-17.8 1.9 9.6 10 17 19.9 17.8z"/><path id="XMLID_52_" class="st10" d="M1531.7 212.4c-1.8 1.8-4.6 1.8-6.4 0"/><path id="XMLID_51_" class="st10" d="M1550.1 212.4c-1.8 1.8-4.7 1.8-6.4 0"/><path id="XMLID_50_" class="st10" d="M1538.3 208.6v9.6"/><path id="XMLID_49_" d="M1586.8 221.6c0 23.3-18.9 42.2-42.2 42.2-23.3 0-42.2-18.9-42.2-42.2 0-23.3 18.9-42.2 42.2-42.2 23.3 0 42.2 18.9 42.2 42.2z" fill="none"/><g id="XMLID_36_"><path id="XMLID_48_" class="st26" d="M1328.3 273c1.1 21.2 20.9 32.1 20.9 32.1l15.3-13.6 16 19.2 8-6.4 3.5 13.3c2.9-7.1 4.6-14.9 4.6-23.3 0-30.4-21.7-55-48.5-55-3.3 0-6.4.4-9.5 1.1-3.6 3.9-11.2 14.6-10.3 32.6z"/><path id="XMLID_8_" class="st27" d="M1388.7 316.8c-3.6 0-6.6 2.9-6.6 6.5s2.9 6.6 6.6 6.6c3.6 0 6.6-3 6.6-6.6 0-3.6-3-6.5-6.6-6.5z"/><path id="XMLID_7_" class="st27" d="M1388.7 280c-3.6 0-6.6 2.9-6.6 6.5s2.9 6.6 6.6 6.6c3.6 0 6.6-3 6.6-6.6 0-3.6-3-6.5-6.6-6.5z"/><path id="XMLID_45_" d="M1370.2 232.5c-2.6-.3-5 .8-6.7 2.5-.7-3.3-3.5-5.9-7-6.3-3.9-.4-7.5 2.1-8.5 5.8-1.2-2.4-3.5-4.2-6.4-4.5-4.4-.5-8.4 2.8-8.8 7.2v.1c-1-.7-2.2-1.1-3.5-1.3-4.4-.5-8.4 2.8-8.8 7.2-.5 4.4 2.8 8.4 7.2 8.8 4.4.5 8.4-2.7 8.8-7.2v-.1c1 .7 2.2 1.1 3.5 1.3 3.9.4 7.5-2.1 8.5-5.8 1.2 2.4 3.5 4.2 6.4 4.5 2.6.3 5-.8 6.7-2.5.4 1.9 1.5 3.6 3 4.7-.4.9-.7 1.8-.7 2.9 0 3.6 2.9 6.6 6.6 6.6 3.6 0 6.6-3 6.6-6.6 0-1.6-.6-3-1.5-4.1 1-1.2 1.7-2.7 1.8-4.3.4-4.5-2.8-8.5-7.2-8.9z" fill="#d91e39"/><path id="XMLID_44_" class="st26" d="M1305.8 307.7c6 22.6 24.5 39.1 46.4 39.1 19.1 0 35.6-12.6 43.5-30.8l-78.6 2.9c.1 0-5.6-4.3-11.3-11.2z"/><path id="XMLID_43_" class="st26" d="M1332.4 270.5c1.1 21.2 20.9 32.1 20.9 32.1l15.3-13.6 16 19.2 8-6.4 3.5 13.3c2.9-7.1 4.6-14.9 4.6-23.3 0-30.4-21.7-55-48.5-55-3.3 0-6.4.4-9.5 1.1-3.6 3.9-11.2 14.7-10.3 32.6z"/><path id="XMLID_42_" d="M1392.7 301.7l-8 6.4-16-19.2-15.3 13.6s-19.8-10.8-20.9-32.1c-.9-17.9 6.7-28.7 10.3-32.7h-.1c-.5.1-1 .3-1.5.4-1 .3-2 .5-2.9.9-.6.2-1.2.5-1.8.7-.8.3-1.6.6-2.4 1l-1.8.9c-.8.4-1.5.8-2.2 1.2-.6.3-1.2.7-1.8 1.1-.7.5-1.4.9-2.1 1.4-.6.4-1.1.8-1.6 1.2-.7.5-1.4 1.1-2 1.7-.5.4-1 .9-1.5 1.3l-2.1 2.1-1.2 1.2c-1 1.2-2 2.4-2.9 3.6l-.6.9c-.7 1-1.4 2-2 3.1-.3.5-.6 1.1-.9 1.6-.5.9-1 1.8-1.4 2.7-.3.6-.6 1.2-.8 1.8-.4.9-.8 1.8-1.1 2.7-.3.6-.5 1.3-.7 2-.3.9-.6 1.9-.9 2.8-.2.7-.4 1.3-.6 2-.3 1-.5 2-.7 3-.1.7-.3 1.3-.4 2-.2 1.1-.3 2.3-.5 3.5-.1.6-.2 1.1-.2 1.7-.1 1.7-.2 3.5-.2 5.3 0 1.7.1 3.4.2 5 0 .5.1 1 .2 1.5.1 1.2.3 2.3.5 3.5l.3 1.5c.3 1.5.6 2.9 1 4.3 5.7 7 11.3 11.2 11.3 11.2l78.6-2.9h.1c.1-.3.3-.6.4-.9v-.1l-3.8-12.9z" fill="#f89720"/><path id="XMLID_6_" d="M1405.4 269l-10.5-3.5s-2.7 2.3-1.2 5.9c1.6 3.6 5.7 3.3 5.7 3.3l6-5.7z" fill="#f38751"/><circle id="XMLID_5_" cx="1379.8" cy="270.5" r="3.6" fill="#5d2f14"/><circle id="XMLID_4_" class="st0" cx="1378" cy="268.9" r="2"/><path id="XMLID_2_" d="M1319.2 310.5l16.5-19.7 16.5 19.7 16.5-19.7 16.5 19.7 15.8-18.7c1.3 4.9 2.1 10.1 2.1 15.5 0 30.4-22.7 55-50.7 55-28 0-50.7-24.6-50.7-55 0-5.3.7-10.5 2-15.3l15.5 18.5z" fill="#fee1c3"/><path id="XMLID_1_" d="M1319.2 310.5l7.3-8.7c-.3 7.4 1.3 18.3 9.9 29.9 11.2 14.9 32.9 13.5 46.8 7.1 11.2-5.1 18-17.9 18.4-18.7-5.3 24.2-25.4 42.3-49.4 42.3-28 0-50.7-24.6-50.7-55 0-5.3.7-10.5 2-15.3l15.7 18.4z" fill="#f3d3ae"/></g></g><g id="Layer_3"><g id="XMLID_23_"><path id="XMLID_289_" class="st34" d="M1055.4 691.9l-17.9-7.9v-2.6l17.9-8.9v4.3l-12.3 5.7 12.3 5.1v4.3z"/><path id="XMLID_293_" class="st34" d="M1072 669.2l-9.8 26.4h-5l9.8-26.4h5z"/><path id="XMLID_296_" class="st34" d="M1073.8 687.6l12.3-5.1-12.3-5.7v-4.3l17.9 8.9v2.6l-17.9 7.9v-4.3z"/></g><g id="XMLID_24_"><path id="XMLID_38_" class="st34" d="M1525.8 149.3l-22.8-10V137l22.8-11.4v3.5l-18.6 8.8 18.6 7.8v3.6z"/><path id="XMLID_47_" class="st34" d="M1545.7 120.3l-12.9 34.7h-3.9l12.9-34.7h3.9z"/><path id="XMLID_287_" class="st34" d="M1548.6 145.7l18.6-7.7-18.6-8.9v-3.5l22.8 11.4v2.3l-22.8 10v-3.6z"/></g><g id="XMLID_29_"><path id="XMLID_28_" d="M619.3 93.3h56.4c.3-6.8 5.9-12.3 12.9-12.3 3.7 0 6.9 1.5 9.3 4 3-5.5 8.8-9.3 15.5-9.3.8 0 1.7.1 2.5.2 2-14.9 14.8-26.4 30.3-26.4 2.3 0 4.5.3 6.6.7 4.6-8.5 13.6-14.2 23.9-14.2 11.9 0 22 7.6 25.7 18.3 2.7-1.1 5.6-1.7 8.6-1.7 12.4 0 22.4 10 22.4 22.4 0 1.3-.1 2.6-.3 3.8.5 0 1-.1 1.5-.1 8.9 0 16.4 6.2 18.2 14.6h68.5" fill="#b3e2ef" stroke="#f2f2f2" stroke-width="1.92" stroke-linecap="round" stroke-miterlimit="10"/><path id="XMLID_27_" class="st36" d="M865.5 106.5h-79.4"/><path id="XMLID_26_" class="st36" d="M808.9 116.8h-11.2"/><path id="XMLID_25_" class="st36" d="M736.9 116.8h-81.6"/></g><path id="XMLID_295_" class="st36" d="M1609.5 678.7h-60.9"/><path id="XMLID_292_" class="st36" d="M1609.6 695.6h16.9"/><path id="XMLID_291_" class="st36" d="M1689.6 665.9h16.9"/><g id="XMLID_30_"><path id="XMLID_35_" class="st36" d="M1627.8 657l7.5-5.4"/><path id="XMLID_34_" class="st36" d="M1627.8 657l7.5 5.4"/><path id="XMLID_33_" class="st36" d="M1659.9 657l-7.5-5.4"/><path id="XMLID_32_" class="st36" d="M1659.9 657l-7.5 5.4"/><path id="XMLID_31_" class="st36" d="M1648.8 647l-8.9 18.4"/></g><g id="XMLID_299_"><path id="XMLID_302_" d="M1690.1 88.1h31.6c2.6-2.3 5.9-3.6 9.4-3.6h.3l3.1.1-.5-3c-.2-1.4-.3-2.8-.3-4.2 0-14.7 11.9-26.6 26.6-26.6 10.2 0 19.7 6 24.1 15.2l1.2 2.5 2.4-1.3c3.2-1.7 6.7-2.7 10.3-2.7 10.6 0 19.7 7.9 21.2 18.4l.5 3.3 3.1-1.3c1.7-.7 3.5-1 5.3-1 3.8 0 7.4 1.6 9.9 4.2h50.1" fill="#53c8e9" stroke="#f2f2f2" stroke-width="1.92" stroke-linecap="round" stroke-miterlimit="10"/><path id="XMLID_301_" class="st36" d="M1735 99.4h-78.2"/><path id="XMLID_300_" class="st36" d="M1792.3 112.1h-83.5"/></g><path id="XMLID_41_" d="M603.7 541.8H626c1.8-1.6 4.1-2.5 6.6-2.5h2.4l-.3-2.1c-.2-1-.2-2-.2-2.9 0-10.3 8.4-18.7 18.7-18.7 7.2 0 13.8 4.2 16.9 10.7l.8 1.7 1.7-.9c2.2-1.2 4.7-1.9 7.3-1.9 7.5 0 13.9 5.6 14.9 12.9l.3 2.3 2.1-.9c1.2-.5 2.4-.7 3.7-.7 2.7 0 5.2 1.1 7 3H743" fill="#0393aa" stroke="#f2f2f2" stroke-width="1.92" stroke-linecap="round" stroke-miterlimit="10"/><path id="XMLID_40_" class="st36" d="M635.3 549.8h-55"/><path id="XMLID_39_" class="st36" d="M675.5 558.7h-58.6"/><g id="XMLID_305_"><path id="XMLID_304_" d="M327.2 731.3h-42.7c-2.7-6-8-10.1-14.1-10.1 2.2-4.3 3.5-9.4 3.5-14.9 0-15.4-10.2-27.8-22.9-27.8-7.7 0-14.6 4.7-18.7 11.8-.7-.6-1.4-1.1-2.2-1.6-13.5-8.9-30.4-2.8-37.7 13.6-2.7 6.1-3.8 12.8-3.3 19.3h-.1c-5.9 0-11 3.9-13.7 9.7h-50.2" fill="#ecf0b9" stroke="#f2f2f2" stroke-width="1.92" stroke-linecap="round" stroke-miterlimit="10"/><path id="XMLID_303_" class="st36" d="M294.7 746.4h54.4"/><path id="XMLID_9_" class="st36" d="M168.3 746.4h45.9"/></g></g></svg>