<svg id="Layer_1" xmlns="http://www.w3.org/2000/svg" viewBox="0 0 72 72"><style>.st0{fill:#fdc70c}.st1{fill:#f0526c}</style><g id="XMLID_24_"><path id="XMLID_36_" class="st0" d="M23.3 24.2c.6 11.2 11 16.8 11 16.8l8-7.1L50.7 44l4.2-3.3 1.8 7c1.5-3.7 2.4-7.8 2.4-12.2 0-16-11.4-28.9-25.5-28.9-1.7 0-3.4.2-5 .6-1.8 1.9-5.8 7.6-5.3 17z"/><path id="XMLID_8_" class="st1" d="M55.1 47.2c-1.9 0-3.4 1.5-3.4 3.4s1.5 3.5 3.4 3.5 3.4-1.6 3.4-3.5-1.5-3.4-3.4-3.4z"/><path id="XMLID_7_" class="st1" d="M55.1 27.9c-1.9 0-3.4 1.5-3.4 3.4s1.5 3.5 3.4 3.5 3.4-1.6 3.4-3.5-1.5-3.4-3.4-3.4z"/><path id="XMLID_33_" d="M45.3 2.9c-1.4-.1-2.6.4-3.5 1.3-.4-1.7-1.8-3.1-3.7-3.3-2.1-.2-3.9 1.1-4.5 3-.6-1.3-1.8-2.2-3.3-2.3-2.3-.2-4.4 1.4-4.6 3.8v.1c-.5-.3-1.2-.6-1.8-.7-2.3-.2-4.4 1.4-4.6 3.8-.2 2.3 1.4 4.4 3.8 4.6 2.3.2 4.4-1.4 4.6-3.8.5.3 1.2.6 1.8.7 2.1.2 3.9-1.1 4.5-3 .6 1.3 1.8 2.2 3.3 2.3 1.4.1 2.6-.4 3.5-1.3.2 1 .8 1.9 1.6 2.5-.2.5-.4 1-.4 1.5 0 1.9 1.5 3.5 3.4 3.5s3.4-1.6 3.4-3.5c0-.8-.3-1.6-.8-2.2.5-.6.9-1.4 1-2.3.3-2.4-1.3-4.5-3.7-4.7z" fill="#db1e38"/><path id="XMLID_32_" class="st0" d="M11.5 42.4c3.2 11.9 12.9 20.5 24.4 20.5 10 0 18.7-6.6 22.8-16.2l-41.3 1.5c.1.1-2.9-2.1-5.9-5.8z"/><path id="XMLID_31_" class="st0" d="M25.5 22.9c.6 11.2 11 16.8 11 16.8l8-7.1 8.4 10.1 4.2-3.3 1.8 7c1.5-3.7 2.4-7.8 2.4-12.2 0-16-11.4-28.9-25.5-28.9-1.7 0-3.4.2-5 .6-1.8 1.9-5.8 7.5-5.3 17z"/><path id="XMLID_30_" d="M57.1 39.3l-4.2 3.3-8.4-10.1-8 7.1s-10.4-5.7-11-16.8c-.5-9.4 3.5-15 5.4-17.1-.3.1-.5.1-.8.2-.5.1-1 .3-1.5.4-.3.1-.6.2-.9.4-.4.2-.9.3-1.3.5-.3.1-.6.3-1 .5l-1.2.6-.9.6c-.4.2-.7.5-1.1.8l-.9.6c-.4.3-.7.6-1.1.9-.3.2-.5.5-.8.7L18.3 13c-.2.2-.4.4-.6.7-.5.6-1 1.2-1.5 1.9-.1.2-.2.3-.3.5-.4.5-.7 1.1-1.1 1.6-.2.3-.3.6-.5.8-.3.5-.5.9-.8 1.4-.2.3-.3.6-.4 1-.2.5-.4.9-.6 1.4-.1.3-.3.7-.4 1-.2.5-.3 1-.5 1.5-.1.3-.2.7-.3 1.1-.1.5-.3 1.1-.4 1.6-.1.3-.1.7-.2 1-.1.6-.2 1.2-.2 1.8 0 .3-.1.6-.1.9-.1.9-.1 1.8-.1 2.8 0 .9 0 1.8.1 2.6 0 .3.1.5.1.8.1.6.1 1.2.2 1.8 0 .3.1.5.1.8.1.8.3 1.5.5 2.3 3 3.7 6 5.9 6 5.9l41.3-1.5c.1-.2.1-.3.2-.5l-1.7-6.9z" fill="#f8971d"/><path id="XMLID_6_" d="M63.8 22.1l-5.5-1.8s-1.4 1.2-.6 3.1c.8 1.9 3 1.7 3 1.7l3.1-3z" fill="#f48851"/><circle id="XMLID_5_" cx="50.4" cy="22.9" r="1.9" fill="#5e2e11"/><circle id="XMLID_4_" cx="49.4" cy="22" r="1" fill="#fff"/><path id="XMLID_2_" d="M18.6 43.9l8.7-10.3L36 43.9l8.7-10.3 8.7 10.3 8.3-9.8c.7 2.6 1.1 5.3 1.1 8.2 0 16-11.9 28.9-26.6 28.9-14.7 0-26.6-12.9-26.6-28.9 0-2.8.4-5.5 1.1-8l7.9 9.6z" fill="#ffe3c5"/><path id="XMLID_1_" d="M18.6 43.9l3.9-4.6c-.2 3.9.7 9.6 5.2 15.7 5.9 7.8 17.3 7.1 24.6 3.7 5.9-2.7 9.5-9.4 9.7-9.8-2.9 12.7-13.4 22.2-26 22.2-14.7 0-26.6-12.9-26.6-28.9 0-2.8.4-5.5 1.1-8l8.1 9.7z" fill="#f4d4ae"/></g></svg>